<svg width="20" height="20" viewBox="0 0 20 20" fill="none" xmlns="http://www.w3.org/2000/svg">
<g clip-path="url(#clip0_265_440)">
<path d="M5.16667 5.41667C5.16667 5.27895 5.27895 5.16667 5.41667 5.16667C5.55438 5.16667 5.66667 5.27895 5.66667 5.41667C5.66667 5.55438 5.55438 5.66667 5.41667 5.66667C5.27895 5.66667 5.16667 5.55438 5.16667 5.41667ZM5.66667 10C5.66667 10.1377 5.55438 10.25 5.41667 10.25C5.27895 10.25 5.16667 10.1377 5.16667 10C5.16667 9.86228 5.27895 9.75 5.41667 9.75C5.55438 9.75 5.66667 9.86228 5.66667 10ZM5.66667 14.5833C5.66667 14.721 5.55438 14.8333 5.41667 14.8333C5.27895 14.8333 5.16667 14.721 5.16667 14.5833C5.16667 14.4456 5.27895 14.3333 5.41667 14.3333C5.55438 14.3333 5.66667 14.4456 5.66667 14.5833Z" fill="#0C4D3E" stroke="#0C4D3E" stroke-width="2"/>
</g>
<defs>
<clipPath id="clip0_265_440">
<rect width="20" height="20" fill="white"/>
</clipPath>
</defs>
</svg>
