<svg width="18" height="20" viewBox="0 0 18 20" fill="none" xmlns="http://www.w3.org/2000/svg">
<path d="M8.98704 19.9955L14.8725 14.2391C18.1372 11.0029 18.1603 5.73293 14.9241 2.46824C11.688 -0.796443 6.41798 -0.819607 3.15329 2.41656C3.13599 2.43371 3.11876 2.45094 3.10161 2.46824C-0.148818 5.71875 -0.148779 10.9888 3.10173 14.2392C3.10392 14.2414 3.1061 14.2436 3.10829 14.2458L8.98704 19.9955ZM4.27853 3.64516C6.87712 1.04289 11.0933 1.03989 13.6956 3.63852C16.2978 6.23715 16.3008 10.4533 13.7022 13.0555L8.98704 17.6666L4.27853 13.0622C1.6781 10.4619 1.67798 6.24586 4.27829 3.64539C4.27837 3.64531 4.27845 3.64524 4.27853 3.64516ZM8.1547 9.18602H5.6577V7.52133H8.1547V5.02434H9.81935V7.52133H12.3163V9.18602H9.81935V11.683H8.1547V9.18602Z" fill="#0C4D3E"/>
</svg>
