<svg width="10" height="10" viewBox="0 0 10 10" fill="none" xmlns="http://www.w3.org/2000/svg">
<g clip-path="url(#clip0_475_148)">
<path d="M7.91667 6.25H7.5C7.26958 6.25 7.08333 6.06375 7.08333 5.83333C7.08333 5.60292 7.26958 5.41667 7.5 5.41667H7.91667C8.14708 5.41667 8.33333 5.60292 8.33333 5.83333C8.33333 6.06375 8.14708 6.25 7.91667 6.25ZM8.33333 7.5C8.33333 7.26958 8.14708 7.08333 7.91667 7.08333H7.5C7.26958 7.08333 7.08333 7.26958 7.08333 7.5C7.08333 7.73042 7.26958 7.91667 7.5 7.91667H7.91667C8.14708 7.91667 8.33333 7.73042 8.33333 7.5ZM6.66667 2.5C6.66667 2.26958 6.48042 2.08333 6.25 2.08333H5.83333C5.60292 2.08333 5.41667 2.26958 5.41667 2.5C5.41667 2.73042 5.60292 2.91667 5.83333 2.91667H6.25C6.48042 2.91667 6.66667 2.73042 6.66667 2.5ZM8.33333 2.5C8.33333 2.26958 8.14708 2.08333 7.91667 2.08333H7.5C7.26958 2.08333 7.08333 2.26958 7.08333 2.5C7.08333 2.73042 7.26958 2.91667 7.5 2.91667H7.91667C8.14708 2.91667 8.33333 2.73042 8.33333 2.5ZM8.33333 4.16667C8.33333 3.93625 8.14708 3.75 7.91667 3.75H7.5C7.26958 3.75 7.08333 3.93625 7.08333 4.16667C7.08333 4.39708 7.26958 4.58333 7.5 4.58333H7.91667C8.14708 4.58333 8.33333 4.39708 8.33333 4.16667ZM10 7.91667V2.08333C10 0.934583 9.06542 0 7.91667 0H5.83333C4.68458 0 3.75 0.934583 3.75 2.08333C3.75 2.31375 3.93625 2.5 4.16667 2.5C4.39708 2.5 4.58333 2.31375 4.58333 2.08333C4.58333 1.39417 5.14417 0.833333 5.83333 0.833333H7.91667C8.60583 0.833333 9.16667 1.39417 9.16667 2.08333V7.91667C9.16667 8.60583 8.60583 9.16667 7.91667 9.16667H7.5C7.26958 9.16667 7.08333 9.35292 7.08333 9.58333C7.08333 9.81375 7.26958 10 7.5 10H7.91667C9.06542 10 10 9.06542 10 7.91667ZM6.66667 8.125V6.395C6.66667 5.75 6.37542 5.1525 5.86708 4.75417L4.61708 3.77542C3.86125 3.18458 2.80542 3.18417 2.04958 3.77542L0.799583 4.75375C0.29125 5.15167 0 5.74958 0 6.39458V8.12458C0 9.15833 0.84125 9.99958 1.875 9.99958H4.79167C5.82542 9.99958 6.66667 9.15875 6.66667 8.125ZM4.10375 4.43208L5.35375 5.41042C5.65833 5.64917 5.83333 6.00833 5.83333 6.395V8.125C5.83333 8.69958 5.36625 9.16667 4.79167 9.16667H1.875C1.30042 9.16667 0.833333 8.69958 0.833333 8.125V6.395C0.833333 6.00792 1.00833 5.64917 1.31292 5.41042L2.56292 4.4325C2.78958 4.255 3.06125 4.16625 3.33333 4.16625C3.60542 4.16625 3.87708 4.255 4.10375 4.43208ZM4.16667 7.5V6.66667C4.16667 6.43667 3.98 6.25 3.75 6.25H2.91667C2.68667 6.25 2.5 6.43667 2.5 6.66667V7.5C2.5 7.73 2.68667 7.91667 2.91667 7.91667H3.75C3.98 7.91667 4.16667 7.73 4.16667 7.5Z" fill="white"/>
</g>
<defs>
<clipPath id="clip0_475_148">
<rect width="10" height="10" fill="white"/>
</clipPath>
</defs>
</svg>
