<svg width="10" height="10" viewBox="0 0 10 10" fill="none" xmlns="http://www.w3.org/2000/svg">
<g clip-path="url(#clip0_475_154)">
<path d="M9.58333 9.16658H8.33333V2.49992C8.33333 1.58075 7.58583 0.83325 6.66667 0.83325H6.44375C6.34458 0.662 6.21458 0.507416 6.05667 0.37825C5.66917 0.0607496 5.165 -0.0655004 4.67333 0.032833L3.34125 0.299083C2.37083 0.49325 1.66667 1.35242 1.66667 2.342V9.16658H0.416667C0.186667 9.16658 0 9.35283 0 9.58325C0 9.81367 0.186667 9.99992 0.416667 9.99992H9.58333C9.81333 9.99992 10 9.81367 10 9.58325C10 9.35283 9.81333 9.16658 9.58333 9.16658ZM6.66667 1.66658C7.12625 1.66658 7.5 2.04033 7.5 2.49992V9.16658H6.66667V1.66658ZM2.5 2.342C2.5 1.74783 2.9225 1.23242 3.50458 1.11617L4.83625 0.849916C5.08208 0.800333 5.33417 0.863666 5.52833 1.02283C5.72208 1.18158 5.83292 1.41617 5.83292 1.667V9.16658H2.5V2.342ZM5 5.20825C5 5.55325 4.72 5.83325 4.375 5.83325C4.03 5.83325 3.75 5.55325 3.75 5.20825C3.75 4.86325 4.03 4.58325 4.375 4.58325C4.72 4.58325 5 4.86325 5 5.20825Z" fill="black"/>
</g>
<defs>
<clipPath id="clip0_475_154">
<rect width="10" height="10" fill="white"/>
</clipPath>
</defs>
</svg>
