<svg width="20" height="20" viewBox="0 0 20 20" fill="none" xmlns="http://www.w3.org/2000/svg">
<g id="apps 1" clip-path="url(#clip0_466_98)">
<g id="Group">
<path id="Vector" d="M3.33332 0H5.83332C7.67426 0 9.16664 1.49238 9.16664 3.33332V5.83332C9.16664 7.67426 7.67426 9.16664 5.83332 9.16664H3.33332C1.49238 9.16668 0 7.6743 0 5.83332V3.33332C0 1.49238 1.49238 0 3.33332 0Z" fill="#3AC387"/>
<path id="Vector_2" d="M14.1666 0H16.6666C18.5075 0 19.9999 1.49238 19.9999 3.33332V5.83332C19.9999 7.67426 18.5075 9.16664 16.6666 9.16664H14.1666C12.3256 9.16664 10.8333 7.67426 10.8333 5.83332V3.33332C10.8332 1.49238 12.3256 0 14.1666 0Z" fill="#0C4D3E"/>
<path id="Vector_3" d="M3.33332 10.8333H5.83332C7.67426 10.8333 9.16664 12.3257 9.16664 14.1666V16.6666C9.16664 18.5076 7.67426 20 5.83332 20H3.33332C1.49238 20 0 18.5076 0 16.6667V14.1667C0 12.3257 1.49238 10.8333 3.33332 10.8333Z" fill="#0C4D3E"/>
<path id="Vector_4" d="M14.1666 10.8333H16.6666C18.5075 10.8333 19.9999 12.3257 19.9999 14.1666V16.6666C19.9999 18.5076 18.5075 20 16.6666 20H14.1666C12.3256 20 10.8333 18.5076 10.8333 16.6667V14.1667C10.8332 12.3257 12.3256 10.8333 14.1666 10.8333Z" fill="#3AC387"/>
</g>
</g>
<defs>
<clipPath id="clip0_466_98">
<rect width="20" height="20" fill="white"/>
</clipPath>
</defs>
</svg>
