<svg width="12" height="12" viewBox="0 0 12 12" fill="none" xmlns="http://www.w3.org/2000/svg">
<g clip-path="url(#clip0_392_787)">
<path d="M11 8.6755V3.3245C11.589 3.0425 12 2.4455 12 1.75C12 0.785 11.215 0 10.25 0C9.5545 0 8.9575 0.411 8.6755 1H3.3245C3.0425 0.411 2.4455 0 1.75 0C0.785 0 0 0.785 0 1.75C0 2.4455 0.411 3.0425 1 3.3245V8.6755C0.411 8.9575 0 9.5545 0 10.25C0 11.215 0.785 12 1.75 12C2.4455 12 3.0425 11.589 3.3245 11H8.6755C8.9575 11.589 9.5545 12 10.25 12C11.215 12 12 11.215 12 10.25C12 9.5545 11.589 8.9575 11 8.6755ZM10.25 1C10.6635 1 11 1.3365 11 1.75C11 2.1635 10.6635 2.5 10.25 2.5C9.8365 2.5 9.5 2.1635 9.5 1.75C9.5 1.3365 9.8365 1 10.25 1ZM1.75 1C2.1635 1 2.5 1.3365 2.5 1.75C2.5 2.1635 2.1635 2.5 1.75 2.5C1.3365 2.5 1 2.1635 1 1.75C1 1.3365 1.3365 1 1.75 1ZM1.75 11C1.3365 11 1 10.6635 1 10.25C1 9.8365 1.3365 9.5 1.75 9.5C2.1635 9.5 2.5 9.8365 2.5 10.25C2.5 10.6635 2.1635 11 1.75 11ZM8.5255 10H3.4745C3.364 9.2365 2.763 8.636 2 8.5255V3.4745C2.7635 3.364 3.364 2.763 3.4745 2H8.525C8.6355 2.7635 9.2365 3.364 9.9995 3.4745V8.525C9.236 8.6355 8.6355 9.2365 8.525 9.9995L8.5255 10ZM10.25 11C9.8365 11 9.5 10.6635 9.5 10.25C9.5 9.8365 9.8365 9.5 10.25 9.5C10.6635 9.5 11 9.8365 11 10.25C11 10.6635 10.6635 11 10.25 11Z" fill="#939393"/>
</g>
<defs>
<clipPath id="clip0_392_787">
<rect width="12" height="12" fill="white"/>
</clipPath>
</defs>
</svg>
