<svg width="12" height="12" viewBox="0 0 12 12" fill="none" xmlns="http://www.w3.org/2000/svg">
<g clip-path="url(#clip0_392_785)">
<path d="M11.7475 7.9365L11.989 6H1V2.1665C1 1.5235 1.5235 1 2.1665 1C2.5315 1 2.881 1.1745 3.1 1.4665L3.2295 1.639L2.9425 3.284L3.478 4.119L6.3665 1.9525L5.831 1.1175L4.0275 1.037L3.8995 0.866C3.4925 0.3235 2.8445 0 2.166 0C0.9715 0 0 0.9715 0 2.1665V6L0.2595 7.9365C0.3875 8.9605 0.8915 9.857 1.6225 10.495L1.2505 12H2.281L2.507 11.084C3.0495 11.3505 3.6575 11.5 4.296 11.5H7.7115C8.348 11.5 8.954 11.352 9.495 11.087L9.7205 12H10.751L10.38 10.4995C11.1135 9.8615 11.62 8.963 11.7485 7.9365H11.7475ZM4.2955 10.5C2.7515 10.5 1.443 9.3445 1.2515 7.8125L1.15 7H10.8565L10.7555 7.8125C10.5635 9.3445 9.255 10.5 7.711 10.5H4.2955Z" fill="#939393"/>
</g>
<defs>
<clipPath id="clip0_392_785">
<rect width="12" height="12" fill="white"/>
</clipPath>
</defs>
</svg>
