<svg width="20" height="20" viewBox="0 0 20 20" fill="none" xmlns="http://www.w3.org/2000/svg">
<g clip-path="url(#clip0_300_35)">
<path d="M15.8333 1.6665H4.16667C1.86667 1.6665 0 3.53317 0 5.83317V14.1665C0 16.4665 1.86667 18.3332 4.16667 18.3332H10C10.4583 18.3332 10.8333 17.9582 10.8333 17.4998C10.8333 17.0415 10.4583 16.6665 10 16.6665H4.16667C2.79167 16.6665 1.66667 15.5415 1.66667 14.1665V7.49984H18.3333V11.6665C18.3333 12.1248 18.7083 12.4998 19.1667 12.4998C19.625 12.4998 20 12.1248 20 11.6665V5.83317C20 3.53317 18.1333 1.6665 15.8333 1.6665ZM1.66667 5.83317C1.66667 4.45817 2.79167 3.33317 4.16667 3.33317H15.8333C17.2083 3.33317 18.3333 4.45817 18.3333 5.83317H1.66667ZM13.675 10.1415C13.0417 9.50817 12.2083 9.1665 11.3167 9.1665H9.99167C9.53333 9.1665 9.15833 9.5415 9.15833 9.99984V11.3248C9.15833 12.2165 9.50833 13.0498 10.1333 13.6832L15.725 19.2748C16.2 19.7498 16.825 20.0082 17.4917 20.0082C18.1583 20.0082 18.7833 19.7498 19.2583 19.2748C19.7333 18.7998 19.9917 18.1748 19.9917 17.5082C19.9917 16.8415 19.7333 16.2165 19.2583 15.7415L13.6667 10.1498L13.675 10.1415ZM18.0833 18.0915C17.7667 18.4082 17.2167 18.4082 16.9083 18.0915L11.3167 12.4998C11 12.1832 10.825 11.7665 10.825 11.3248V10.8332H11.3167C11.7583 10.8332 12.1833 11.0082 12.4917 11.3248L18.0833 16.9165C18.2417 17.0748 18.325 17.2832 18.325 17.5082C18.325 17.7332 18.2417 17.9415 18.0833 18.0998V18.0915Z" fill="#0C4D3E"/>
</g>
<defs>
<clipPath id="clip0_300_35">
<rect width="20" height="20" fill="white"/>
</clipPath>
</defs>
</svg>
