<svg width="20" height="20" viewBox="0 0 20 20" fill="none" xmlns="http://www.w3.org/2000/svg">
<g clip-path="url(#clip0_300_37)">
<path d="M4.97667 18.5709C4.79451 18.5708 4.61739 18.5111 4.47242 18.4008C4.32744 18.2905 4.22259 18.1358 4.17391 17.9602C4.12523 17.7847 4.1354 17.5981 4.20287 17.4289C4.27034 17.2597 4.39139 17.1172 4.5475 17.0234C7.5 15.25 7.5 11.4417 7.5 9.16671C7.5 8.50367 7.76339 7.86778 8.23223 7.39894C8.70107 6.9301 9.33696 6.66671 10 6.66671C10.663 6.66671 11.2989 6.9301 11.7678 7.39894C12.2366 7.86778 12.5 8.50367 12.5 9.16671C12.5 9.38772 12.4122 9.59969 12.2559 9.75597C12.0996 9.91225 11.8877 10 11.6667 10C11.4457 10 11.2337 9.91225 11.0774 9.75597C10.9211 9.59969 10.8333 9.38772 10.8333 9.16671C10.8333 8.9457 10.7455 8.73374 10.5893 8.57745C10.433 8.42117 10.221 8.33338 10 8.33338C9.77899 8.33338 9.56703 8.42117 9.41074 8.57745C9.25447 8.73374 9.16667 8.9457 9.16667 9.16671C9.16667 11.6225 9.16667 16.195 5.405 18.4525C5.27557 18.53 5.12752 18.5709 4.97667 18.5709ZM9.1125 19.755C11.0142 17.8384 12.125 15.1434 12.4133 11.7375C12.4231 11.6283 12.4111 11.5182 12.3782 11.4136C12.3453 11.3089 12.292 11.2118 12.2215 11.1278C12.151 11.0438 12.0645 10.9746 11.9672 10.9241C11.8698 10.8735 11.7635 10.8427 11.6542 10.8334C11.5448 10.8222 11.4343 10.8331 11.3293 10.8655C11.2242 10.8978 11.1268 10.951 11.0427 11.0219C10.9587 11.0927 10.8897 11.1797 10.84 11.2778C10.7903 11.3758 10.7608 11.4829 10.7533 11.5925C10.4942 14.64 9.57083 16.9259 7.93 18.5767C7.77419 18.7335 7.68705 18.9458 7.68775 19.1669C7.68845 19.3879 7.77694 19.5996 7.93375 19.7555C8.09056 19.9113 8.30284 19.9984 8.5239 19.9977C8.74496 19.997 8.95669 19.9085 9.1125 19.7517V19.755ZM13.4458 19.6C13.9513 18.7601 14.3723 17.8722 14.7025 16.9492C14.7715 16.7428 14.7571 16.5175 14.6622 16.3216C14.5673 16.1257 14.3995 15.9748 14.1948 15.9009C13.99 15.8271 13.7645 15.8364 13.5664 15.9267C13.3684 16.017 13.2135 16.1812 13.135 16.3842C12.8416 17.2026 12.4681 17.99 12.02 18.735C11.9632 18.8287 11.9254 18.9326 11.9088 19.0408C11.8921 19.149 11.8969 19.2595 11.923 19.3658C11.949 19.4722 11.9958 19.5724 12.0605 19.6607C12.1253 19.749 12.2068 19.8237 12.3004 19.8805C12.4895 19.9952 12.7164 20.0301 12.9312 19.9775C13.0376 19.9514 13.1378 19.9047 13.2261 19.8399C13.3144 19.7752 13.389 19.6937 13.4458 19.6ZM15.4167 14.3259C15.7254 12.6241 15.865 10.896 15.8333 9.16671C15.8325 7.98612 15.4736 6.83356 14.8038 5.86134C14.1341 4.88912 13.1851 4.143 12.0823 3.72158C10.9795 3.30016 9.77473 3.22327 8.6273 3.50109C7.47987 3.77891 6.44374 4.39834 5.65583 5.27754C5.5791 5.35838 5.51936 5.45379 5.48015 5.55812C5.44095 5.66245 5.42307 5.77359 5.42757 5.88495C5.43208 5.99632 5.45888 6.10565 5.50638 6.20647C5.55389 6.3073 5.62114 6.39757 5.70416 6.47194C5.78717 6.54631 5.88426 6.60328 5.98968 6.63946C6.0951 6.67565 6.20671 6.69032 6.3179 6.6826C6.42909 6.67489 6.5376 6.64495 6.63701 6.59455C6.73642 6.54416 6.82472 6.47433 6.89667 6.38921C7.4594 5.76111 8.19948 5.31855 9.01909 5.12002C9.8387 4.92148 10.6993 4.97633 11.487 5.2773C12.2748 5.57827 12.9527 6.1112 13.4312 6.80565C13.9096 7.50011 14.1661 8.3234 14.1667 9.16671C14.1974 10.789 14.0684 12.4105 13.7817 14.0075C13.7396 14.2243 13.7853 14.449 13.9087 14.6321C14.0322 14.8152 14.2232 14.9419 14.44 14.9842C14.493 14.9948 14.5468 15.0001 14.6008 15C14.7939 14.9995 14.9807 14.9321 15.1295 14.8091C15.2783 14.6861 15.3798 14.5153 15.4167 14.3259ZM5.83333 9.16671C5.83309 8.93412 5.85233 8.70192 5.89083 8.47254C5.91572 8.36212 5.91784 8.24778 5.89708 8.13651C5.87632 8.02523 5.8331 7.91935 5.77007 7.82533C5.70704 7.73131 5.62552 7.65111 5.53047 7.58964C5.43543 7.52816 5.32885 7.48669 5.21725 7.46776C5.10565 7.44883 4.99136 7.45283 4.88136 7.47953C4.77136 7.50622 4.66795 7.55505 4.57744 7.62302C4.48693 7.691 4.41121 7.77671 4.35492 7.87491C4.29862 7.97311 4.26292 8.08176 4.25 8.19421C4.19499 8.51546 4.16711 8.84078 4.16667 9.16671C4.16667 13.0375 3.045 15 0.833333 15C0.61232 15 0.400358 15.0878 0.244078 15.2441C0.0877974 15.4004 0 15.6124 0 15.8334C0 16.0544 0.0877974 16.2664 0.244078 16.4226C0.400358 16.5789 0.61232 16.6667 0.833333 16.6667C4.0575 16.6667 5.83333 14 5.83333 9.16671ZM17.25 19.5117C18.6214 16.2401 19.275 12.7124 19.1667 9.16671C19.1705 7.78248 18.8569 6.4158 18.25 5.17171C18.2021 5.07322 18.1353 4.98512 18.0534 4.91245C17.9715 4.83978 17.876 4.78395 17.7725 4.74816C17.669 4.71237 17.5595 4.69732 17.4502 4.70386C17.3409 4.71041 17.2339 4.73841 17.1354 4.78629C17.0369 4.83417 16.9488 4.90098 16.8762 4.9829C16.8035 5.06483 16.7477 5.16026 16.7119 5.26376C16.6761 5.36726 16.661 5.4768 16.6676 5.58611C16.6741 5.69543 16.7021 5.80238 16.75 5.90088C17.2459 6.91802 17.5024 8.03514 17.5 9.16671C17.6049 12.474 17.0029 15.7656 15.7342 18.8217C15.689 18.9215 15.6639 19.0292 15.6604 19.1387C15.6569 19.2482 15.6751 19.3573 15.7138 19.4598C15.7525 19.5622 15.811 19.6561 15.886 19.7359C15.961 19.8158 16.051 19.88 16.1508 19.925C16.2588 19.9747 16.3762 20.0003 16.495 20C16.6544 19.9994 16.8102 19.953 16.944 19.8664C17.0778 19.7799 17.184 19.6568 17.25 19.5117ZM2.5 11.6667V9.16671C2.50221 7.17826 3.29309 5.27189 4.69914 3.86584C6.10518 2.4598 8.01155 1.66892 10 1.66671C11.6237 1.6613 13.2043 2.18819 14.5 3.16671C14.6768 3.29932 14.8991 3.35626 15.1179 3.325C15.3366 3.29374 15.5341 3.17685 15.6667 3.00004C15.7993 2.82323 15.8562 2.60098 15.825 2.38219C15.7937 2.1634 15.6768 1.96598 15.5 1.83338C13.9161 0.637894 11.9844 -0.006029 10 4.25454e-05C7.56973 0.0029096 5.23982 0.969601 3.52135 2.68806C1.80289 4.40653 0.8362 6.73644 0.833333 9.16671V11.6667C0.833333 11.8877 0.921131 12.0997 1.07741 12.256C1.23369 12.4122 1.44565 12.5 1.66667 12.5C1.88768 12.5 2.09964 12.4122 2.25592 12.256C2.4122 12.0997 2.5 11.8877 2.5 11.6667Z" fill="#0C4D3E"/>
</g>
<defs>
<clipPath id="clip0_300_37">
<rect width="20" height="20" fill="white"/>
</clipPath>
</defs>
</svg>
