<svg width="24" height="25" viewBox="0 0 24 25" fill="none" xmlns="http://www.w3.org/2000/svg">
<path d="M22.899 17.7677C22.774 17.4677 22.649 17.1417 22.524 16.8667C22.324 16.4156 21.9229 15.5656 21.9229 15.5656C20.1958 11.8115 18.3344 8.01354 16.3927 4.25417C16.2219 3.92396 15.9177 3.32812 15.7167 2.92812C15.4667 2.47813 15.2167 2.00208 14.8156 1.55208C14.0156 0.551042 12.8646 0 11.6385 0C10.3875 0 9.26146 0.551042 8.43542 1.50104C8.05937 1.95208 7.78437 2.42708 7.53437 2.87812C7.33437 3.27812 6.85833 4.20417 6.85833 4.20417C4.93125 7.95833 3.05417 11.7615 1.32812 15.5156C1.32812 15.5156 0.928125 16.3917 0.727083 16.8417C0.602083 17.1167 0.477083 17.4177 0.352083 17.7427C0.0270833 18.6688 -0.0729167 19.5448 0.0520833 20.4458C0.327083 22.3229 1.57812 23.899 3.30521 24.6C3.95521 24.875 4.63125 25 5.33229 25C5.53229 25 5.78229 24.975 5.98333 24.95C6.80937 24.85 7.66042 24.575 8.48542 24.099C9.51146 23.5229 10.4875 22.6979 11.5885 21.4969C12.6896 22.6979 13.6906 23.524 14.6917 24.099C15.5177 24.575 16.3687 24.85 17.1938 24.95C17.3937 24.975 17.6437 25 17.8448 25C18.5458 25 19.2458 24.875 19.8719 24.599C21.624 23.8979 22.85 22.2969 23.125 20.4448C23.325 19.5698 23.225 18.6937 22.899 17.7677ZM11.6135 19.0687C10.2625 17.3667 9.38646 15.7656 9.08646 14.4135C8.96146 13.8375 8.93646 13.3375 9.01146 12.8875C9.06146 12.4875 9.21146 12.1365 9.41146 11.8365C9.88646 11.1604 10.6875 10.7354 11.6135 10.7354C12.5396 10.7354 13.3656 11.1354 13.8156 11.8365C14.0156 12.1365 14.1656 12.4875 14.2156 12.8875C14.2906 13.3375 14.2656 13.8635 14.1406 14.4135C13.8406 15.7406 12.9646 17.3427 11.6135 19.0687ZM21.5979 20.2448C21.4229 21.5458 20.5469 22.6719 19.3208 23.1729C18.7198 23.4229 18.0698 23.4979 17.4187 23.4229C16.7927 23.3479 16.1677 23.1479 15.5167 22.7719C14.6156 22.2719 13.7146 21.4958 12.6635 20.3448C14.3156 18.3177 15.3167 16.4656 15.6917 14.8146C15.8667 14.0385 15.8917 13.3375 15.8167 12.6875C15.7167 12.0615 15.4917 11.4865 15.1406 10.9854C14.3656 9.86042 13.0646 9.20937 11.6135 9.20937C10.1625 9.20937 8.86042 9.88542 8.08542 10.9865C7.73542 11.4865 7.50938 12.0625 7.40938 12.6885C7.30938 13.3396 7.33437 14.0646 7.53437 14.8156C7.90937 16.4667 8.93542 18.3438 10.5625 20.3708C9.53646 21.5219 8.61042 22.2979 7.70937 22.7979C7.05833 23.1729 6.43333 23.374 5.80729 23.449C5.13125 23.524 4.48125 23.424 3.90521 23.199C2.67917 22.699 1.80312 21.5719 1.62812 20.2708C1.55312 19.6448 1.60312 19.0198 1.85312 18.3188C1.92813 18.0688 2.05312 17.8187 2.17812 17.5177C2.35312 17.1177 2.77917 16.2167 2.77917 16.2167C4.50625 12.4885 6.35729 8.68437 8.28438 4.98021C8.28438 4.98021 8.75937 4.05417 8.96042 3.67917C9.16042 3.27813 9.38542 2.90312 9.66146 2.57812C10.1875 1.97812 10.8875 1.65208 11.6635 1.65208C12.4396 1.65208 13.1396 1.97708 13.6656 2.57812C13.9406 2.90312 14.1656 3.27917 14.3667 3.67917C14.5667 4.05417 14.875 4.65417 15.0427 4.98021C16.95 8.70625 18.7969 12.5125 20.5229 16.2417C20.5229 16.2417 20.8979 17.1177 21.099 17.5177C21.224 17.8177 21.349 18.0688 21.424 18.3188C21.6229 18.9688 21.6979 19.5948 21.5979 20.2448Z" fill="black"/>
</svg>
