<svg width="21" height="22" viewBox="0 0 21 22" fill="none" xmlns="http://www.w3.org/2000/svg">
<path d="M10.5 17.1875C14.1243 17.1875 17.0625 14.2493 17.0625 10.625C17.0625 7.00063 14.1243 4.0625 10.5 4.0625C6.87563 4.0625 3.9375 7.00063 3.9375 10.625C3.9375 14.2493 6.87563 17.1875 10.5 17.1875Z" stroke="#0C4D3E" stroke-width="1.5" stroke-linecap="round" stroke-linejoin="round"/>
<path d="M10.5 13.25C11.9498 13.25 13.125 12.0748 13.125 10.625C13.125 9.17521 11.9498 8 10.5 8C9.05021 8 7.875 9.17521 7.875 10.625C7.875 12.0748 9.05021 13.25 10.5 13.25Z" stroke="#0C4D3E" stroke-width="1.5" stroke-linecap="round" stroke-linejoin="round"/>
<path d="M10.5 3.625V1.875" stroke="#0C4D3E" stroke-width="1.5" stroke-linecap="round" stroke-linejoin="round"/>
<path d="M3.5 10.625H1.75" stroke="#0C4D3E" stroke-width="1.5" stroke-linecap="round" stroke-linejoin="round"/>
<path d="M10.5 17.625V19.375" stroke="#0C4D3E" stroke-width="1.5" stroke-linecap="round" stroke-linejoin="round"/>
<path d="M17.5 10.625H19.25" stroke="#0C4D3E" stroke-width="1.5" stroke-linecap="round" stroke-linejoin="round"/>
</svg>
