<?xml version="1.0" encoding="iso-8859-1"?>
<!-- Uploaded to: SVG Repo, www.svgrepo.com, Generator: SVG Repo Mixer Tools -->
<!DOCTYPE svg PUBLIC "-//W3C//DTD SVG 1.1//EN" "http://www.w3.org/Graphics/SVG/1.1/DTD/svg11.dtd">
<svg fill="#000000" version="1.1" id="Capa_1" xmlns="http://www.w3.org/2000/svg" xmlns:xlink="http://www.w3.org/1999/xlink" 
	 width="800px" height="800px" viewBox="0 0 219.312 219.312"
	 xml:space="preserve">
<g>
	<path d="M174.921,98.996h2.923V80.017h-2.043c2.505-2.346,4.089-5.654,4.089-9.346c0-7.087-5.766-12.85-12.854-12.85
		c-7.08,0-12.847,5.763-12.847,12.85c0,3.692,1.585,7,4.086,9.346h-2.043v18.264l-98.12-58.125v-17.96h-2.04
		c2.503-2.346,4.086-5.653,4.086-9.346C60.16,5.763,54.395,0,47.309,0c-7.085,0-12.85,5.763-12.85,12.85
		c0,3.692,1.584,7,4.086,9.346h-2.043v18.979h2.923v90.235h-2.923v30.081h19.397l100.334,56.896v0.924h21.611v-21.025h7.009v-9.055
		h-9.932V98.996z M157.695,70.671c0-5.156,4.191-9.346,9.342-9.346c5.157,0,9.35,4.19,9.35,9.346c0,5.154-4.192,9.346-9.35,9.346
		C161.886,80.017,157.695,75.825,157.695,70.671z M159.152,98.996v1.015l-1.714-1.015H159.152z M37.963,12.85
		c0-5.155,4.192-9.346,9.346-9.346c5.156,0,9.346,4.19,9.346,9.346c0,5.154-4.19,9.346-9.346,9.346
		C42.156,22.196,37.963,18.004,37.963,12.85z M181.348,192.736v2.047h-7.009v21.025h-15.553l-101.965-57.82H40.003v-23.072h2.922
		V37.671h-2.922V25.7h14.603v11.971h-7.562l115.609,68.488V95.492h-2.919V83.521h14.603v11.971h-2.923v97.244H181.348z"/>
	<path d="M51.689,120.313h9.924v2.628h-4.962v20.734h15.769V59.142l-20.731-12.28V120.313z M55.194,53.009l13.723,8.129v79.033
		h-8.761v-13.727h4.962v-9.637h-9.924V53.009z"/>
	<path d="M121.21,88.045L74.173,60.182v83.493h20.444V75.486h1.752v68.189h6.456v4.966H96.37v21.317h19.855V88.045h1.752v81.913
		h20.149V98.067L121.21,88.045L121.21,88.045z M91.113,140.171H77.677V66.328l13.436,7.961V140.171z M112.72,166.454H99.874v-14.308
		h6.456v-11.975h-6.456V79.476l12.847,7.614V166.454z M121.481,92.278l13.142,7.786v66.39h-13.142V92.278z"/>
	<path d="M139.878,169.958h8.467v2.189H141.6l0.355,20.588h20.701v-80.137l-22.778-13.495V169.958z M143.383,105.25l15.769,9.344
		v74.638h-13.753l-0.233-13.579h6.684v-9.199h-8.466V105.25z"/>
</g>
</svg>