<svg width="25" height="25" viewBox="0 0 25 25" fill="none" xmlns="http://www.w3.org/2000/svg">
<path fill-rule="evenodd" clip-rule="evenodd" d="M11.9244 1.65243C12.263 1.38911 12.737 1.38911 13.0755 1.65243L21.7682 8.41335C21.9965 8.59096 22.13 8.86406 22.13 9.15338V19.7776C22.13 20.5386 21.8278 21.2684 21.2898 21.8065C20.7517 22.3446 20.0219 22.6469 19.2609 22.6469H5.73906C4.97811 22.6469 4.24832 22.3446 3.71024 21.8065C3.17216 21.2684 2.86987 20.5386 2.86987 19.7776V9.15338C2.86987 8.86406 3.00344 8.59096 3.2318 8.41335L11.9244 1.65243ZM4.74487 9.61189V19.7776C4.74487 20.0414 4.84962 20.2943 5.03606 20.4806C5.22251 20.6671 5.47539 20.7719 5.73906 20.7719H19.2609C19.5245 20.7719 19.7774 20.6671 19.9639 20.4806C20.1503 20.2943 20.255 20.0414 20.255 19.7776V9.61189L12.5 3.58013L4.74487 9.61189Z" fill="#404553"/>
<path fill-rule="evenodd" clip-rule="evenodd" d="M8.66528 12.5339C8.66528 12.0161 9.08502 11.5963 9.60278 11.5963H15.3979C15.9156 11.5963 16.3354 12.0161 16.3354 12.5339V22.1839H14.4604V13.4714H10.5403V22.1839H8.66528V12.5339Z" fill="#404553"/>
</svg>
