<svg width="12" height="12" viewBox="0 0 12 12" fill="none" xmlns="http://www.w3.org/2000/svg">
<g clip-path="url(#clip0_272_1185)">
<path d="M10.8985 2.7695L7.3985 0.407503C6.549 -0.165497 5.451 -0.165497 4.6015 0.407503L1.1015 2.7695C0.4115 3.2355 0 4.01 0 4.8425V9.5C0 10.8785 1.1215 12 2.5 12H9.5C10.8785 12 12 10.8785 12 9.5V4.8425C12 4.0105 11.5885 3.2355 10.8985 2.7695ZM4 11C4 9.897 4.897 9 6 9C7.103 9 8 9.897 8 11H4ZM11 9.5C11 10.327 10.327 11 9.5 11H9C9 9.3455 7.6545 8 6 8C4.3455 8 3 9.3455 3 11H2.5C1.673 11 1 10.327 1 9.5V4.8425C1 4.343 1.247 3.878 1.661 3.599L5.161 1.237C5.416 1.065 5.708 0.979003 6 0.979003C6.292 0.979003 6.584 1.065 6.839 1.237L10.339 3.599C10.753 3.8785 11 4.343 11 4.8425V9.5ZM6 3.5C4.897 3.5 4 4.397 4 5.5C4 6.603 4.897 7.5 6 7.5C7.103 7.5 8 6.603 8 5.5C8 4.397 7.103 3.5 6 3.5ZM6 6.5C5.4485 6.5 5 6.0515 5 5.5C5 4.9485 5.4485 4.5 6 4.5C6.5515 4.5 7 4.9485 7 5.5C7 6.0515 6.5515 6.5 6 6.5Z" fill="#3AC387"/>
</g>
<defs>
<clipPath id="clip0_272_1185">
<rect width="12" height="12" fill="white"/>
</clipPath>
</defs>
</svg>
