<svg width="250" height="250" viewBox="0 0 250 250" fill="none" xmlns="http://www.w3.org/2000/svg">
<path d="M236.99 164.435H210.415V199.485H236.99V164.435Z" fill="#F5F5F5"/>
<path d="M236.99 164.435H224.53V199.485H236.99V164.435Z" fill="#EBEBEB"/>
<path d="M218.375 169.18H215.985V174.985H218.375V169.18Z" fill="#EBEBEB"/>
<path d="M218.375 191.9H215.985V197.705H218.375V191.9Z" fill="#EBEBEB"/>
<path d="M224.53 177.26C224.53 177.31 221.37 177.35 217.475 177.35C213.58 177.35 210.415 177.31 210.415 177.26C210.415 177.21 213.575 177.17 217.475 177.17C221.375 177.17 224.53 177.21 224.53 177.26Z" fill="#EBEBEB"/>
<path d="M218.375 180.625H215.985V186.43H218.375V180.625Z" fill="#EBEBEB"/>
<path d="M224.53 188.71C224.53 188.76 221.37 188.8 217.475 188.8C213.58 188.8 210.415 188.76 210.415 188.71C210.415 188.66 213.575 188.615 217.475 188.615C221.375 188.615 224.53 188.66 224.53 188.71Z" fill="#EBEBEB"/>
<path d="M229.565 169.18H227.175V174.985H229.565V169.18Z" fill="#3AC387" fill-opacity="0.5"/>
<path d="M234.75 169.18H232.36V174.985H234.75V169.18Z" fill="#3AC387" fill-opacity="0.5"/>
<path d="M229.565 180.195H227.175V186H229.565V180.195Z" fill="#3AC387" fill-opacity="0.5"/>
<path d="M234.75 180.195H232.36V186H234.75V180.195Z" fill="#3AC387" fill-opacity="0.5"/>
<path d="M229.565 191.21H227.175V197.015H229.565V191.21Z" fill="#3AC387" fill-opacity="0.5"/>
<path d="M234.75 191.21H232.36V197.015H234.75V191.21Z" fill="#3AC387" fill-opacity="0.5"/>
<path d="M238.985 163.21H208.415V164.475H238.985V163.21Z" fill="#3AC387" fill-opacity="0.5"/>
<path d="M237.175 164.595C237.175 164.645 231.235 164.685 223.91 164.685C216.585 164.685 210.645 164.645 210.645 164.595C210.645 164.545 216.585 164.505 223.91 164.505C231.235 164.505 237.175 164.545 237.175 164.595Z" fill="#F5F5F5"/>
<path d="M180.92 75.89H133.54V199.9H180.92V75.89Z" fill="#EBEBEB"/>
<path d="M180.915 75.89H157.225V199.9H180.915V75.89Z" fill="#3AC387" fill-opacity="0.5"/>
<path d="M155.68 61.15H138.95V75.89H155.68V61.15Z" fill="#EBEBEB"/>
<path d="M155.675 61.15H151.69V75.89H155.675V61.15Z" fill="#3AC387" fill-opacity="0.5"/>
<path d="M182.3 75.03H129.59V75.89H182.3V75.03Z" fill="#3AC387" fill-opacity="0.5"/>
<path d="M146.9 82.32H142.89V90.775H146.9V82.32Z" fill="white"/>
<path d="M157.225 94.095C157.225 94.185 151.925 94.255 145.385 94.255C138.845 94.255 133.54 94.185 133.54 94.095C133.54 94.005 138.84 93.93 145.385 93.93C151.93 93.93 157.225 94 157.225 94.095Z" fill="#3AC387" fill-opacity="0.5"/>
<path d="M170.795 82.32H166.785V90.775H170.795V82.32Z" fill="#F5F5F5"/>
<path d="M181.12 94.095C181.12 94.185 175.82 94.255 169.28 94.255C162.74 94.255 157.435 94.185 157.435 94.095C157.435 94.005 162.735 93.93 169.28 93.93C175.825 93.93 181.12 94 181.12 94.095Z" fill="#EBEBEB"/>
<path d="M170.795 99.105H166.785V107.56H170.795V99.105Z" fill="#F5F5F5"/>
<path d="M181.12 110.88C181.12 110.97 175.82 111.045 169.28 111.045C162.74 111.045 157.435 110.97 157.435 110.88C157.435 110.79 162.735 110.72 169.28 110.72C175.825 110.72 181.12 110.795 181.12 110.88Z" fill="#EBEBEB"/>
<path d="M170.795 116.4H166.785V124.855H170.795V116.4Z" fill="#F5F5F5"/>
<path d="M181.12 128.175C181.12 128.265 175.82 128.34 169.28 128.34C162.74 128.34 157.435 128.265 157.435 128.175C157.435 128.085 162.735 128.015 169.28 128.015C175.825 128.015 181.12 128.09 181.12 128.175Z" fill="#EBEBEB"/>
<path d="M170.795 133.7H166.785V142.155H170.795V133.7Z" fill="#F5F5F5"/>
<path d="M181.12 145.47C181.12 145.56 175.82 145.635 169.28 145.635C162.74 145.635 157.435 145.56 157.435 145.47C157.435 145.38 162.735 145.31 169.28 145.31C175.825 145.31 181.12 145.385 181.12 145.47Z" fill="#EBEBEB"/>
<path d="M170.795 150.5H166.785V158.955H170.795V150.5Z" fill="#F5F5F5"/>
<path d="M181.12 162.275C181.12 162.36 175.82 162.435 169.28 162.435C162.74 162.435 157.435 162.36 157.435 162.275C157.435 162.19 162.735 162.11 169.28 162.11C175.825 162.11 181.12 162.185 181.12 162.275Z" fill="#EBEBEB"/>
<path d="M170.795 167.365H166.785V175.82H170.795V167.365Z" fill="#F5F5F5"/>
<path d="M170.795 184.455H166.785V192.91H170.795V184.455Z" fill="#F5F5F5"/>
<path d="M181.12 179.14C181.12 179.23 175.82 179.305 169.28 179.305C162.74 179.305 157.435 179.23 157.435 179.14C157.435 179.05 162.735 178.98 169.28 178.98C175.825 178.98 181.12 179.05 181.12 179.14Z" fill="#EBEBEB"/>
<path d="M146.9 99.365H142.89V107.82H146.9V99.365Z" fill="white"/>
<path d="M157.225 111.14C157.225 111.225 151.925 111.3 145.385 111.3C138.845 111.3 133.54 111.225 133.54 111.14C133.54 111.055 138.84 110.975 145.385 110.975C151.93 110.975 157.225 111.05 157.225 111.14Z" fill="#3AC387" fill-opacity="0.5"/>
<path d="M146.9 116.41H142.89V124.865H146.9V116.41Z" fill="white"/>
<path d="M157.225 128.185C157.225 128.27 151.925 128.345 145.385 128.345C138.845 128.345 133.54 128.27 133.54 128.185C133.54 128.1 138.84 128.02 145.385 128.02C151.93 128.02 157.225 128.095 157.225 128.185Z" fill="#3AC387" fill-opacity="0.5"/>
<path d="M146.9 133.455H142.89V141.91H146.9V133.455Z" fill="white"/>
<path d="M157.225 145.23C157.225 145.315 151.925 145.39 145.385 145.39C138.845 145.39 133.54 145.315 133.54 145.23C133.54 145.145 138.84 145.065 145.385 145.065C151.93 145.065 157.225 145.14 157.225 145.23Z" fill="#3AC387" fill-opacity="0.5"/>
<path d="M146.9 150.5H142.89V158.955H146.9V150.5Z" fill="white"/>
<path d="M157.225 162.275C157.225 162.36 151.925 162.435 145.385 162.435C138.845 162.435 133.54 162.36 133.54 162.275C133.54 162.19 138.84 162.11 145.385 162.11C151.93 162.11 157.225 162.185 157.225 162.275Z" fill="#3AC387" fill-opacity="0.5"/>
<path d="M146.9 167.545H142.89V176H146.9V167.545Z" fill="white"/>
<path d="M157.225 179.32C157.225 179.405 151.925 179.48 145.385 179.48C138.845 179.48 133.54 179.405 133.54 179.32C133.54 179.235 138.84 179.155 145.385 179.155C151.93 179.155 157.225 179.23 157.225 179.32Z" fill="#3AC387" fill-opacity="0.5"/>
<path d="M146.9 184.59H142.89V193.045H146.9V184.59Z" fill="white"/>
<path d="M114.895 151.765H78.5649V199.685H114.895V151.765Z" fill="#EBEBEB"/>
<path d="M114.895 151.765H97.86V199.685H114.895V151.765Z" fill="#3AC387" fill-opacity="0.5"/>
<path d="M89.4449 158.25H86.1799V166.185H89.4449V158.25Z" fill="#F5F5F5"/>
<path d="M89.4449 189.315H86.1799V197.25H89.4449V189.315Z" fill="#F5F5F5"/>
<path d="M97.8599 169.305C97.8599 169.39 93.5399 169.465 88.2099 169.465C82.8799 169.465 78.5649 169.39 78.5649 169.305C78.5649 169.22 82.8849 169.14 88.2099 169.14C93.5349 169.14 97.8599 169.215 97.8599 169.305Z" fill="#F5F5F5"/>
<path d="M89.4449 173.9H86.1799V181.835H89.4449V173.9Z" fill="#F5F5F5"/>
<path d="M97.8599 184.95C97.8599 185.04 93.5399 185.115 88.2099 185.115C82.8799 185.115 78.5649 185.04 78.5649 184.95C78.5649 184.86 82.8849 184.79 88.2099 184.79C93.5349 184.79 97.8599 184.865 97.8599 184.95Z" fill="#F5F5F5"/>
<path d="M104.74 158.25H101.475V166.185H104.74V158.25Z" fill="#F5F5F5"/>
<path d="M111.83 158.25H108.565V166.185H111.83V158.25Z" fill="#F5F5F5"/>
<path d="M104.74 173.31H101.475V181.245H104.74V173.31Z" fill="#F5F5F5"/>
<path d="M111.83 173.31H108.565V181.245H111.83V173.31Z" fill="#F5F5F5"/>
<path d="M104.74 188.37H101.475V196.305H104.74V188.37Z" fill="#F5F5F5"/>
<path d="M111.83 188.37H108.565V196.305H111.83V188.37Z" fill="#F5F5F5"/>
<path d="M117.63 150.095H75.835V151.825H117.63V150.095Z" fill="#3AC387" fill-opacity="0.5"/>
<path d="M115.15 152C115.15 152.09 107.03 152.165 97.015 152.165C87 152.165 78.875 152.09 78.875 152C78.875 151.91 86.995 151.84 97.015 151.84C107.035 151.84 115.15 151.9 115.15 152Z" fill="#EBEBEB"/>
<path d="M192.315 92.345L224.5 92.5C224.5 92.5 221.45 85.5 214.935 85.5C209.97 85.5 209.75 88.59 206.765 89.475C203.78 90.36 197.5 84.95 192.315 92.345Z" fill="#EBEBEB"/>
<path d="M53.36 58.075L109.96 58.31C109.96 58.31 104.6 46.045 93.145 46.04C84.415 46.04 84.025 51.475 78.785 53.04C73.545 54.605 62.5 45.07 53.36 58.075Z" fill="#F5F5F5"/>
<path d="M166.88 39.73L209.525 39.905C209.525 39.905 205.5 30.665 196.855 30.66C190.275 30.66 189.985 34.755 186.035 35.925C182.085 37.095 173.75 29.93 166.88 39.73Z" fill="#FAFAFA"/>
<path d="M242.175 199.5C242.175 199.575 189.615 199.63 124.795 199.63C59.975 199.63 7.40503 199.575 7.40503 199.5C7.40503 199.425 59.95 199.37 124.795 199.37C189.64 199.37 242.175 199.43 242.175 199.5Z" fill="#3AC387"/>
<path d="M218.135 126.925H190.43V199.44H218.135V126.925Z" fill="#455A64"/>
<path d="M218.13 126.925H204.28V199.44H218.13V126.925Z" fill="#3AC387"/>
<path d="M203.38 118.305H193.595V126.925H203.38V118.305Z" fill="#455A64"/>
<path d="M203.375 118.305H201.045V126.925H203.375V118.305Z" fill="#3AC387"/>
<path d="M218.945 126.42H188.12V126.925H218.945V126.42Z" fill="#455A64"/>
<path d="M198.245 130.685H195.9V135.63H198.245V130.685Z" fill="#3AC387"/>
<path d="M204.28 137.57C204.28 137.62 201.18 137.665 197.355 137.665C193.53 137.665 190.43 137.62 190.43 137.57C190.43 137.52 193.53 137.475 197.355 137.475C201.18 137.475 204.28 137.5 204.28 137.57Z" fill="#3AC387"/>
<path d="M212.215 130.685H209.87V135.63H212.215V130.685Z" fill="#455A64"/>
<path d="M218.255 137.57C218.255 137.62 215.155 137.665 211.33 137.665C207.505 137.665 204.405 137.62 204.405 137.57C204.405 137.52 207.505 137.475 211.33 137.475C215.155 137.475 218.255 137.5 218.255 137.57Z" fill="#455A64"/>
<path d="M212.215 140.5H209.87V145.445H212.215V140.5Z" fill="#455A64"/>
<path d="M218.255 147.385C218.255 147.44 215.155 147.48 211.33 147.48C207.505 147.48 204.405 147.44 204.405 147.385C204.405 147.33 207.505 147.29 211.33 147.29C215.155 147.29 218.255 147.335 218.255 147.385Z" fill="#455A64"/>
<path d="M212.215 150.615H209.87V155.56H212.215V150.615Z" fill="#455A64"/>
<path d="M218.255 157.5C218.255 157.55 215.155 157.595 211.33 157.595C207.505 157.595 204.405 157.55 204.405 157.5C204.405 157.45 207.505 157.405 211.33 157.405C215.155 157.405 218.255 157.445 218.255 157.5Z" fill="#455A64"/>
<path d="M212.215 160.725H209.87V165.67H212.215V160.725Z" fill="#455A64"/>
<path d="M218.255 167.61C218.255 167.665 215.155 167.705 211.33 167.705C207.505 167.705 204.405 167.665 204.405 167.61C204.405 167.555 207.505 167.52 211.33 167.52C215.155 167.52 218.255 167.56 218.255 167.61Z" fill="#455A64"/>
<path d="M212.215 170.55H209.87V175.495H212.215V170.55Z" fill="#455A64"/>
<path d="M218.255 177.435C218.255 177.49 215.155 177.53 211.33 177.53C207.505 177.53 204.405 177.49 204.405 177.435C204.405 177.38 207.505 177.34 211.33 177.34C215.155 177.34 218.255 177.385 218.255 177.435Z" fill="#455A64"/>
<path d="M212.215 180.415H209.87V185.36H212.215V180.415Z" fill="#455A64"/>
<path d="M212.215 190.41H209.87V195.355H212.215V190.41Z" fill="#455A64"/>
<path d="M218.255 187.3C218.255 187.355 215.155 187.395 211.33 187.395C207.505 187.395 204.405 187.355 204.405 187.3C204.405 187.245 207.505 187.205 211.33 187.205C215.155 187.205 218.255 187.25 218.255 187.3Z" fill="#455A64"/>
<path d="M198.245 140.65H195.9V145.595H198.245V140.65Z" fill="#3AC387"/>
<path d="M204.28 147.535C204.28 147.585 201.18 147.63 197.355 147.63C193.53 147.63 190.43 147.585 190.43 147.535C190.43 147.485 193.53 147.44 197.355 147.44C201.18 147.44 204.28 147.5 204.28 147.535Z" fill="#3AC387"/>
<path d="M198.245 150.615H195.9V155.56H198.245V150.615Z" fill="#3AC387"/>
<path d="M204.28 157.5C204.28 157.555 201.18 157.595 197.355 157.595C193.53 157.595 190.43 157.555 190.43 157.5C190.43 157.445 193.53 157.41 197.355 157.41C201.18 157.41 204.28 157.45 204.28 157.5Z" fill="#3AC387"/>
<path d="M198.245 160.585H195.9V165.53H198.245V160.585Z" fill="#3AC387"/>
<path d="M204.28 167.47C204.28 167.52 201.18 167.565 197.355 167.565C193.53 167.565 190.43 167.52 190.43 167.47C190.43 167.42 193.53 167.375 197.355 167.375C201.18 167.375 204.28 167.415 204.28 167.47Z" fill="#3AC387"/>
<path d="M198.245 170.55H195.9V175.495H198.245V170.55Z" fill="#3AC387"/>
<path d="M204.28 177.435C204.28 177.49 201.18 177.53 197.355 177.53C193.53 177.53 190.43 177.49 190.43 177.435C190.43 177.38 193.53 177.34 197.355 177.34C201.18 177.34 204.28 177.385 204.28 177.435Z" fill="#3AC387"/>
<path d="M198.245 180.52H195.9V185.465H198.245V180.52Z" fill="#3AC387"/>
<path d="M204.28 187.405C204.28 187.455 201.18 187.5 197.355 187.5C193.53 187.5 190.43 187.455 190.43 187.405C190.43 187.355 193.53 187.31 197.355 187.31C201.18 187.31 204.28 187.35 204.28 187.405Z" fill="#3AC387"/>
<path d="M198.245 190.485H195.9V195.43H198.245V190.485Z" fill="#3AC387"/>
<path d="M148.76 101.01H111.695V199.47H148.76V101.01Z" fill="#455A64"/>
<path d="M148.765 101.01H134.54V199.47H148.765V101.01Z" fill="#3AC387"/>
<path d="M143.06 108.78H140.245V114.72H143.06V108.78Z" fill="#455A64"/>
<path d="M143.06 119.2H140.245V125.14H143.06V119.2Z" fill="#455A64"/>
<path d="M143.06 130.87H140.245V136.81H143.06V130.87Z" fill="#455A64"/>
<path d="M143.06 142.02H140.245V147.96H143.06V142.02Z" fill="#455A64"/>
<path d="M143.06 153.175H140.245V159.115H143.06V153.175Z" fill="#455A64"/>
<path d="M143.06 164.325H140.245V170.265H143.06V164.325Z" fill="#455A64"/>
<path d="M143.06 175.48H140.245V181.42H143.06V175.48Z" fill="#455A64"/>
<path d="M143.06 187.74H140.245V193.68H143.06V187.74Z" fill="#455A64"/>
<path d="M150.61 100.39H108.47V101.54H150.61V100.39Z" fill="#3AC387"/>
<path d="M141.655 93.46H126.65V100.965H141.655V93.46Z" fill="#3AC387"/>
<path d="M134.54 93.46H126.65V100.39H134.54V93.46Z" fill="#455A64"/>
<path d="M119.785 108.535H116.97V114.475H119.785V108.535Z" fill="#3AC387"/>
<path d="M127.285 108.535H124.47V114.475H127.285V108.535Z" fill="#3AC387"/>
<path d="M119.785 119.85H116.97V125.79H119.785V119.85Z" fill="#3AC387"/>
<path d="M127.285 119.85H124.47V125.79H127.285V119.85Z" fill="#3AC387"/>
<path d="M119.785 131.165H116.97V137.105H119.785V131.165Z" fill="#3AC387"/>
<path d="M127.285 131.165H124.47V137.105H127.285V131.165Z" fill="#3AC387"/>
<path d="M119.785 142.48H116.97V148.42H119.785V142.48Z" fill="#3AC387"/>
<path d="M127.285 142.48H124.47V148.42H127.285V142.48Z" fill="#3AC387"/>
<path d="M119.785 153.795H116.97V159.735H119.785V153.795Z" fill="#3AC387"/>
<path d="M127.285 153.795H124.47V159.735H127.285V153.795Z" fill="#3AC387"/>
<path d="M119.785 165.11H116.97V171.05H119.785V165.11Z" fill="#3AC387"/>
<path d="M127.285 165.11H124.47V171.05H127.285V165.11Z" fill="#3AC387"/>
<path d="M119.785 176.425H116.97V182.365H119.785V176.425Z" fill="#3AC387"/>
<path d="M127.285 176.425H124.47V182.365H127.285V176.425Z" fill="#3AC387"/>
<path d="M119.785 187.74H116.97V193.68H119.785V187.74Z" fill="#3AC387"/>
<path d="M127.285 187.74H124.47V193.68H127.285V187.74Z" fill="#3AC387"/>
<path d="M134.54 116.805C134.54 116.905 129.425 116.985 123.12 116.985C116.815 116.985 111.695 116.905 111.695 116.805C111.695 116.705 116.81 116.63 123.12 116.63C129.43 116.63 134.54 116.71 134.54 116.805Z" fill="#3AC387"/>
<path d="M134.54 128.16C134.54 128.26 129.425 128.34 123.12 128.34C116.815 128.34 111.695 128.26 111.695 128.16C111.695 128.06 116.81 127.985 123.12 127.985C129.43 127.985 134.54 128.065 134.54 128.16Z" fill="#3AC387"/>
<path d="M134.54 139.655C134.54 139.75 129.425 139.83 123.12 139.83C116.815 139.83 111.695 139.75 111.695 139.655C111.695 139.56 116.81 139.475 123.12 139.475C129.43 139.475 134.54 139.555 134.54 139.655Z" fill="#3AC387"/>
<path d="M134.54 151.065C134.54 151.16 129.425 151.24 123.12 151.24C116.815 151.24 111.695 151.16 111.695 151.065C111.695 150.97 116.81 150.885 123.12 150.885C129.43 150.885 134.54 150.965 134.54 151.065Z" fill="#3AC387"/>
<path d="M134.54 162.31C134.54 162.405 129.425 162.485 123.12 162.485C116.815 162.485 111.695 162.405 111.695 162.31C111.695 162.215 116.81 162.13 123.12 162.13C129.43 162.13 134.54 162.21 134.54 162.31Z" fill="#3AC387"/>
<path d="M134.54 173.25C134.54 173.345 129.425 173.425 123.12 173.425C116.815 173.425 111.695 173.345 111.695 173.25C111.695 173.155 116.81 173.07 123.12 173.07C129.43 173.07 134.54 173.15 134.54 173.25Z" fill="#3AC387"/>
<path d="M134.54 185.375C134.54 185.47 129.425 185.55 123.12 185.55C116.815 185.55 111.695 185.47 111.695 185.375C111.695 185.28 116.81 185.195 123.12 185.195C129.43 185.195 134.54 185.275 134.54 185.375Z" fill="#3AC387"/>
<path d="M148.6 116.805C148.6 116.905 145.555 116.985 141.8 116.985C138.045 116.985 135 116.905 135 116.805C135 116.705 138.04 116.63 141.8 116.63C145.56 116.63 148.6 116.71 148.6 116.805Z" fill="#455A64"/>
<path d="M148.6 128.16C148.6 128.26 145.555 128.34 141.8 128.34C138.045 128.34 135 128.26 135 128.16C135 128.06 138.04 127.985 141.8 127.985C145.56 127.985 148.6 128.065 148.6 128.16Z" fill="#455A64"/>
<path d="M148.6 139.5C148.6 139.6 145.555 139.68 141.8 139.68C138.045 139.68 135 139.615 135 139.5C135 139.385 138.04 139.325 141.8 139.325C145.56 139.325 148.6 139.42 148.6 139.5Z" fill="#455A64"/>
<path d="M148.45 151.065C148.45 151.16 145.405 151.24 141.65 151.24C137.895 151.24 134.85 151.16 134.85 151.065C134.85 150.97 137.895 150.885 141.65 150.885C145.405 150.885 148.45 150.965 148.45 151.065Z" fill="#455A64"/>
<path d="M148.45 162.31C148.45 162.405 145.405 162.485 141.65 162.485C137.895 162.485 134.85 162.405 134.85 162.31C134.85 162.215 137.895 162.13 141.65 162.13C145.405 162.13 148.45 162.21 148.45 162.31Z" fill="#455A64"/>
<path d="M148.45 173.555C148.45 173.65 145.405 173.73 141.65 173.73C137.895 173.73 134.85 173.65 134.85 173.555C134.85 173.46 137.895 173.375 141.65 173.375C145.405 173.375 148.45 173.455 148.45 173.555Z" fill="#455A64"/>
<path d="M148.45 185.375C148.45 185.47 145.405 185.55 141.65 185.55C137.895 185.55 134.85 185.47 134.85 185.375C134.85 185.28 137.895 185.195 141.65 185.195C145.405 185.195 148.45 185.275 148.45 185.375Z" fill="#455A64"/>
<path d="M155.6 165.205H140.655V199.5H155.6V165.205Z" fill="#0C4D3E"/>
<path opacity="0.2" d="M155.6 165.205H140.655V199.5H155.6V165.205Z" fill="black"/>
<path d="M137.16 165.065H174.035L180.925 155.285L188.145 165.345L196.635 165.21L187.485 152.885L146.37 153.06L137.16 165.065Z" fill="#0C4D3E"/>
<path opacity="0.2" d="M137.16 165.065H174.035L180.925 155.285L188.145 165.345L196.635 165.21L187.485 152.885L146.37 153.06L137.16 165.065Z" fill="white"/>
<path d="M155.6 165.21V199.5H192.425V165.21H188.2L180.925 155.285L174.01 165.055L155.6 165.21Z" fill="#0C4D3E"/>
<g opacity="0.2">
<path d="M160.805 199.5V184.635H169.415V199.5" fill="black"/>
</g>
<path opacity="0.7" d="M188.15 184.215H174.58V192.62H188.15V184.215Z" fill="white"/>
<path opacity="0.7" d="M188.15 167.395H174.58V175.8H188.15V167.395Z" fill="white"/>
<path opacity="0.7" d="M168.515 167.47H159.96V175.57H168.515V167.47Z" fill="white"/>
<path d="M178.56 184.215H178.435V192.7H178.56V184.215Z" fill="#0C4D3E"/>
<path d="M184.2 184.215H184.075V192.7H184.2V184.215Z" fill="#0C4D3E"/>
<path d="M184.135 188.65H178.495V188.773H184.135V188.65Z" fill="#0C4D3E"/>
<path d="M178.56 167.395H178.435V175.88H178.56V167.395Z" fill="#0C4D3E"/>
<path d="M184.2 167.395H184.075V175.88H184.2V167.395Z" fill="#0C4D3E"/>
<path d="M184.135 171.83H178.495V171.953H184.135V171.83Z" fill="#0C4D3E"/>
<path d="M164.3 167.47H164.175V175.57H164.3V167.47Z" fill="#0C4D3E"/>
<path d="M168.515 171.655H159.96V171.778H168.515V171.655Z" fill="#0C4D3E"/>
<path opacity="0.7" d="M182.72 161.83C182.72 162.189 182.614 162.54 182.414 162.838C182.215 163.137 181.931 163.369 181.6 163.507C181.268 163.644 180.903 163.68 180.551 163.61C180.199 163.54 179.876 163.367 179.622 163.113C179.368 162.86 179.195 162.536 179.125 162.184C179.055 161.832 179.091 161.467 179.228 161.135C179.366 160.804 179.598 160.52 179.897 160.321C180.195 160.121 180.546 160.015 180.905 160.015C181.386 160.016 181.847 160.208 182.187 160.548C182.527 160.888 182.719 161.349 182.72 161.83Z" fill="white"/>
<path d="M167.96 159.605L170.25 156.78V149.985H165.455V159.655L167.96 159.605Z" fill="#0C4D3E"/>
<path opacity="0.2" d="M167.96 159.605V149.985H170.25V156.78L167.96 159.605Z" fill="black"/>
<path d="M170.575 148.985H164.92V149.985H170.575V148.985Z" fill="#0C4D3E"/>
<path d="M156.025 180.21H127.79V199.505H156.025V180.21Z" fill="#0C4D3E"/>
<path opacity="0.2" d="M145.2 180.21H127.79V199.505H145.2V180.21Z" fill="black"/>
<path d="M141.535 199.47C141.516 199.388 141.508 199.304 141.51 199.22C141.51 199.025 141.51 198.785 141.51 198.495C141.51 197.825 141.51 196.915 141.47 195.78C141.47 193.43 141.44 190.185 141.42 186.43L141.56 186.57H131.225L131.36 186.43C131.36 190.185 131.325 193.43 131.31 195.78C131.31 196.915 131.28 197.825 131.27 198.495C131.27 198.785 131.27 199.025 131.245 199.22C131.254 199.303 131.254 199.387 131.245 199.47C131.223 199.389 131.214 199.304 131.22 199.22C131.22 199.025 131.22 198.785 131.22 198.495C131.22 197.825 131.22 196.915 131.18 195.78C131.18 193.435 131.15 190.185 131.13 186.43V186.29H141.72V186.43C141.695 190.185 141.68 193.43 141.665 195.78C141.665 196.915 141.635 197.825 141.625 198.495C141.625 198.785 141.625 199.025 141.625 199.22C141.603 199.306 141.573 199.39 141.535 199.47Z" fill="#3AC387"/>
<path opacity="0.2" d="M154.715 185.935H147.38V187.805H154.715V185.935Z" fill="black"/>
<path d="M137.16 165.065V166.06H174.01V165.055L137.16 165.065Z" fill="#0C4D3E"/>
<path d="M174.01 166.06L180.905 156.385L180.925 155.285L174.035 165.065L174.01 166.06Z" fill="#0C4D3E"/>
<path d="M196.455 165.205H188.2V165.845H196.455V165.205Z" fill="#0C4D3E"/>
<path d="M166.48 182.355H163.435V183.515H166.48V182.355Z" fill="#3AC387"/>
<path opacity="0.3" d="M137.16 165.065V166.06H174.01V165.055L137.16 165.065Z" fill="black"/>
<path opacity="0.3" d="M174.01 166.06L180.905 156.385L180.925 155.285L174.035 165.065L174.01 166.06Z" fill="black"/>
<path opacity="0.3" d="M196.455 165.205H188.2V165.845H196.455V165.205Z" fill="black"/>
<path d="M168.72 192.135C168.695 192.135 168.72 191.945 168.495 191.8C168.438 191.761 168.372 191.737 168.303 191.729C168.234 191.721 168.165 191.73 168.1 191.755C168.024 191.786 167.96 191.838 167.914 191.906C167.868 191.974 167.844 192.053 167.844 192.135C167.844 192.217 167.868 192.296 167.914 192.364C167.96 192.432 168.024 192.484 168.1 192.515C168.165 192.54 168.234 192.549 168.303 192.541C168.372 192.533 168.438 192.509 168.495 192.47C168.7 192.325 168.695 192.13 168.72 192.135C168.745 192.14 168.805 192.35 168.57 192.57C168.498 192.629 168.412 192.669 168.32 192.685C168.228 192.702 168.133 192.695 168.045 192.665C167.934 192.627 167.838 192.556 167.77 192.461C167.702 192.366 167.666 192.252 167.666 192.135C167.666 192.018 167.702 191.904 167.77 191.809C167.838 191.714 167.934 191.643 168.045 191.605C168.133 191.575 168.228 191.568 168.32 191.585C168.412 191.601 168.498 191.641 168.57 191.7C168.805 191.925 168.735 192.15 168.72 192.135Z" fill="#3AC387"/>
<path d="M98.625 142.67C98.625 142.67 90.87 172.17 80.445 177.71C73.575 181.36 67.51 177.005 63.445 170.105L48.745 146.445C48.3703 145.097 48.5237 143.656 49.174 142.417C49.8243 141.178 50.9225 140.233 52.245 139.775L64.5 135.5L76.71 157.265L92.335 138.265" fill="#EB996E"/>
<path d="M22.32 144.725C22.59 146.645 27.425 160.76 27.425 160.76C27.425 160.76 49.365 154.555 49.135 153.465C48.945 152.58 45.515 138.52 40.935 130.595C40.0764 129.067 38.8723 127.762 37.419 126.782C35.9656 125.803 34.3034 125.177 32.565 124.955C31.595 124.845 29.44 125.745 28.845 126.04C24.175 128.375 20.23 129.895 22.32 144.725Z" fill="#455A64"/>
<path d="M56.72 124C65.145 126.345 65.525 130.175 69.745 136.93L76.39 149.03L65.32 156.085L63.29 160.635L62.195 199.765L17.59 199.545L25.59 167.87L22.4 147.07C22.105 143.79 21.16 137.66 22.17 134.495C25.335 124.605 37.14 123.55 44.4 122.05C45.9 121.74 47.345 122.215 48.565 122.585" fill="#455A64"/>
<path d="M63.18 162.645C63.1454 162.313 63.1353 161.979 63.15 161.645C63.15 160.945 63.15 160.015 63.185 158.895V158.87C63.7428 157.879 64.229 156.85 64.64 155.79C65.1528 154.532 65.2816 153.151 65.01 151.82C64.65 150.32 63.82 149.06 63.265 147.82C62.7611 146.709 62.4241 145.53 62.265 144.32C62.1604 143.513 62.1386 142.697 62.2 141.885C62.2 141.595 62.255 141.385 62.28 141.225C62.285 141.147 62.3036 141.071 62.335 141C62.3526 141.296 62.3526 141.594 62.335 141.89C62.3145 142.693 62.3664 143.496 62.49 144.29C62.6719 145.467 63.0204 146.612 63.525 147.69C64.075 148.91 64.925 150.19 65.305 151.74C65.5912 153.125 65.4536 154.564 64.91 155.87C64.4893 156.937 63.9878 157.97 63.41 158.96V158.91C63.355 160.03 63.315 160.96 63.28 161.66C63.2761 161.991 63.2427 162.32 63.18 162.645Z" fill="#3AC387"/>
<path d="M57.07 122.625C57.1082 122.721 57.1334 122.822 57.145 122.925C57.1989 123.217 57.2323 123.513 57.245 123.81C57.285 124.91 57.1012 126.008 56.705 127.035C56.1176 128.57 55.1047 129.905 53.785 130.885C52.1313 132.063 50.1043 132.596 48.085 132.385C47.0472 132.279 46.0338 132.004 45.085 131.57C44.2079 131.158 43.4027 130.607 42.7 129.94C41.5247 128.802 40.6296 127.407 40.085 125.865C39.7162 124.833 39.5055 123.75 39.46 122.655C39.4411 122.359 39.4411 122.061 39.46 121.765C39.4567 121.662 39.4667 121.56 39.49 121.46C39.525 121.46 39.49 121.885 39.56 122.65C39.6489 123.726 39.8862 124.784 40.265 125.795C40.8212 127.294 41.7141 128.645 42.875 129.745C43.5585 130.389 44.342 130.917 45.195 131.31C46.1124 131.728 47.092 131.993 48.095 132.095C50.0378 132.306 51.9915 131.807 53.595 130.69C54.673 129.9 55.5511 128.868 56.1589 127.678C56.7667 126.488 57.0872 125.172 57.095 123.835C57.13 123.05 57.035 122.63 57.07 122.625Z" fill="#3AC387"/>
<path d="M74.3699 145.375C73.9544 145.686 73.5128 145.96 73.0499 146.195C72.2249 146.695 71.0749 147.335 69.8249 148.09C68.5749 148.845 67.4599 149.55 66.6499 150.06C66.2277 150.361 65.7792 150.624 65.3099 150.845C65.6882 150.488 66.1001 150.168 66.5399 149.89C67.3199 149.335 68.4249 148.6 69.6799 147.84C70.9349 147.08 72.0999 146.45 72.9549 146.015C73.4034 145.754 73.8775 145.539 74.3699 145.375Z" fill="#3AC387"/>
<path d="M23.6899 145.895C23.6899 145.895 23.7199 145.985 23.7749 146.16L23.9849 146.94L24.7699 149.94C25.4349 152.54 26.3849 156.25 27.5399 160.745L27.3949 160.665L48.0249 154.22L48.5249 154.035L48.4299 154.2C47.4373 149.58 46.0797 145.046 44.3699 140.64C42.7699 136.6 40.9349 133.095 38.8699 130.57C37.9495 129.421 36.8465 128.431 35.6049 127.64C34.6727 127.036 33.6101 126.662 32.5049 126.55C32.2933 126.515 32.0793 126.497 31.8649 126.495L31.2949 126.525C31.1199 126.525 30.9599 126.525 30.7949 126.56L30.4049 126.645L29.8649 126.755C29.8039 126.769 29.7421 126.779 29.6799 126.785C29.7358 126.758 29.7945 126.738 29.8549 126.725L30.3899 126.59L30.7849 126.49C30.9349 126.46 31.0999 126.46 31.2849 126.44L31.8599 126.4C32.0771 126.397 32.2943 126.409 32.5099 126.435C33.6363 126.532 34.7232 126.897 35.6799 127.5C36.9406 128.285 38.0624 129.273 38.9999 130.425C41.1349 132.96 42.9999 136.475 44.6149 140.525C46.343 144.941 47.7141 149.489 48.7149 154.125V154.25L48.5949 154.29L48.0949 154.475C40.3599 156.93 33.1949 159.095 27.4299 160.87L27.3149 160.905L27.2849 160.79C26.1699 156.29 25.2549 152.565 24.6099 149.96C24.2999 148.675 24.0599 147.665 23.8899 146.96L23.7099 146.175C23.6915 146.083 23.6848 145.989 23.6899 145.895Z" fill="#3AC387"/>
<path d="M47.815 151.39C47.815 151.47 43.075 152.845 37.18 154.47C31.285 156.095 26.5 157.345 26.5 157.27C26.5 157.195 31.235 155.815 37.13 154.19C43.025 152.565 47.79 151.315 47.815 151.39Z" fill="#3AC387"/>
<path d="M45.9999 87.385C44.6349 84.425 40.8799 83.03 37.7149 83.815C34.5499 84.6 32.0499 87.185 30.7149 90.15C29.3799 93.115 29.0249 96.45 28.9999 99.71C28.9999 101.435 29.0749 103.18 28.7249 104.87C28.3749 106.56 27.5449 108.23 26.0949 109.17C24.9549 109.91 23.5549 110.13 22.3299 110.72C21.1049 111.31 19.9799 112.565 20.2849 113.895C20.6449 115.48 22.6349 115.955 24.2499 116.12C24.277 117.098 24.5802 118.049 25.1244 118.862C25.6685 119.676 26.4316 120.318 27.3254 120.717C28.2193 121.115 29.2076 121.253 30.1762 121.113C31.1448 120.974 32.0544 120.564 32.7999 119.93C32.2999 121.93 34.0649 123.99 36.0949 124.23C38.1249 124.47 40.0949 123.2 41.2249 121.48C42.3549 119.76 42.6749 117.66 42.7599 115.615C42.8449 113.57 42.6999 111.5 42.8999 109.5" fill="black"/>
<path d="M69.035 91.11C69.035 91.11 70.535 81.06 56.705 80.875C41.235 80.67 38.445 93.875 41.095 100.83L48.785 93.21L69.035 91.11Z" fill="#0C4D3E"/>
<path d="M56.8999 124C57.0549 121.325 57.1699 119.145 57.1699 119.145C57.1699 119.145 65.0899 119.33 66.2549 112.465C67.4199 105.6 68.7549 89.61 68.7549 89.61C65.2954 87.3728 61.249 86.2145 57.1297 86.2821C53.0104 86.3498 49.0041 87.6404 45.6199 89.99L44.9699 90.44L39.9699 122.185C39.6133 124.411 40.1527 126.687 41.4702 128.516C42.7876 130.345 44.7759 131.578 46.9999 131.945C48.1816 132.14 49.391 132.084 50.5495 131.78C51.708 131.476 52.7894 130.932 53.7235 130.182C54.6575 129.433 55.4231 128.495 55.9704 127.43C56.5177 126.364 56.8344 125.196 56.8999 124Z" fill="#FFBE9D"/>
<path d="M65.93 101.795C65.9035 101.963 65.8283 102.12 65.7135 102.246C65.5988 102.372 65.4497 102.461 65.2846 102.503C65.1195 102.545 64.9457 102.538 64.7848 102.482C64.624 102.426 64.4831 102.324 64.3796 102.188C64.2761 102.053 64.2146 101.891 64.2027 101.721C64.1908 101.551 64.229 101.381 64.3127 101.233C64.3963 101.084 64.5216 100.964 64.6732 100.886C64.8247 100.808 64.9957 100.777 65.165 100.795C65.2815 100.809 65.3939 100.846 65.4958 100.905C65.5976 100.963 65.6868 101.041 65.7581 101.134C65.8293 101.227 65.8813 101.334 65.9108 101.447C65.9403 101.561 65.9469 101.679 65.93 101.795Z" fill="#3AC387"/>
<path d="M66.57 100.97C66.445 101.075 65.87 100.47 64.945 100.295C64.02 100.12 63.275 100.525 63.195 100.39C63.115 100.255 63.29 100.13 63.62 99.945C64.0559 99.7163 64.5554 99.6389 65.04 99.725C65.5271 99.8077 65.9734 100.048 66.31 100.41C66.565 100.695 66.63 100.925 66.57 100.97Z" fill="#3AC387"/>
<path d="M56.645 100.905C56.6414 101.025 56.613 101.143 56.5618 101.251C56.5105 101.359 56.4374 101.456 56.347 101.535C56.2567 101.613 56.151 101.673 56.0367 101.709C55.9223 101.745 55.8018 101.757 55.6826 101.744C55.5634 101.731 55.4482 101.694 55.3441 101.634C55.24 101.575 55.1493 101.495 55.0777 101.398C55.0061 101.302 54.9551 101.192 54.928 101.076C54.9008 100.959 54.8981 100.838 54.92 100.72C54.9236 100.6 54.952 100.482 55.0032 100.374C55.0545 100.266 55.1276 100.169 55.218 100.09C55.3083 100.012 55.414 99.9524 55.5283 99.9164C55.6427 99.8804 55.7632 99.8684 55.8824 99.8812C56.0016 99.894 56.1168 99.9313 56.2209 99.9907C56.325 100.05 56.4157 100.13 56.4873 100.227C56.5589 100.323 56.6099 100.433 56.637 100.549C56.6641 100.666 56.6669 100.787 56.645 100.905Z" fill="#3AC387"/>
<path d="M57.1049 100.125C56.9849 100.23 56.4049 99.6 55.4849 99.45C54.5649 99.3 53.8149 99.68 53.7299 99.54C53.6899 99.48 53.8299 99.28 54.1599 99.1C54.5957 98.8709 55.0953 98.7935 55.5799 98.88C56.0672 98.962 56.5137 99.2028 56.8499 99.565C57.0999 99.845 57.1649 100.08 57.1049 100.125Z" fill="#3AC387"/>
<path d="M58.2999 107.275C58.8142 107.243 59.3304 107.28 59.8349 107.385C60.0749 107.42 60.3049 107.43 60.3849 107.27C60.456 107.017 60.456 106.748 60.3849 106.495C60.3099 105.835 60.2349 105.145 60.1549 104.42C59.8599 101.47 59.7099 99.075 59.8199 99.06C59.9299 99.045 60.2599 101.425 60.5599 104.375C60.6249 105.1 60.6899 105.79 60.7499 106.45C60.822 106.787 60.7816 107.138 60.6349 107.45C60.5827 107.526 60.5135 107.589 60.4329 107.634C60.3522 107.68 60.2622 107.705 60.1699 107.71C60.0336 107.712 59.8974 107.697 59.7649 107.665C59.2611 107.602 58.7682 107.471 58.2999 107.275Z" fill="#3AC387"/>
<path d="M57.195 119.145C53.9975 118.653 51.0126 117.241 48.605 115.08C48.605 115.08 50.285 120.54 57.07 120.99L57.195 119.145Z" fill="#EB996E"/>
<path d="M57.395 110C57.3751 109.701 57.2822 109.412 57.1244 109.157C56.9666 108.903 56.7488 108.691 56.49 108.54C56.311 108.433 56.1112 108.367 55.9042 108.344C55.6971 108.322 55.4876 108.344 55.29 108.41C55.0949 108.483 54.926 108.612 54.8048 108.781C54.6837 108.95 54.6158 109.152 54.61 109.36C54.6389 109.591 54.7341 109.808 54.8841 109.985C55.0341 110.163 55.2324 110.293 55.455 110.36C55.9075 110.484 56.3812 110.512 56.845 110.44C56.9743 110.436 57.1017 110.407 57.22 110.355C57.2778 110.327 57.3263 110.282 57.3599 110.228C57.3935 110.173 57.4109 110.109 57.41 110.045" fill="#EB996E"/>
<path d="M55.375 107.5C55.31 107.5 55.16 107.73 55.135 108.185C55.117 108.789 55.3183 109.379 55.7016 109.846C56.0849 110.313 56.6243 110.625 57.22 110.725C57.675 110.79 57.945 110.69 57.94 110.62C57.94 110.465 56.87 110.41 56.125 109.5C55.38 108.59 55.525 107.525 55.375 107.5Z" fill="#3AC387"/>
<path d="M44 99.395C43.895 99.32 40.06 97.665 38.965 102.18C37.87 106.695 43.11 106.235 43.15 106.105C43.19 105.975 44 99.395 44 99.395Z" fill="#FFBE9D"/>
<path d="M42.075 104.21C42.075 104.21 41.98 104.245 41.82 104.275C41.6024 104.312 41.3786 104.27 41.19 104.155C40.72 103.87 40.475 103.025 40.65 102.205C40.7292 101.812 40.9005 101.444 41.15 101.13C41.2335 100.995 41.3478 100.883 41.4834 100.801C41.619 100.719 41.7721 100.671 41.93 100.66C42.0294 100.655 42.1276 100.684 42.2084 100.742C42.2892 100.8 42.348 100.884 42.375 100.98C42.41 101.12 42.375 101.205 42.375 101.22C42.375 101.235 42.495 101.165 42.505 100.97C42.5024 100.852 42.4582 100.739 42.38 100.65C42.2676 100.526 42.112 100.449 41.945 100.435C41.7425 100.427 41.541 100.468 41.358 100.555C41.1751 100.642 41.0161 100.772 40.895 100.935C40.5981 101.277 40.3918 101.688 40.295 102.13C40.105 103.05 40.395 104.005 41.05 104.34C41.173 104.402 41.3076 104.438 41.4453 104.446C41.583 104.454 41.7208 104.433 41.85 104.385C42.04 104.315 42.09 104.22 42.075 104.21Z" fill="#EB996E"/>
<path d="M67.185 86.445C67.9799 87.0202 68.577 87.8276 68.8939 88.7562C69.2109 89.6848 69.2323 90.6888 68.955 91.63C68.275 93.79 66.26 96.13 60.66 96.055L61.935 94.64C60.675 95.6012 59.2025 96.2456 57.6414 96.5188C56.0804 96.792 54.4766 96.6861 52.965 96.21L54.535 93.17C54.535 93.17 47.455 100.675 43.5 101L44 93C44.955 85.45 48.19 83.185 53.085 82.78C54.9031 82.6147 56.7337 82.6466 58.545 82.875C61.6803 83.316 64.6528 84.5442 67.185 86.445Z" fill="black"/>
<path d="M39.4999 79.905C39.8726 79.9956 40.2264 80.1513 40.5449 80.365C42.1529 81.3043 43.43 82.7194 44.1999 84.415C44.3789 84.7535 44.4974 85.1207 44.5499 85.5C44.4649 85.54 43.9049 83.865 42.4699 82.3C41.0349 80.735 39.4499 80 39.4999 79.905Z" fill="#0C4D3E"/>
<path d="M25.2449 105.5C25.2449 105.5 25.1499 105.4 24.9349 105.265C24.6159 105.072 24.2472 104.979 23.8749 104.995C23.5867 105.002 23.3034 105.072 23.0445 105.198C22.7856 105.325 22.5572 105.507 22.3749 105.73C22.1545 106.043 22.0165 106.406 21.9737 106.786C21.9309 107.166 21.9846 107.551 22.1299 107.905C22.3073 108.33 22.5933 108.701 22.9592 108.981C23.3251 109.261 23.7582 109.44 24.2149 109.5C24.7439 109.58 25.284 109.544 25.7972 109.393C26.3104 109.241 26.7841 108.979 27.1849 108.625C28.1046 107.854 28.7399 106.798 28.9899 105.625C29.1225 105.012 29.1225 104.378 28.9899 103.765C28.839 103.129 28.6141 102.513 28.3199 101.93C28.0399 101.325 27.7399 100.73 27.5049 100.105C27.275 99.4902 27.1254 98.8482 27.0599 98.195C26.9535 96.9588 27.0981 95.7139 27.4849 94.535C28.1551 92.5518 29.3202 90.7723 30.8699 89.365C31.8887 88.4118 32.9934 87.5548 34.1699 86.805C34.5849 86.54 34.9149 86.34 35.1399 86.21C35.2513 86.1388 35.3684 86.077 35.4899 86.025C35.3919 86.1144 35.2846 86.1932 35.1699 86.26L34.2349 86.9C33.086 87.675 32.0039 88.5447 30.9999 89.5C29.5035 90.9051 28.3783 92.659 27.7249 94.605C27.3594 95.7505 27.2251 96.9572 27.3299 98.155C27.4001 98.7832 27.5444 99.4008 27.7599 99.995C27.9899 100.6 28.2899 101.185 28.5749 101.8C28.8768 102.403 29.1067 103.039 29.2599 103.695C29.4 104.346 29.4 105.019 29.2599 105.67C28.9898 106.902 28.3136 108.008 27.3399 108.81C26.9097 109.185 26.4021 109.46 25.8534 109.617C25.3046 109.773 24.7281 109.807 24.1649 109.715C23.6676 109.645 23.1981 109.443 22.8044 109.131C22.4108 108.819 22.1072 108.408 21.9249 107.94C21.7742 107.555 21.7232 107.138 21.7765 106.728C21.8298 106.318 21.9858 105.929 22.2299 105.595C22.4299 105.357 22.6805 105.167 22.9633 105.038C23.2461 104.909 23.5542 104.845 23.8649 104.85C24.2539 104.843 24.6353 104.958 24.9549 105.18C25.0721 105.266 25.1707 105.375 25.2449 105.5Z" fill="black"/>
<path d="M43.3599 90.41C43.2022 90.1394 43.1066 89.8371 43.0799 89.525C42.9624 88.7816 42.9912 88.0223 43.1649 87.29C43.334 86.556 43.6467 85.8627 44.0849 85.25C44.4249 84.785 44.7049 84.56 44.7249 84.585C44.7449 84.61 43.8199 85.69 43.4449 87.355C43.0699 89.02 43.4499 90.395 43.3599 90.41Z" fill="#3AC387"/>
<path d="M39.23 105C38.9646 105.231 38.7588 105.523 38.63 105.85C38.5752 106.022 38.555 106.204 38.5704 106.384C38.5859 106.564 38.6367 106.739 38.72 106.9C38.837 107.088 38.9958 107.246 39.184 107.362C39.3722 107.478 39.5848 107.55 39.805 107.57C40.0239 107.605 40.2477 107.59 40.4604 107.528C40.6731 107.466 40.8693 107.357 41.035 107.21C41.2939 106.952 41.4396 106.601 41.44 106.235C41.4243 105.879 41.3138 105.534 41.12 105.235C41.12 105.235 41.23 105.275 41.355 105.43C41.5293 105.654 41.6306 105.926 41.645 106.21C41.6593 106.424 41.6294 106.639 41.5572 106.841C41.4849 107.043 41.3719 107.228 41.225 107.385C41.0324 107.567 40.8007 107.703 40.5477 107.781C40.2946 107.86 40.027 107.88 39.765 107.84C39.5067 107.816 39.2577 107.731 39.038 107.593C38.8183 107.455 38.6341 107.267 38.5 107.045C38.4058 106.851 38.3531 106.64 38.3454 106.425C38.3376 106.209 38.375 105.995 38.455 105.795C38.5535 105.531 38.7273 105.301 38.955 105.135C39.115 105.025 39.225 105 39.23 105Z" fill="#455A64"/>
<path d="M70.185 93.41C70.13 93.41 70.35 92.64 70.355 91.41C70.3713 89.7784 69.9405 88.1735 69.1093 86.7694C68.2781 85.3653 67.0783 84.2156 65.64 83.445C64.545 82.85 63.77 82.68 63.785 82.625C63.9709 82.6282 64.1551 82.662 64.33 82.725C64.8149 82.8586 65.2855 83.0395 65.735 83.265C67.2414 84.0112 68.499 85.1783 69.3554 86.6249C70.2118 88.0715 70.6302 89.7354 70.56 91.415C70.5409 91.9202 70.4739 92.4224 70.36 92.915C70.3249 93.0873 70.266 93.2539 70.185 93.41Z" fill="black"/>
<path d="M57.55 98.365C57.52 98.4 57.33 98.22 56.985 98.01C56.5416 97.7368 56.0428 97.566 55.525 97.51C55.0051 97.4578 54.4802 97.5244 53.99 97.705C53.605 97.84 53.385 97.975 53.36 97.935C53.335 97.895 53.525 97.71 53.91 97.515C54.4193 97.2628 54.9898 97.1605 55.555 97.22C56.1193 97.2817 56.6557 97.498 57.105 97.845C57.44 98.115 57.58 98.345 57.55 98.365Z" fill="#0C4D3E"/>
<path d="M66.3699 99.21C65.7772 99.3061 65.1727 99.3061 64.5799 99.21C63.9808 99.2123 63.385 99.1195 62.8149 98.935C63.4062 98.8401 64.0087 98.8401 64.5999 98.935C65.2008 98.9316 65.7984 99.0245 66.3699 99.21Z" fill="#0C4D3E"/>
<path d="M98.6249 142.67C98.6249 142.67 101.46 135.935 97.6249 136.67C91.7499 137.79 92.6249 143.505 92.6249 143.505L98.6249 142.67Z" fill="#EB996E"/>
<path d="M104.085 112.46C103.591 112.285 103.074 112.185 102.55 112.165C105.74 114.535 106.605 120.635 104.37 126.795C102.19 132.795 97.78 136.89 93.87 136.86L93.56 136.78C90.455 134.355 89.635 128.33 91.84 122.24C94.045 116.15 98.59 111.99 102.545 112.165C102.143 111.863 101.701 111.621 101.23 111.445C97 109.905 91.5 114.285 89 121.225C86.555 127.965 87.825 134.625 91.795 136.41H91.715L83.895 156.41C83.7279 156.835 83.7365 157.309 83.9189 157.728C84.1013 158.146 84.4425 158.475 84.8675 158.642C85.2925 158.81 85.7665 158.801 86.1852 158.619C86.6039 158.436 86.9329 158.095 87.1 157.67L95 137.59C99.245 139.125 104.725 134.75 107.24 127.81C109.755 120.87 108.33 114 104.085 112.46Z" fill="#3AC387"/>
<path d="M100.555 130.55C100.611 130.338 100.691 130.133 100.795 129.94L101.525 128.325C102.355 126.563 103.002 124.72 103.455 122.825C103.889 120.936 103.889 118.974 103.455 117.085C103.235 116.312 102.958 115.556 102.625 114.825C102.771 114.99 102.892 115.175 102.985 115.375C103.267 115.9 103.49 116.455 103.65 117.03C104.154 118.946 104.183 120.955 103.735 122.885C103.279 124.792 102.6 126.638 101.71 128.385C101.375 129.055 101.095 129.595 100.895 129.96C100.808 130.171 100.694 130.369 100.555 130.55Z" fill="#3AC387"/>
<path d="M99.735 132.15C99.79 132.21 99.55 132.545 99.19 132.9C98.83 133.255 98.5 133.495 98.445 133.44C98.39 133.385 98.63 133.05 98.99 132.695C99.35 132.34 99.68 132.095 99.735 132.15Z" fill="#3AC387"/>
<path d="M91.2049 139.66C90.5999 138.515 89.8949 136.935 88.8299 136.195C87.7649 135.455 86.2849 134.6 85.0349 135.695C86.6071 137.939 88.0639 140.262 89.3999 142.655L91.2049 139.66Z" fill="#EB996E"/>
<path d="M99.5349 137.635C99.5349 137.635 99.2999 136.305 97.3499 136.89C95.3999 137.475 89.2899 138.75 90.4699 140.05C91.6499 141.35 93.7349 140.765 93.7349 140.765C93.7349 140.765 90.3399 141.5 90.6649 142.21C90.9899 142.92 91.5549 144.15 92.9999 143.38C94.4449 142.61 98.4549 141.305 98.4549 141.305L99.5349 137.635Z" fill="#EB996E"/>
<path d="M99.315 140.605C99.315 140.605 99.315 140.475 99.315 140.27C99.3102 140.132 99.2637 139.999 99.1815 139.888C99.0994 139.778 98.9855 139.695 98.855 139.65C98.4207 139.601 97.9811 139.666 97.58 139.84L95.955 140.275C94.8 140.58 93.75 140.835 92.985 141.005C92.5778 141.126 92.1587 141.201 91.735 141.23C92.1177 141.045 92.5203 140.904 92.935 140.81C93.685 140.585 94.725 140.31 95.88 140L97.51 139.585C97.9592 139.406 98.4507 139.361 98.925 139.455C99.0844 139.521 99.2187 139.636 99.3086 139.784C99.3985 139.931 99.4392 140.103 99.425 140.275C99.41 140.5 99.325 140.61 99.315 140.605Z" fill="#3AC387"/>
<path d="M47.1749 154.76L53.0749 165.7L82.3649 150.95C82.3649 150.95 86.6749 142.67 87.3899 142.775C88.1049 142.88 91.2749 144.245 91.2749 144.245C91.2749 144.245 95.7749 141.815 96.7449 142.475C97.7149 143.135 99.0249 151.135 98.1749 153.61C97.3249 156.085 88.4299 161.07 88.4299 161.07C88.4299 161.07 64.4299 176.83 53.9949 182.365C47.1249 186.015 41.0649 181.66 36.9949 174.76L30.0549 160.075" fill="#FFBE9D"/>
</svg>
