<svg xmlns="http://www.w3.org/2000/svg" data-name="Layer 1" viewBox="0 0 100 125" x="0px" y="0px"><title>Artboard 19</title><path d="M45,19.41V45H9V91H91V19.41L68,6.86ZM45,52H43V47h2ZM15,52V47h2v5Zm4-5h2v5H19Zm4,0h2v5H23Zm4,0h2v5H27Zm4,0h2v5H31Zm4,0h2v5H35Zm4,0h2v5H39ZM13,47v5H11V47ZM45,89H11V54H45V89Zm2,0V66h3V89Zm5,0V66H62V77H57v4H55v4H53v4Zm10-8H59V79h3Zm0,4H57V83h5Zm-7,4V87h6v2Zm34,0H64V66H89Zm0-25H47V20.59L68,9.14,89,20.59Z"/><path d="M50,22V61H86V22L68,11.85Zm22,2v1H64V24ZM62,22v5H74V22H69V14.71l7,4V59H60V18.67l7-4V22ZM52,23.18l6-3.38V59H52ZM84,59H78V19.8l6,3.38Z"/><path d="M18,61.52V83H38V61.52L28,55.85ZM20,81V80H36v1Zm16-3H20V62.69l8-4.54,8,4.54Z"/><path d="M86,76V70H76v6Zm-8-4h6v2H78Z"/></svg>