<svg width="10" height="10" viewBox="0 0 10 10" fill="none" xmlns="http://www.w3.org/2000/svg">
<g clip-path="url(#clip0_475_152)">
<path d="M9.80587 9.23126C9.74212 9.19085 8.58587 8.47126 6.87462 8.1146C7.04878 7.36418 7.3817 5.54626 6.99128 3.88751C6.92628 3.61209 6.85503 3.34126 6.77753 3.07668C7.46128 3.47459 8.17003 3.65418 8.66878 3.73418C8.71128 3.74126 8.75336 3.74418 8.79545 3.74418C9.04461 3.74418 9.28128 3.62668 9.43336 3.42168C9.61378 3.17876 9.64336 2.85918 9.51128 2.5871C9.25045 2.05001 8.77628 1.29959 7.9992 0.772928C6.7517 -0.071655 5.20753 -0.0133217 4.99128 1.1669e-05C4.7767 -0.004155 3.25628 -0.00123835 2.01628 0.838345C1.25753 1.3521 0.783365 2.06001 0.519198 2.56334C0.376281 2.83543 0.399615 3.1596 0.580031 3.40918C0.758365 3.65626 1.05545 3.77918 1.35336 3.73043C1.72045 3.6696 2.20336 3.55501 2.70545 3.3371C2.71545 3.76668 2.78878 4.16793 2.87045 4.44085C2.94295 4.68251 3.11961 4.87126 3.35586 4.95918C3.44711 4.99335 3.54128 5.01001 3.63503 5.01001C3.7842 5.01001 3.93212 4.96751 4.06295 4.88418C4.35295 4.69918 4.69753 4.39251 4.99836 4.0171C4.9992 4.06793 4.99961 4.11793 4.99961 4.1671C4.99961 5.76876 4.23378 7.43043 3.95628 7.97918C1.79711 8.23335 0.267115 9.18501 0.193365 9.23168C-0.00121873 9.3546 -0.0591354 9.61209 0.0637813 9.80626C0.142948 9.93168 0.278365 10.0004 0.416281 10.0004C0.492531 10.0004 0.569198 9.9796 0.638365 9.93585C0.655031 9.92543 2.91586 8.75043 4.9992 8.75043C7.4442 8.75043 9.3417 9.92459 9.36045 9.93626C9.55462 10.0583 9.81211 10 9.93503 9.80585C10.0575 9.61126 9.99961 9.3546 9.80503 9.23168L9.80587 9.23126ZM7.53253 1.46293C8.13336 1.87001 8.51628 2.45959 8.73711 2.90043C8.26087 2.81751 7.59086 2.63335 6.98545 2.22335C6.38878 1.81918 5.96586 1.26918 5.70545 0.853762C6.21586 0.905845 6.9292 1.05418 7.53211 1.46251L7.53253 1.46293ZM1.28628 2.89626C1.51086 2.4821 1.89461 1.92709 2.48378 1.52834C3.07628 1.12709 3.76878 0.956678 4.27503 0.885012C4.01336 1.29626 3.5967 1.82918 3.01461 2.22335C2.41753 2.62751 1.75711 2.8121 1.2867 2.89626H1.28628ZM3.65586 4.15459C3.56461 3.82251 3.50295 3.3046 3.5617 2.85793C4.15211 2.43876 4.58753 1.91626 4.88503 1.47668C4.92836 1.73793 4.9467 2.03334 4.90211 2.33001C4.90045 2.33876 4.8992 2.34793 4.89795 2.3571C4.87795 2.48043 4.84711 2.60376 4.80211 2.7246C4.56461 3.36668 3.99045 3.9271 3.65545 4.15501L3.65586 4.15459ZM4.91128 7.91751C5.2817 7.10043 5.83336 5.63793 5.83336 4.16668C5.83336 3.65709 5.7942 3.06334 5.75045 2.60501C5.91545 3.07293 6.05961 3.56626 6.18003 4.07793C6.53753 5.5971 6.20003 7.33834 6.0492 7.97959C5.71336 7.94001 5.36295 7.91668 4.99961 7.91668C4.97003 7.91668 4.94086 7.91668 4.91128 7.91751Z" fill="black"/>
</g>
<defs>
<clipPath id="clip0_475_152">
<rect width="10" height="10" fill="white"/>
</clipPath>
</defs>
</svg>
