<svg width="20" height="20" viewBox="0 0 20 20" fill="none" xmlns="http://www.w3.org/2000/svg">
<path d="M6.16667 4.62737C6.08978 4.49821 5.98065 4.39124 5.84997 4.31696C5.7193 4.24267 5.57156 4.20361 5.42125 4.20361C5.27094 4.20361 5.1232 4.24267 4.99253 4.31696C4.86185 4.39124 4.75272 4.49821 4.67583 4.62737L0.0924986 13.794C0.0425701 13.892 0.0125334 13.9989 0.00412027 14.1086C-0.00429285 14.2183 0.00908405 14.3285 0.0434797 14.433C0.0778754 14.5374 0.132609 14.634 0.204526 14.7173C0.276443 14.8005 0.364119 14.8686 0.462501 14.9178C0.560882 14.9669 0.668022 14.9962 0.777743 15.0037C0.887465 15.0113 0.997597 14.997 1.10179 14.9618C1.20598 14.9266 1.30218 14.8711 1.38482 14.7986C1.46747 14.726 1.53494 14.6378 1.58333 14.539L3.01583 11.6665H7.81917L9.25583 14.539C9.30423 14.6378 9.37169 14.726 9.45434 14.7986C9.53699 14.8711 9.63318 14.9266 9.73737 14.9618C9.84157 14.997 9.9517 15.0113 10.0614 15.0037C10.1711 14.9962 10.2783 14.9669 10.3767 14.9178C10.475 14.8686 10.5627 14.8005 10.6346 14.7173C10.7066 14.634 10.7613 14.5374 10.7957 14.433C10.8301 14.3285 10.8435 14.2183 10.835 14.1086C10.8266 13.9989 10.7966 13.892 10.7467 13.794L6.16667 4.62737ZM3.84917 9.99987L5.41667 6.8632L6.98583 9.99987H3.84917Z" fill="#0C4D3E"/>
<path d="M19.1667 6.6665C18.9457 6.6665 18.7337 6.7543 18.5774 6.91058C18.4211 7.06686 18.3333 7.27882 18.3333 7.49984V7.5215C17.6163 6.97 16.7379 6.66957 15.8333 6.6665C14.7283 6.6665 13.6685 7.10549 12.8871 7.88689C12.1057 8.66829 11.6667 9.7281 11.6667 10.8332C11.6667 11.9382 12.1057 12.998 12.8871 13.7794C13.6685 14.5609 14.7283 14.9998 15.8333 14.9998C16.7379 14.9968 17.6163 14.6963 18.3333 14.1448V14.1665C18.3333 14.3875 18.4211 14.5995 18.5774 14.7558C18.7337 14.912 18.9457 14.9998 19.1667 14.9998C19.3877 14.9998 19.5996 14.912 19.7559 14.7558C19.9122 14.5995 20 14.3875 20 14.1665V7.49984C20 7.27882 19.9122 7.06686 19.7559 6.91058C19.5996 6.7543 19.3877 6.6665 19.1667 6.6665ZM15.8333 13.3332C15.3389 13.3332 14.8555 13.1865 14.4444 12.9118C14.0333 12.6371 13.7129 12.2467 13.5236 11.7899C13.3344 11.3331 13.2849 10.8304 13.3814 10.3454C13.4778 9.86049 13.7159 9.41503 14.0656 9.0654C14.4152 8.71577 14.8607 8.47767 15.3456 8.38121C15.8306 8.28474 16.3332 8.33425 16.79 8.52347C17.2469 8.71269 17.6373 9.03312 17.912 9.44425C18.1867 9.85537 18.3333 10.3387 18.3333 10.8332C18.3333 11.4962 18.0699 12.1321 17.6011 12.6009C17.1323 13.0698 16.4964 13.3332 15.8333 13.3332Z" fill="#0C4D3E"/>
</svg>
