<svg width="12" height="12" viewBox="0 0 12 12" fill="none" xmlns="http://www.w3.org/2000/svg">
<g clip-path="url(#clip0_170_255)">
<path d="M11 4.586V3.5C11 1.8455 9.6545 0.5 8 0.5H4C2.3455 0.5 1 1.8455 1 3.5V4.586C0.418 4.7925 0 5.348 0 6V8C0 8.816 0.393 9.542 1 9.9985V10V11C1 11.276 1.224 11.5 1.5 11.5C1.776 11.5 2 11.276 2 11V10.4495C2.1615 10.4825 2.329 10.5 2.5 10.5H9.5C9.671 10.5 9.8385 10.4825 10 10.4495V11C10 11.276 10.224 11.5 10.5 11.5C10.776 11.5 11 11.276 11 11V10V9.9985C11.607 9.542 12 8.816 12 8V6C12 5.348 11.582 4.7925 11 4.586ZM4 1.5H8C9.103 1.5 10 2.397 10 3.5V4.586C9.418 4.7925 9 5.348 9 6V7H3V6C3 5.348 2.582 4.7925 2 4.586V3.5C2 2.397 2.897 1.5 4 1.5ZM11 8C11 8.827 10.327 9.5 9.5 9.5H2.5C1.673 9.5 1 8.827 1 8V6C1 5.7245 1.2245 5.5 1.5 5.5C1.7755 5.5 2 5.7245 2 6V7.5C2 7.776 2.224 8 2.5 8H9.5C9.776 8 10 7.776 10 7.5V6C10 5.7245 10.2245 5.5 10.5 5.5C10.7755 5.5 11 5.7245 11 6V8Z" fill="#939393"/>
</g>
<defs>
<clipPath id="clip0_170_255">
<rect width="12" height="12" fill="white"/>
</clipPath>
</defs>
</svg>
