<svg width="12" height="12" viewBox="0 0 12 12" fill="none" xmlns="http://www.w3.org/2000/svg">
<g clip-path="url(#clip0_392_777)">
<path d="M12 4.862V9.5C11.9992 10.1628 11.7356 10.7982 11.2669 11.2669C10.7982 11.7356 10.1628 11.9992 9.5 12H9C8.86739 12 8.74022 11.9473 8.64645 11.8536C8.55268 11.7598 8.5 11.6326 8.5 11.5C8.5 11.3674 8.55268 11.2402 8.64645 11.1464C8.74022 11.0527 8.86739 11 9 11H9.5C9.89783 11 10.2794 10.842 10.5607 10.5607C10.842 10.2794 11 9.89782 11 9.5V4.862C11 4.61646 10.9398 4.37467 10.8245 4.15786C10.7093 3.94104 10.5425 3.75584 10.339 3.6185L6.839 1.257C6.59169 1.0884 6.29932 0.998226 6 0.998226C5.70069 0.998226 5.40832 1.0884 5.161 1.257L1.661 3.6185C1.45746 3.75584 1.29075 3.94104 1.1755 4.15786C1.06025 4.37467 0.999988 4.61646 1 4.862V9.5C1 9.89782 1.15804 10.2794 1.43934 10.5607C1.72065 10.842 2.10218 11 2.5 11H3C3.13261 11 3.25979 11.0527 3.35356 11.1464C3.44732 11.2402 3.5 11.3674 3.5 11.5C3.5 11.6326 3.44732 11.7598 3.35356 11.8536C3.25979 11.9473 3.13261 12 3 12H2.5C1.8372 11.9992 1.20178 11.7356 0.733112 11.2669C0.264443 10.7982 0.000795887 10.1628 1.95854e-06 9.5V4.862C-0.000510479 4.45286 0.0995414 4.04986 0.291354 3.68847C0.483167 3.32708 0.760861 3.01836 1.1 2.7895L4.6 0.427499C5.01263 0.147475 5.49983 -0.00222778 5.9985 -0.00222778C6.49718 -0.00222778 6.98437 0.147475 7.397 0.427499L10.897 2.7895C11.2365 3.01825 11.5146 3.32686 11.7069 3.68822C11.8992 4.04958 11.9999 4.45264 12 4.862ZM9.5 7.5035C9.50128 7.96325 9.41135 8.41868 9.23541 8.84344C9.05946 9.26819 8.80101 9.65382 8.475 9.978L6.7175 11.697C6.5251 11.8833 6.2678 11.9874 6 11.9874C5.7322 11.9874 5.4749 11.8833 5.2825 11.697L3.529 9.982C3.1212 9.57547 2.82 9.0746 2.6521 8.52381C2.48419 7.97301 2.45478 7.38929 2.56647 6.82441C2.67815 6.25952 2.92748 5.73092 3.29235 5.28546C3.65723 4.83999 4.12637 4.49144 4.65819 4.27068C5.19002 4.04993 5.76809 3.9638 6.34117 4.01992C6.91425 4.07605 7.46462 4.27271 7.94351 4.59245C8.4224 4.9122 8.81499 5.34516 9.0865 5.85295C9.35801 6.36074 9.50004 6.92768 9.5 7.5035ZM8.5 7.5035C8.50001 7.09238 8.39863 6.68761 8.20484 6.32504C8.01105 5.96246 7.73084 5.65327 7.38902 5.42485C7.0472 5.19643 6.65432 5.05584 6.24519 5.01552C5.83606 4.9752 5.42329 5.0364 5.04346 5.1937C4.66363 5.351 4.32845 5.59954 4.06761 5.91731C3.80678 6.23509 3.62833 6.61228 3.54809 7.01549C3.46784 7.4187 3.48827 7.83547 3.60757 8.2289C3.72686 8.62232 3.94134 8.98026 4.232 9.271L5.982 10.982L7.772 9.267C8.00381 9.0357 8.18749 8.76077 8.31245 8.45809C8.4374 8.1554 8.50114 7.83096 8.5 7.5035ZM7.5 7.5C7.5 7.79667 7.41203 8.08668 7.24721 8.33335C7.08238 8.58003 6.84812 8.77229 6.57403 8.88582C6.29994 8.99935 5.99834 9.02905 5.70737 8.97118C5.4164 8.9133 5.14912 8.77044 4.93934 8.56066C4.72956 8.35088 4.5867 8.08361 4.52882 7.79263C4.47095 7.50166 4.50065 7.20006 4.61418 6.92597C4.72771 6.65188 4.91997 6.41762 5.16665 6.25279C5.41332 6.08797 5.70333 6 6 6C6.39783 6 6.77936 6.15803 7.06066 6.43934C7.34197 6.72064 7.5 7.10217 7.5 7.5Z" fill="black"/>
</g>
<defs>
<clipPath id="clip0_392_777">
<rect width="12" height="12" fill="white"/>
</clipPath>
</defs>
</svg>
