<svg width="12" height="12" viewBox="0 0 12 12" fill="none" xmlns="http://www.w3.org/2000/svg">
<g clip-path="url(#clip0_272_1183)">
<path d="M6.00003 8.00006C6.23286 8.0005 6.46257 7.94676 6.67103 7.84305L7.67103 7.34306C8.18073 7.08998 8.50224 6.56913 8.50004 6.00007V4.51657C8.5018 3.948 8.18033 3.42782 7.67103 3.17507L6.67103 2.67508C6.24852 2.46508 5.75204 2.46508 5.32953 2.67508L4.32953 3.17507C3.82004 3.42768 3.49836 3.9479 3.50003 4.51657V6.00007C3.4982 6.56878 3.81964 7.08914 4.32903 7.34207L5.32904 7.84207C5.5374 7.94611 5.76714 8.0002 6.00003 8.00006ZM4.50003 6.00007V4.51657C4.50083 4.46557 4.50943 4.41497 4.52553 4.36657L5.61554 4.91156C5.8576 5.03254 6.14249 5.03254 6.38455 4.91156L7.47456 4.36657C7.49066 4.41497 7.49926 4.46557 7.50006 4.51657V6.00007C7.50085 6.18977 7.39358 6.36339 7.22357 6.44756L6.22356 6.94755C6.08256 7.01732 5.91707 7.01732 5.77607 6.94755L4.77606 6.44756C4.60621 6.36325 4.49914 6.18968 4.50003 6.00007ZM9.50003 11.0001H8.14553L9.88902 9.38906C12.0369 7.2412 12.037 3.75881 9.88914 1.61088C7.74128 -0.537051 4.25891 -0.537074 2.11098 1.61076C-0.0369502 3.7586 -0.0369972 7.24104 2.11086 9.38894C2.11557 9.39365 3.85454 11.0001 3.85454 11.0001H2.50004C2.2239 11.0001 2.00005 11.2239 2.00005 11.5001C2.00005 11.7762 2.2239 12 2.50004 12H9.50005C9.77619 12 10 11.7762 10 11.5001C10 11.2239 9.77617 11.0001 9.50003 11.0001ZM2.81804 2.31806C4.57154 0.556684 7.42091 0.550309 9.18228 2.30381C10.9437 4.05731 10.95 6.90668 9.19653 8.66805L7.20404 10.5086C6.52398 11.1495 5.46109 11.1458 4.78555 10.5L2.81804 8.68204C1.06339 6.92355 1.06342 4.07657 2.81804 2.31806Z" fill="black"/>
</g>
<defs>
<clipPath id="clip0_272_1183">
<rect width="12" height="12" fill="white"/>
</clipPath>
</defs>
</svg>
