<svg width="30" height="30" viewBox="0 0 30 30" fill="none" xmlns="http://www.w3.org/2000/svg">
<path d="M15.0001 0.00874329C12.5263 0.00902001 10.1082 0.743308 8.05195 2.11864C5.99571 3.49398 4.3938 5.44851 3.44901 7.73478C2.50423 10.0211 2.25906 12.5363 2.74456 14.9619C3.23006 17.3876 4.42438 19.6147 6.17632 21.3612L15.0001 29.9925L23.8388 21.3462C25.5865 19.598 26.7766 17.3709 27.2587 14.9463C27.7407 12.5218 27.4931 10.0088 26.5471 7.72498C25.601 5.44119 23.9991 3.48916 21.9438 2.1157C19.8885 0.742244 17.4721 0.00902395 15.0001 0.00874329ZM21.2013 18.68L15.0001 24.75L8.81257 18.695C7.17154 17.054 6.24963 14.8283 6.24963 12.5075C6.24963 10.1867 7.17154 7.96102 8.81257 6.31999C10.4536 4.67897 12.6793 3.75705 15.0001 3.75705C17.3208 3.75705 19.5465 4.67897 21.1876 6.31999C22.8256 7.95848 23.7469 10.1797 23.7495 12.4965C23.752 14.8133 22.8357 17.0366 21.2013 18.6787V18.68ZM20.0001 11.7612V16.25H16.2501V13.75H13.7501V16.25H10.0001V11.7612C10 11.473 10.0664 11.1886 10.1941 10.9302C10.3218 10.6718 10.5073 10.4463 10.7363 10.2712L13.8613 7.88499C14.1883 7.63502 14.5885 7.49958 15.0001 7.49958C15.4117 7.49958 15.8118 7.63502 16.1388 7.88499L19.2638 10.2712C19.4928 10.4463 19.6784 10.6718 19.8061 10.9302C19.9337 11.1886 20.0001 11.473 20.0001 11.7612Z" fill="white"/>
</svg>
