<svg width="25" height="25" viewBox="0 0 25 25" fill="none" xmlns="http://www.w3.org/2000/svg">
<path d="M22.9166 6.51041V11.8229C22.9166 13.1458 22.4791 14.2604 21.6978 15.0312C20.927 15.8125 19.8124 16.25 18.4895 16.25V18.1354C18.4895 18.8437 17.6978 19.2708 17.1145 18.875L16.1041 18.2083C16.1978 17.8854 16.2395 17.5312 16.2395 17.1562V12.9167C16.2395 10.7917 14.8228 9.37499 12.6978 9.37499H5.62491C5.47907 9.37499 5.34367 9.38543 5.20825 9.39585V6.51041C5.20825 3.85416 6.97909 2.08333 9.63534 2.08333H18.4895C21.1458 2.08333 22.9166 3.85416 22.9166 6.51041Z" stroke="#0C4D3E" stroke-width="1.5" stroke-miterlimit="10" stroke-linecap="round" stroke-linejoin="round"/>
<path d="M16.2395 12.9167V17.1562C16.2395 17.5312 16.1978 17.8854 16.1041 18.2083C15.7187 19.7396 14.4478 20.6979 12.6978 20.6979H9.8645L6.71867 22.7917C6.24992 23.1146 5.62491 22.7708 5.62491 22.2083V20.6979C4.56241 20.6979 3.677 20.3438 3.06242 19.7292C2.43742 19.1042 2.08325 18.2187 2.08325 17.1562V12.9167C2.08325 10.9375 3.31242 9.57294 5.20825 9.39585C5.34367 9.38544 5.47908 9.375 5.62491 9.375H12.6978C14.8228 9.375 16.2395 10.7917 16.2395 12.9167Z" stroke="#0C4D3E" stroke-width="1.5" stroke-miterlimit="10" stroke-linecap="round" stroke-linejoin="round"/>
</svg>
