<svg width="25" height="25" viewBox="0 0 25 25" fill="none" xmlns="http://www.w3.org/2000/svg">
<path d="M12.5 9.70833C13.7396 9.70833 14.75 8.69791 14.75 7.45833C14.75 6.21874 13.7396 5.20833 12.5 5.20833C11.2604 5.20833 10.25 6.21874 10.25 7.45833C10.25 8.69791 11.2604 9.70833 12.5 9.70833Z" stroke="#0C4D3E" stroke-width="1.5" stroke-linecap="round" stroke-linejoin="round"/>
<path d="M7.07275 19.7916C8.31234 19.7916 9.32275 18.7811 9.32275 17.5416C9.32275 16.302 8.31234 15.2916 7.07275 15.2916C5.83317 15.2916 4.82275 16.302 4.82275 17.5416C4.82275 18.7811 5.82275 19.7916 7.07275 19.7916Z" stroke="#0C4D3E" stroke-width="1.5" stroke-linecap="round" stroke-linejoin="round"/>
<path d="M17.927 19.7916C19.1666 19.7916 20.177 18.7811 20.177 17.5416C20.177 16.302 19.1666 15.2916 17.927 15.2916C16.6874 15.2916 15.677 16.302 15.677 17.5416C15.677 18.7811 16.6874 19.7916 17.927 19.7916Z" stroke="#0C4D3E" stroke-width="1.5" stroke-linecap="round" stroke-linejoin="round"/>
</svg>
