<svg width="20" height="20" viewBox="0 0 20 20" fill="none" xmlns="http://www.w3.org/2000/svg">
<g clip-path="url(#clip0_476_445)">
<path d="M18.3333 4.70792V2.08792C18.3333 1.39792 17.7733 0.837917 17.0833 0.837917C16.3933 0.837917 15.8333 1.39792 15.8333 2.08792V2.99542L12.5642 0.78875C11.0067 -0.262917 8.9925 -0.262917 7.43667 0.78875L2.02 4.44375C0.755 5.29792 0 6.71792 0 8.24292V15.4213C0 17.9479 2.05667 20.0046 4.58333 20.0046H15.4167C17.9433 20.0046 20 17.9479 20 15.4213V8.24292C20 6.86542 19.3842 5.57458 18.3333 4.70792ZM17.5 15.4213C17.5 16.5704 16.5658 17.5046 15.4167 17.5046H4.58333C3.43417 17.5046 2.5 16.5704 2.5 15.4213V8.24292C2.5 7.54958 2.84333 6.90458 3.41833 6.51625L8.83583 2.86125C9.18917 2.62208 9.595 2.50208 10 2.50208C10.405 2.50208 10.8117 2.62208 11.165 2.86125L16.5817 6.51625C17.1558 6.90458 17.5 7.54958 17.5 8.24292V15.4213ZM14.1667 11.6712C14.1667 12.3612 13.6067 12.9212 12.9167 12.9212H11.25V14.5879C11.25 15.2779 10.69 15.8379 10 15.8379C9.31 15.8379 8.75 15.2779 8.75 14.5879V12.9212H7.08333C6.39333 12.9212 5.83333 12.3612 5.83333 11.6712C5.83333 10.9812 6.39333 10.4212 7.08333 10.4212H8.75V8.75458C8.75 8.06458 9.31 7.50458 10 7.50458C10.69 7.50458 11.25 8.06458 11.25 8.75458V10.4212H12.9167C13.6067 10.4212 14.1667 10.9812 14.1667 11.6712Z" fill="white"/>
</g>
<defs>
<clipPath id="clip0_476_445">
<rect width="20" height="20" fill="white"/>
</clipPath>
</defs>
</svg>
