<svg width="250" height="250" viewBox="0 0 250 250" fill="none" xmlns="http://www.w3.org/2000/svg">
<path d="M236.99 164.435H210.415V199.485H236.99V164.435Z" fill="#F5F5F5"/>
<path d="M236.99 164.435H224.53V199.485H236.99V164.435Z" fill="#EBEBEB"/>
<path d="M218.375 169.18H215.985V174.985H218.375V169.18Z" fill="#EBEBEB"/>
<path d="M218.375 191.9H215.985V197.705H218.375V191.9Z" fill="#EBEBEB"/>
<path d="M224.53 177.26C224.53 177.31 221.37 177.35 217.475 177.35C213.58 177.35 210.415 177.31 210.415 177.26C210.415 177.21 213.575 177.17 217.475 177.17C221.375 177.17 224.53 177.21 224.53 177.26Z" fill="#EBEBEB"/>
<path d="M218.375 180.625H215.985V186.43H218.375V180.625Z" fill="#EBEBEB"/>
<path d="M224.53 188.71C224.53 188.76 221.37 188.8 217.475 188.8C213.58 188.8 210.415 188.76 210.415 188.71C210.415 188.66 213.575 188.615 217.475 188.615C221.375 188.615 224.53 188.66 224.53 188.71Z" fill="#EBEBEB"/>
<path d="M229.565 169.18H227.175V174.985H229.565V169.18Z" fill="#3AC387" fill-opacity="0.5"/>
<path d="M234.75 169.18H232.36V174.985H234.75V169.18Z" fill="#3AC387" fill-opacity="0.5"/>
<path d="M229.565 180.195H227.175V186H229.565V180.195Z" fill="#3AC387" fill-opacity="0.5"/>
<path d="M234.75 180.195H232.36V186H234.75V180.195Z" fill="#3AC387" fill-opacity="0.5"/>
<path d="M229.565 191.21H227.175V197.015H229.565V191.21Z" fill="#3AC387" fill-opacity="0.5"/>
<path d="M234.75 191.21H232.36V197.015H234.75V191.21Z" fill="#3AC387" fill-opacity="0.5"/>
<path d="M238.985 163.21H208.415V164.475H238.985V163.21Z" fill="#3AC387" fill-opacity="0.5"/>
<path d="M237.175 164.595C237.175 164.645 231.235 164.685 223.91 164.685C216.585 164.685 210.645 164.645 210.645 164.595C210.645 164.545 216.585 164.505 223.91 164.505C231.235 164.505 237.175 164.545 237.175 164.595Z" fill="#F5F5F5"/>
<path d="M180.92 75.89H133.54V199.9H180.92V75.89Z" fill="#EBEBEB"/>
<path d="M180.915 75.89H157.225V199.9H180.915V75.89Z" fill="#3AC387" fill-opacity="0.5"/>
<path d="M155.68 61.15H138.95V75.89H155.68V61.15Z" fill="#EBEBEB"/>
<path d="M155.675 61.15H151.69V75.89H155.675V61.15Z" fill="#3AC387" fill-opacity="0.5"/>
<path d="M182.3 75.03H129.59V75.89H182.3V75.03Z" fill="#3AC387" fill-opacity="0.5"/>
<path d="M146.9 82.32H142.89V90.775H146.9V82.32Z" fill="white"/>
<path d="M157.225 94.095C157.225 94.185 151.925 94.255 145.385 94.255C138.845 94.255 133.54 94.185 133.54 94.095C133.54 94.005 138.84 93.93 145.385 93.93C151.93 93.93 157.225 94 157.225 94.095Z" fill="#3AC387" fill-opacity="0.5"/>
<path d="M170.795 82.32H166.785V90.775H170.795V82.32Z" fill="#F5F5F5"/>
<path d="M181.12 94.095C181.12 94.185 175.82 94.255 169.28 94.255C162.74 94.255 157.435 94.185 157.435 94.095C157.435 94.005 162.735 93.93 169.28 93.93C175.825 93.93 181.12 94 181.12 94.095Z" fill="#EBEBEB"/>
<path d="M170.795 99.105H166.785V107.56H170.795V99.105Z" fill="#F5F5F5"/>
<path d="M181.12 110.88C181.12 110.97 175.82 111.045 169.28 111.045C162.74 111.045 157.435 110.97 157.435 110.88C157.435 110.79 162.735 110.72 169.28 110.72C175.825 110.72 181.12 110.795 181.12 110.88Z" fill="#EBEBEB"/>
<path d="M170.795 116.4H166.785V124.855H170.795V116.4Z" fill="#F5F5F5"/>
<path d="M181.12 128.175C181.12 128.265 175.82 128.34 169.28 128.34C162.74 128.34 157.435 128.265 157.435 128.175C157.435 128.085 162.735 128.015 169.28 128.015C175.825 128.015 181.12 128.09 181.12 128.175Z" fill="#EBEBEB"/>
<path d="M170.795 133.7H166.785V142.155H170.795V133.7Z" fill="#F5F5F5"/>
<path d="M181.12 145.47C181.12 145.56 175.82 145.635 169.28 145.635C162.74 145.635 157.435 145.56 157.435 145.47C157.435 145.38 162.735 145.31 169.28 145.31C175.825 145.31 181.12 145.385 181.12 145.47Z" fill="#EBEBEB"/>
<path d="M170.795 150.5H166.785V158.955H170.795V150.5Z" fill="#F5F5F5"/>
<path d="M181.12 162.275C181.12 162.36 175.82 162.435 169.28 162.435C162.74 162.435 157.435 162.36 157.435 162.275C157.435 162.19 162.735 162.11 169.28 162.11C175.825 162.11 181.12 162.185 181.12 162.275Z" fill="#EBEBEB"/>
<path d="M170.795 167.365H166.785V175.82H170.795V167.365Z" fill="#F5F5F5"/>
<path d="M170.795 184.455H166.785V192.91H170.795V184.455Z" fill="#F5F5F5"/>
<path d="M181.12 179.14C181.12 179.23 175.82 179.305 169.28 179.305C162.74 179.305 157.435 179.23 157.435 179.14C157.435 179.05 162.735 178.98 169.28 178.98C175.825 178.98 181.12 179.05 181.12 179.14Z" fill="#EBEBEB"/>
<path d="M146.9 99.365H142.89V107.82H146.9V99.365Z" fill="white"/>
<path d="M157.225 111.14C157.225 111.225 151.925 111.3 145.385 111.3C138.845 111.3 133.54 111.225 133.54 111.14C133.54 111.055 138.84 110.975 145.385 110.975C151.93 110.975 157.225 111.05 157.225 111.14Z" fill="#3AC387" fill-opacity="0.5"/>
<path d="M146.9 116.41H142.89V124.865H146.9V116.41Z" fill="white"/>
<path d="M157.225 128.185C157.225 128.27 151.925 128.345 145.385 128.345C138.845 128.345 133.54 128.27 133.54 128.185C133.54 128.1 138.84 128.02 145.385 128.02C151.93 128.02 157.225 128.095 157.225 128.185Z" fill="#3AC387" fill-opacity="0.5"/>
<path d="M146.9 133.455H142.89V141.91H146.9V133.455Z" fill="white"/>
<path d="M157.225 145.23C157.225 145.315 151.925 145.39 145.385 145.39C138.845 145.39 133.54 145.315 133.54 145.23C133.54 145.145 138.84 145.065 145.385 145.065C151.93 145.065 157.225 145.14 157.225 145.23Z" fill="#3AC387" fill-opacity="0.5"/>
<path d="M146.9 150.5H142.89V158.955H146.9V150.5Z" fill="white"/>
<path d="M157.225 162.275C157.225 162.36 151.925 162.435 145.385 162.435C138.845 162.435 133.54 162.36 133.54 162.275C133.54 162.19 138.84 162.11 145.385 162.11C151.93 162.11 157.225 162.185 157.225 162.275Z" fill="#3AC387" fill-opacity="0.5"/>
<path d="M146.9 167.545H142.89V176H146.9V167.545Z" fill="white"/>
<path d="M157.225 179.32C157.225 179.405 151.925 179.48 145.385 179.48C138.845 179.48 133.54 179.405 133.54 179.32C133.54 179.235 138.84 179.155 145.385 179.155C151.93 179.155 157.225 179.23 157.225 179.32Z" fill="#3AC387" fill-opacity="0.5"/>
<path d="M146.9 184.59H142.89V193.045H146.9V184.59Z" fill="white"/>
<path d="M114.895 151.765H78.5652V199.685H114.895V151.765Z" fill="#EBEBEB"/>
<path d="M114.895 151.765H97.8601V199.685H114.895V151.765Z" fill="#3AC387" fill-opacity="0.5"/>
<path d="M89.4452 158.25H86.1802V166.185H89.4452V158.25Z" fill="#F5F5F5"/>
<path d="M89.4452 189.315H86.1802V197.25H89.4452V189.315Z" fill="#F5F5F5"/>
<path d="M97.8602 169.305C97.8602 169.39 93.5402 169.465 88.2102 169.465C82.8802 169.465 78.5652 169.39 78.5652 169.305C78.5652 169.22 82.8852 169.14 88.2102 169.14C93.5352 169.14 97.8602 169.215 97.8602 169.305Z" fill="#F5F5F5"/>
<path d="M89.4452 173.9H86.1802V181.835H89.4452V173.9Z" fill="#F5F5F5"/>
<path d="M97.8602 184.95C97.8602 185.04 93.5402 185.115 88.2102 185.115C82.8802 185.115 78.5652 185.04 78.5652 184.95C78.5652 184.86 82.8852 184.79 88.2102 184.79C93.5352 184.79 97.8602 184.865 97.8602 184.95Z" fill="#F5F5F5"/>
<path d="M104.74 158.25H101.475V166.185H104.74V158.25Z" fill="#F5F5F5"/>
<path d="M111.83 158.25H108.565V166.185H111.83V158.25Z" fill="#F5F5F5"/>
<path d="M104.74 173.31H101.475V181.245H104.74V173.31Z" fill="#F5F5F5"/>
<path d="M111.83 173.31H108.565V181.245H111.83V173.31Z" fill="#F5F5F5"/>
<path d="M104.74 188.37H101.475V196.305H104.74V188.37Z" fill="#F5F5F5"/>
<path d="M111.83 188.37H108.565V196.305H111.83V188.37Z" fill="#F5F5F5"/>
<path d="M117.63 150.095H75.8352V151.825H117.63V150.095Z" fill="#3AC387" fill-opacity="0.5"/>
<path d="M115.15 152C115.15 152.09 107.03 152.165 97.015 152.165C87 152.165 78.875 152.09 78.875 152C78.875 151.91 86.995 151.84 97.015 151.84C107.035 151.84 115.15 151.9 115.15 152Z" fill="#EBEBEB"/>
<path d="M192.315 92.345L224.5 92.5C224.5 92.5 221.45 85.5 214.935 85.5C209.97 85.5 209.75 88.59 206.765 89.475C203.78 90.36 197.5 84.95 192.315 92.345Z" fill="#EBEBEB"/>
<path d="M53.3601 58.075L109.96 58.31C109.96 58.31 104.6 46.045 93.1451 46.04C84.4151 46.04 84.0251 51.475 78.7851 53.04C73.5451 54.605 62.5001 45.07 53.3601 58.075Z" fill="#F5F5F5"/>
<path d="M166.88 39.73L209.525 39.905C209.525 39.905 205.5 30.665 196.855 30.66C190.275 30.66 189.985 34.755 186.035 35.925C182.085 37.095 173.75 29.93 166.88 39.73Z" fill="#FAFAFA"/>
<path d="M242.175 199.5C242.175 199.575 189.615 199.63 124.795 199.63C59.975 199.63 7.40503 199.575 7.40503 199.5C7.40503 199.425 59.95 199.37 124.795 199.37C189.64 199.37 242.175 199.43 242.175 199.5Z" fill="#3AC387"/>
<path d="M218.135 126.925H190.43V199.44H218.135V126.925Z" fill="#455A64"/>
<path d="M218.13 126.925H204.28V199.44H218.13V126.925Z" fill="#3AC387"/>
<path d="M203.38 118.305H193.595V126.925H203.38V118.305Z" fill="#455A64"/>
<path d="M203.375 118.305H201.045V126.925H203.375V118.305Z" fill="#3AC387"/>
<path d="M218.945 126.42H188.12V126.925H218.945V126.42Z" fill="#455A64"/>
<path d="M198.245 130.685H195.9V135.63H198.245V130.685Z" fill="#3AC387"/>
<path d="M204.28 137.57C204.28 137.62 201.18 137.665 197.355 137.665C193.53 137.665 190.43 137.62 190.43 137.57C190.43 137.52 193.53 137.475 197.355 137.475C201.18 137.475 204.28 137.5 204.28 137.57Z" fill="#3AC387"/>
<path d="M212.215 130.685H209.87V135.63H212.215V130.685Z" fill="#455A64"/>
<path d="M218.255 137.57C218.255 137.62 215.155 137.665 211.33 137.665C207.505 137.665 204.405 137.62 204.405 137.57C204.405 137.52 207.505 137.475 211.33 137.475C215.155 137.475 218.255 137.5 218.255 137.57Z" fill="#455A64"/>
<path d="M212.215 140.5H209.87V145.445H212.215V140.5Z" fill="#455A64"/>
<path d="M218.255 147.385C218.255 147.44 215.155 147.48 211.33 147.48C207.505 147.48 204.405 147.44 204.405 147.385C204.405 147.33 207.505 147.29 211.33 147.29C215.155 147.29 218.255 147.335 218.255 147.385Z" fill="#455A64"/>
<path d="M212.215 150.615H209.87V155.56H212.215V150.615Z" fill="#455A64"/>
<path d="M218.255 157.5C218.255 157.55 215.155 157.595 211.33 157.595C207.505 157.595 204.405 157.55 204.405 157.5C204.405 157.45 207.505 157.405 211.33 157.405C215.155 157.405 218.255 157.445 218.255 157.5Z" fill="#455A64"/>
<path d="M212.215 160.725H209.87V165.67H212.215V160.725Z" fill="#455A64"/>
<path d="M218.255 167.61C218.255 167.665 215.155 167.705 211.33 167.705C207.505 167.705 204.405 167.665 204.405 167.61C204.405 167.555 207.505 167.52 211.33 167.52C215.155 167.52 218.255 167.56 218.255 167.61Z" fill="#455A64"/>
<path d="M212.215 170.55H209.87V175.495H212.215V170.55Z" fill="#455A64"/>
<path d="M218.255 177.435C218.255 177.49 215.155 177.53 211.33 177.53C207.505 177.53 204.405 177.49 204.405 177.435C204.405 177.38 207.505 177.34 211.33 177.34C215.155 177.34 218.255 177.385 218.255 177.435Z" fill="#455A64"/>
<path d="M212.215 180.415H209.87V185.36H212.215V180.415Z" fill="#455A64"/>
<path d="M212.215 190.41H209.87V195.355H212.215V190.41Z" fill="#455A64"/>
<path d="M218.255 187.3C218.255 187.355 215.155 187.395 211.33 187.395C207.505 187.395 204.405 187.355 204.405 187.3C204.405 187.245 207.505 187.205 211.33 187.205C215.155 187.205 218.255 187.25 218.255 187.3Z" fill="#455A64"/>
<path d="M198.245 140.65H195.9V145.595H198.245V140.65Z" fill="#3AC387"/>
<path d="M204.28 147.535C204.28 147.585 201.18 147.63 197.355 147.63C193.53 147.63 190.43 147.585 190.43 147.535C190.43 147.485 193.53 147.44 197.355 147.44C201.18 147.44 204.28 147.5 204.28 147.535Z" fill="#3AC387"/>
<path d="M198.245 150.615H195.9V155.56H198.245V150.615Z" fill="#3AC387"/>
<path d="M204.28 157.5C204.28 157.555 201.18 157.595 197.355 157.595C193.53 157.595 190.43 157.555 190.43 157.5C190.43 157.445 193.53 157.41 197.355 157.41C201.18 157.41 204.28 157.45 204.28 157.5Z" fill="#3AC387"/>
<path d="M198.245 160.585H195.9V165.53H198.245V160.585Z" fill="#3AC387"/>
<path d="M204.28 167.47C204.28 167.52 201.18 167.565 197.355 167.565C193.53 167.565 190.43 167.52 190.43 167.47C190.43 167.42 193.53 167.375 197.355 167.375C201.18 167.375 204.28 167.415 204.28 167.47Z" fill="#3AC387"/>
<path d="M198.245 170.55H195.9V175.495H198.245V170.55Z" fill="#3AC387"/>
<path d="M204.28 177.435C204.28 177.49 201.18 177.53 197.355 177.53C193.53 177.53 190.43 177.49 190.43 177.435C190.43 177.38 193.53 177.34 197.355 177.34C201.18 177.34 204.28 177.385 204.28 177.435Z" fill="#3AC387"/>
<path d="M198.245 180.52H195.9V185.465H198.245V180.52Z" fill="#3AC387"/>
<path d="M204.28 187.405C204.28 187.455 201.18 187.5 197.355 187.5C193.53 187.5 190.43 187.455 190.43 187.405C190.43 187.355 193.53 187.31 197.355 187.31C201.18 187.31 204.28 187.35 204.28 187.405Z" fill="#3AC387"/>
<path d="M198.245 190.485H195.9V195.43H198.245V190.485Z" fill="#3AC387"/>
<path d="M148.76 101.01H111.695V199.47H148.76V101.01Z" fill="#455A64"/>
<path d="M148.765 101.01H134.54V199.47H148.765V101.01Z" fill="#3AC387"/>
<path d="M143.06 108.78H140.245V114.72H143.06V108.78Z" fill="#455A64"/>
<path d="M143.06 119.2H140.245V125.14H143.06V119.2Z" fill="#455A64"/>
<path d="M143.06 130.87H140.245V136.81H143.06V130.87Z" fill="#455A64"/>
<path d="M143.06 142.02H140.245V147.96H143.06V142.02Z" fill="#455A64"/>
<path d="M143.06 153.175H140.245V159.115H143.06V153.175Z" fill="#455A64"/>
<path d="M143.06 164.325H140.245V170.265H143.06V164.325Z" fill="#455A64"/>
<path d="M143.06 175.48H140.245V181.42H143.06V175.48Z" fill="#455A64"/>
<path d="M143.06 187.74H140.245V193.68H143.06V187.74Z" fill="#455A64"/>
<path d="M150.61 100.39H108.47V101.54H150.61V100.39Z" fill="#3AC387"/>
<path d="M141.655 93.46H126.65V100.965H141.655V93.46Z" fill="#3AC387"/>
<path d="M134.54 93.46H126.65V100.39H134.54V93.46Z" fill="#455A64"/>
<path d="M119.785 108.535H116.97V114.475H119.785V108.535Z" fill="#3AC387"/>
<path d="M127.285 108.535H124.47V114.475H127.285V108.535Z" fill="#3AC387"/>
<path d="M119.785 119.85H116.97V125.79H119.785V119.85Z" fill="#3AC387"/>
<path d="M127.285 119.85H124.47V125.79H127.285V119.85Z" fill="#3AC387"/>
<path d="M119.785 131.165H116.97V137.105H119.785V131.165Z" fill="#3AC387"/>
<path d="M127.285 131.165H124.47V137.105H127.285V131.165Z" fill="#3AC387"/>
<path d="M119.785 142.48H116.97V148.42H119.785V142.48Z" fill="#3AC387"/>
<path d="M127.285 142.48H124.47V148.42H127.285V142.48Z" fill="#3AC387"/>
<path d="M119.785 153.795H116.97V159.735H119.785V153.795Z" fill="#3AC387"/>
<path d="M127.285 153.795H124.47V159.735H127.285V153.795Z" fill="#3AC387"/>
<path d="M119.785 165.11H116.97V171.05H119.785V165.11Z" fill="#3AC387"/>
<path d="M127.285 165.11H124.47V171.05H127.285V165.11Z" fill="#3AC387"/>
<path d="M119.785 176.425H116.97V182.365H119.785V176.425Z" fill="#3AC387"/>
<path d="M127.285 176.425H124.47V182.365H127.285V176.425Z" fill="#3AC387"/>
<path d="M119.785 187.74H116.97V193.68H119.785V187.74Z" fill="#3AC387"/>
<path d="M127.285 187.74H124.47V193.68H127.285V187.74Z" fill="#3AC387"/>
<path d="M134.54 116.805C134.54 116.905 129.425 116.985 123.12 116.985C116.815 116.985 111.695 116.905 111.695 116.805C111.695 116.705 116.81 116.63 123.12 116.63C129.43 116.63 134.54 116.71 134.54 116.805Z" fill="#3AC387"/>
<path d="M134.54 128.16C134.54 128.26 129.425 128.34 123.12 128.34C116.815 128.34 111.695 128.26 111.695 128.16C111.695 128.06 116.81 127.985 123.12 127.985C129.43 127.985 134.54 128.065 134.54 128.16Z" fill="#3AC387"/>
<path d="M134.54 139.655C134.54 139.75 129.425 139.83 123.12 139.83C116.815 139.83 111.695 139.75 111.695 139.655C111.695 139.56 116.81 139.475 123.12 139.475C129.43 139.475 134.54 139.555 134.54 139.655Z" fill="#3AC387"/>
<path d="M134.54 151.065C134.54 151.16 129.425 151.24 123.12 151.24C116.815 151.24 111.695 151.16 111.695 151.065C111.695 150.97 116.81 150.885 123.12 150.885C129.43 150.885 134.54 150.965 134.54 151.065Z" fill="#3AC387"/>
<path d="M134.54 162.31C134.54 162.405 129.425 162.485 123.12 162.485C116.815 162.485 111.695 162.405 111.695 162.31C111.695 162.215 116.81 162.13 123.12 162.13C129.43 162.13 134.54 162.21 134.54 162.31Z" fill="#3AC387"/>
<path d="M134.54 173.25C134.54 173.345 129.425 173.425 123.12 173.425C116.815 173.425 111.695 173.345 111.695 173.25C111.695 173.155 116.81 173.07 123.12 173.07C129.43 173.07 134.54 173.15 134.54 173.25Z" fill="#3AC387"/>
<path d="M134.54 185.375C134.54 185.47 129.425 185.55 123.12 185.55C116.815 185.55 111.695 185.47 111.695 185.375C111.695 185.28 116.81 185.195 123.12 185.195C129.43 185.195 134.54 185.275 134.54 185.375Z" fill="#3AC387"/>
<path d="M148.6 116.805C148.6 116.905 145.555 116.985 141.8 116.985C138.045 116.985 135 116.905 135 116.805C135 116.705 138.04 116.63 141.8 116.63C145.56 116.63 148.6 116.71 148.6 116.805Z" fill="#455A64"/>
<path d="M148.6 128.16C148.6 128.26 145.555 128.34 141.8 128.34C138.045 128.34 135 128.26 135 128.16C135 128.06 138.04 127.985 141.8 127.985C145.56 127.985 148.6 128.065 148.6 128.16Z" fill="#455A64"/>
<path d="M148.6 139.5C148.6 139.6 145.555 139.68 141.8 139.68C138.045 139.68 135 139.615 135 139.5C135 139.385 138.04 139.325 141.8 139.325C145.56 139.325 148.6 139.42 148.6 139.5Z" fill="#455A64"/>
<path d="M148.45 151.065C148.45 151.16 145.405 151.24 141.65 151.24C137.895 151.24 134.85 151.16 134.85 151.065C134.85 150.97 137.895 150.885 141.65 150.885C145.405 150.885 148.45 150.965 148.45 151.065Z" fill="#455A64"/>
<path d="M148.45 162.31C148.45 162.405 145.405 162.485 141.65 162.485C137.895 162.485 134.85 162.405 134.85 162.31C134.85 162.215 137.895 162.13 141.65 162.13C145.405 162.13 148.45 162.21 148.45 162.31Z" fill="#455A64"/>
<path d="M148.45 173.555C148.45 173.65 145.405 173.73 141.65 173.73C137.895 173.73 134.85 173.65 134.85 173.555C134.85 173.46 137.895 173.375 141.65 173.375C145.405 173.375 148.45 173.455 148.45 173.555Z" fill="#455A64"/>
<path d="M148.45 185.375C148.45 185.47 145.405 185.55 141.65 185.55C137.895 185.55 134.85 185.47 134.85 185.375C134.85 185.28 137.895 185.195 141.65 185.195C145.405 185.195 148.45 185.275 148.45 185.375Z" fill="#455A64"/>
<path d="M155.6 165.205H140.655V199.5H155.6V165.205Z" fill="#0C4D3E"/>
<path opacity="0.2" d="M155.6 165.205H140.655V199.5H155.6V165.205Z" fill="black"/>
<path d="M137.16 165.065H174.035L180.925 155.285L188.145 165.345L196.635 165.21L187.485 152.885L146.37 153.06L137.16 165.065Z" fill="#0C4D3E"/>
<path opacity="0.2" d="M137.16 165.065H174.035L180.925 155.285L188.145 165.345L196.635 165.21L187.485 152.885L146.37 153.06L137.16 165.065Z" fill="white"/>
<path d="M155.6 165.21V199.5H192.425V165.21H188.2L180.925 155.285L174.01 165.055L155.6 165.21Z" fill="#0C4D3E"/>
<g opacity="0.2">
<path d="M160.805 199.5V184.635H169.415V199.5" fill="black"/>
</g>
<path opacity="0.7" d="M188.15 184.215H174.58V192.62H188.15V184.215Z" fill="white"/>
<path opacity="0.7" d="M188.15 167.395H174.58V175.8H188.15V167.395Z" fill="white"/>
<path opacity="0.7" d="M168.515 167.47H159.96V175.57H168.515V167.47Z" fill="white"/>
<path d="M178.56 184.215H178.435V192.7H178.56V184.215Z" fill="#0C4D3E"/>
<path d="M184.2 184.215H184.075V192.7H184.2V184.215Z" fill="#0C4D3E"/>
<path d="M184.135 188.65H178.495V188.773H184.135V188.65Z" fill="#0C4D3E"/>
<path d="M178.56 167.395H178.435V175.88H178.56V167.395Z" fill="#0C4D3E"/>
<path d="M184.2 167.395H184.075V175.88H184.2V167.395Z" fill="#0C4D3E"/>
<path d="M184.135 171.83H178.495V171.953H184.135V171.83Z" fill="#0C4D3E"/>
<path d="M164.3 167.47H164.175V175.57H164.3V167.47Z" fill="#0C4D3E"/>
<path d="M168.515 171.655H159.96V171.778H168.515V171.655Z" fill="#0C4D3E"/>
<path opacity="0.7" d="M182.72 161.83C182.72 162.189 182.614 162.54 182.414 162.838C182.215 163.137 181.931 163.369 181.6 163.507C181.268 163.644 180.903 163.68 180.551 163.61C180.199 163.54 179.876 163.367 179.622 163.113C179.368 162.86 179.195 162.536 179.125 162.184C179.055 161.832 179.091 161.467 179.228 161.135C179.366 160.804 179.598 160.52 179.897 160.321C180.195 160.121 180.546 160.015 180.905 160.015C181.386 160.016 181.847 160.208 182.187 160.548C182.527 160.888 182.719 161.349 182.72 161.83Z" fill="white"/>
<path d="M167.96 159.605L170.25 156.78V149.985H165.455V159.655L167.96 159.605Z" fill="#0C4D3E"/>
<path opacity="0.2" d="M167.96 159.605V149.985H170.25V156.78L167.96 159.605Z" fill="black"/>
<path d="M170.575 148.985H164.92V149.985H170.575V148.985Z" fill="#0C4D3E"/>
<path d="M156.025 180.21H127.79V199.505H156.025V180.21Z" fill="#0C4D3E"/>
<path opacity="0.2" d="M145.2 180.21H127.79V199.505H145.2V180.21Z" fill="black"/>
<path d="M141.535 199.47C141.516 199.388 141.508 199.304 141.51 199.22C141.51 199.025 141.51 198.785 141.51 198.495C141.51 197.825 141.51 196.915 141.47 195.78C141.47 193.43 141.44 190.185 141.42 186.43L141.56 186.57H131.225L131.36 186.43C131.36 190.185 131.325 193.43 131.31 195.78C131.31 196.915 131.28 197.825 131.27 198.495C131.27 198.785 131.27 199.025 131.245 199.22C131.254 199.303 131.254 199.387 131.245 199.47C131.223 199.389 131.214 199.304 131.22 199.22C131.22 199.025 131.22 198.785 131.22 198.495C131.22 197.825 131.22 196.915 131.18 195.78C131.18 193.435 131.15 190.185 131.13 186.43V186.29H141.72V186.43C141.695 190.185 141.68 193.43 141.665 195.78C141.665 196.915 141.635 197.825 141.625 198.495C141.625 198.785 141.625 199.025 141.625 199.22C141.603 199.306 141.573 199.39 141.535 199.47Z" fill="#3AC387"/>
<path opacity="0.2" d="M154.715 185.935H147.38V187.805H154.715V185.935Z" fill="black"/>
<path d="M137.16 165.065V166.06H174.01V165.055L137.16 165.065Z" fill="#0C4D3E"/>
<path d="M174.01 166.06L180.905 156.385L180.925 155.285L174.035 165.065L174.01 166.06Z" fill="#0C4D3E"/>
<path d="M196.455 165.205H188.2V165.845H196.455V165.205Z" fill="#0C4D3E"/>
<path d="M166.48 182.355H163.435V183.515H166.48V182.355Z" fill="#3AC387"/>
<path opacity="0.3" d="M137.16 165.065V166.06H174.01V165.055L137.16 165.065Z" fill="black"/>
<path opacity="0.3" d="M174.01 166.06L180.905 156.385L180.925 155.285L174.035 165.065L174.01 166.06Z" fill="black"/>
<path opacity="0.3" d="M196.455 165.205H188.2V165.845H196.455V165.205Z" fill="black"/>
<path d="M168.72 192.135C168.695 192.135 168.72 191.945 168.495 191.8C168.438 191.761 168.372 191.737 168.303 191.729C168.234 191.721 168.165 191.73 168.1 191.755C168.024 191.786 167.959 191.838 167.914 191.906C167.868 191.974 167.844 192.053 167.844 192.135C167.844 192.217 167.868 192.296 167.914 192.364C167.959 192.432 168.024 192.484 168.1 192.515C168.165 192.54 168.234 192.549 168.303 192.541C168.372 192.533 168.438 192.509 168.495 192.47C168.7 192.325 168.695 192.13 168.72 192.135C168.745 192.14 168.805 192.35 168.57 192.57C168.498 192.629 168.412 192.669 168.32 192.685C168.228 192.702 168.133 192.695 168.045 192.665C167.934 192.627 167.838 192.556 167.77 192.461C167.702 192.366 167.666 192.252 167.666 192.135C167.666 192.018 167.702 191.904 167.77 191.809C167.838 191.714 167.934 191.643 168.045 191.605C168.133 191.575 168.228 191.568 168.32 191.585C168.412 191.601 168.498 191.641 168.57 191.7C168.805 191.925 168.735 192.15 168.72 192.135Z" fill="#3AC387"/>
<path d="M98.625 142.67C98.625 142.67 90.87 172.17 80.445 177.71C73.575 181.36 67.51 177.005 63.445 170.105L48.745 146.445C48.3703 145.097 48.5237 143.656 49.174 142.417C49.8243 141.178 50.9225 140.233 52.245 139.775L64.5 135.5L76.71 157.265L92.335 138.265" fill="#EB996E"/>
<path d="M22.32 144.725C22.59 146.645 27.425 160.76 27.425 160.76C27.425 160.76 49.365 154.555 49.135 153.465C48.945 152.58 45.515 138.52 40.935 130.595C40.0764 129.067 38.8723 127.762 37.419 126.782C35.9656 125.803 34.3034 125.177 32.565 124.955C31.595 124.845 29.44 125.745 28.845 126.04C24.175 128.375 20.23 129.895 22.32 144.725Z" fill="#455A64"/>
<path d="M56.7201 124C65.1451 126.345 65.5251 130.175 69.7451 136.93L76.3901 149.03L65.3201 156.085L63.2901 160.635L62.1951 199.765L17.5901 199.545L25.5901 167.87L22.4001 147.07C22.1051 143.79 21.1601 137.66 22.1701 134.495C25.3351 124.605 37.1401 123.55 44.4001 122.05C45.9001 121.74 47.3451 122.215 48.5651 122.585" fill="#455A64"/>
<path d="M63.18 162.645C63.1454 162.313 63.1353 161.979 63.15 161.645C63.15 160.945 63.15 160.015 63.185 158.895V158.87C63.7428 157.879 64.229 156.85 64.64 155.79C65.1528 154.532 65.2816 153.151 65.01 151.82C64.65 150.32 63.82 149.06 63.265 147.82C62.7611 146.709 62.4241 145.53 62.265 144.32C62.1604 143.513 62.1386 142.697 62.2 141.885C62.2 141.595 62.255 141.385 62.28 141.225C62.285 141.147 62.3036 141.071 62.335 141C62.3526 141.296 62.3526 141.594 62.335 141.89C62.3145 142.693 62.3664 143.496 62.49 144.29C62.6719 145.467 63.0204 146.612 63.525 147.69C64.075 148.91 64.925 150.19 65.305 151.74C65.5912 153.125 65.4536 154.564 64.91 155.87C64.4893 156.937 63.9878 157.97 63.41 158.96V158.91C63.355 160.03 63.315 160.96 63.28 161.66C63.2761 161.991 63.2427 162.32 63.18 162.645Z" fill="#3AC387"/>
<path d="M57.0702 122.625C57.1084 122.721 57.1336 122.822 57.1452 122.925C57.1992 123.217 57.2326 123.513 57.2452 123.81C57.2852 124.91 57.1015 126.008 56.7052 127.035C56.1178 128.57 55.1049 129.905 53.7852 130.885C52.1315 132.063 50.1045 132.596 48.0852 132.385C47.0474 132.279 46.034 132.004 45.0852 131.57C44.2081 131.158 43.4029 130.607 42.7002 129.94C41.525 128.802 40.6298 127.407 40.0852 125.865C39.7164 124.833 39.5057 123.75 39.4602 122.655C39.4413 122.359 39.4413 122.061 39.4602 121.765C39.4569 121.662 39.467 121.56 39.4902 121.46C39.5252 121.46 39.4902 121.885 39.5602 122.65C39.6492 123.726 39.8864 124.784 40.2652 125.795C40.8214 127.294 41.7143 128.645 42.8752 129.745C43.5587 130.389 44.3423 130.917 45.1952 131.31C46.1126 131.728 47.0922 131.993 48.0952 132.095C50.0381 132.306 51.9918 131.807 53.5952 130.69C54.6733 129.9 55.5513 128.868 56.1591 127.678C56.7669 126.488 57.0875 125.172 57.0952 123.835C57.1302 123.05 57.0352 122.63 57.0702 122.625Z" fill="#3AC387"/>
<path d="M74.3701 145.375C73.9545 145.686 73.5129 145.96 73.0501 146.195C72.2251 146.695 71.0751 147.335 69.8251 148.09C68.5751 148.845 67.4601 149.55 66.6501 150.06C66.2278 150.361 65.7794 150.624 65.3101 150.845C65.6883 150.488 66.1003 150.168 66.5401 149.89C67.3201 149.335 68.4251 148.6 69.6801 147.84C70.9351 147.08 72.1001 146.45 72.9551 146.015C73.4035 145.754 73.8777 145.539 74.3701 145.375Z" fill="#3AC387"/>
<path d="M23.6902 145.895C23.6902 145.895 23.7202 145.985 23.7752 146.16L23.9852 146.94L24.7702 149.94C25.4352 152.54 26.3852 156.25 27.5402 160.745L27.3952 160.665L48.0252 154.22L48.5252 154.035L48.4302 154.2C47.4376 149.58 46.08 145.046 44.3702 140.64C42.7702 136.6 40.9352 133.095 38.8702 130.57C37.9498 129.421 36.8467 128.431 35.6052 127.64C34.6729 127.036 33.6103 126.662 32.5052 126.55C32.2935 126.515 32.0796 126.497 31.8652 126.495L31.2952 126.525C31.1202 126.525 30.9602 126.525 30.7952 126.56L30.4052 126.645L29.8652 126.755C29.8041 126.769 29.7423 126.779 29.6802 126.785C29.736 126.758 29.7947 126.738 29.8552 126.725L30.3902 126.59L30.7852 126.49C30.9352 126.46 31.1002 126.46 31.2852 126.44L31.8602 126.4C32.0774 126.397 32.2945 126.409 32.5102 126.435C33.6366 126.532 34.7234 126.897 35.6802 127.5C36.9408 128.285 38.0627 129.273 39.0002 130.425C41.1352 132.96 43.0002 136.475 44.6152 140.525C46.3432 144.941 47.7143 149.489 48.7152 154.125V154.25L48.5952 154.29L48.0952 154.475C40.3602 156.93 33.1952 159.095 27.4302 160.87L27.3152 160.905L27.2852 160.79C26.1702 156.29 25.2552 152.565 24.6102 149.96C24.3002 148.675 24.0602 147.665 23.8902 146.96L23.7102 146.175C23.6917 146.083 23.685 145.989 23.6902 145.895Z" fill="#3AC387"/>
<path d="M47.815 151.39C47.815 151.47 43.075 152.845 37.18 154.47C31.285 156.095 26.5 157.345 26.5 157.27C26.5 157.195 31.235 155.815 37.13 154.19C43.025 152.565 47.79 151.315 47.815 151.39Z" fill="#3AC387"/>
<path d="M46.0002 87.385C44.6352 84.425 40.8802 83.03 37.7152 83.815C34.5502 84.6 32.0502 87.185 30.7152 90.15C29.3802 93.115 29.0252 96.45 29.0002 99.71C29.0002 101.435 29.0752 103.18 28.7252 104.87C28.3752 106.56 27.5452 108.23 26.0952 109.17C24.9552 109.91 23.5552 110.13 22.3302 110.72C21.1052 111.31 19.9802 112.565 20.2852 113.895C20.6452 115.48 22.6352 115.955 24.2502 116.12C24.2773 117.098 24.5804 118.049 25.1246 118.862C25.6688 119.676 26.4318 120.318 27.3257 120.717C28.2195 121.115 29.2078 121.253 30.1764 121.113C31.1451 120.974 32.0546 120.564 32.8002 119.93C32.3002 121.93 34.0652 123.99 36.0952 124.23C38.1252 124.47 40.0952 123.2 41.2252 121.48C42.3552 119.76 42.6752 117.66 42.7602 115.615C42.8452 113.57 42.7002 111.5 42.9002 109.5" fill="#0C4D3E"/>
<path d="M69.0351 91.11C69.0351 91.11 70.5351 81.06 56.7051 80.875C41.2351 80.67 38.4451 93.875 41.0951 100.83L48.7851 93.21L69.0351 91.11Z" fill="#0C4D3E"/>
<path d="M56.9002 124C57.0552 121.325 57.1702 119.145 57.1702 119.145C57.1702 119.145 65.0902 119.33 66.2552 112.465C67.4202 105.6 68.7552 89.61 68.7552 89.61C65.2957 87.3728 61.2492 86.2145 57.1299 86.2821C53.0106 86.3498 49.0044 87.6404 45.6202 89.99L44.9702 90.44L39.9702 122.185C39.6136 124.411 40.153 126.687 41.4704 128.516C42.7879 130.345 44.7761 131.578 47.0002 131.945C48.1818 132.14 49.3913 132.084 50.5497 131.78C51.7082 131.476 52.7897 130.932 53.7237 130.182C54.6577 129.433 55.4233 128.495 55.9706 127.43C56.518 126.364 56.8347 125.196 56.9002 124Z" fill="#FFBE9D"/>
<path d="M65.9301 101.795C65.9037 101.963 65.8284 102.12 65.7137 102.246C65.5989 102.372 65.4498 102.461 65.2847 102.503C65.1196 102.545 64.9458 102.538 64.785 102.482C64.6241 102.426 64.4832 102.324 64.3797 102.188C64.2762 102.053 64.2147 101.891 64.2028 101.721C64.1909 101.551 64.2292 101.381 64.3128 101.233C64.3964 101.084 64.5218 100.964 64.6733 100.886C64.8248 100.808 64.9958 100.777 65.1651 100.795C65.2816 100.809 65.394 100.846 65.4959 100.905C65.5977 100.963 65.6869 101.041 65.7582 101.134C65.8295 101.227 65.8814 101.334 65.9109 101.447C65.9404 101.561 65.947 101.679 65.9301 101.795Z" fill="#3AC387"/>
<path d="M66.57 100.97C66.445 101.075 65.87 100.47 64.945 100.295C64.02 100.12 63.275 100.525 63.195 100.39C63.115 100.255 63.29 100.13 63.62 99.945C64.0559 99.7163 64.5554 99.6389 65.04 99.725C65.5271 99.8077 65.9734 100.048 66.31 100.41C66.565 100.695 66.63 100.925 66.57 100.97Z" fill="#3AC387"/>
<path d="M56.6451 100.905C56.6415 101.025 56.6132 101.143 56.5619 101.251C56.5106 101.359 56.4375 101.456 56.3471 101.535C56.2568 101.613 56.1511 101.673 56.0368 101.709C55.9225 101.745 55.8019 101.757 55.6827 101.744C55.5636 101.731 55.4483 101.694 55.3442 101.634C55.2401 101.575 55.1494 101.495 55.0778 101.398C55.0062 101.302 54.9552 101.192 54.9281 101.076C54.901 100.959 54.8983 100.838 54.9201 100.72C54.9237 100.6 54.9521 100.482 55.0034 100.374C55.0546 100.266 55.1277 100.169 55.2181 100.09C55.3085 100.012 55.4141 99.9524 55.5285 99.9164C55.6428 99.8804 55.7633 99.8684 55.8825 99.8812C56.0017 99.894 56.1169 99.9313 56.221 99.9907C56.3251 100.05 56.4158 100.13 56.4874 100.227C56.559 100.323 56.61 100.433 56.6371 100.549C56.6643 100.666 56.667 100.787 56.6451 100.905Z" fill="#3AC387"/>
<path d="M57.105 100.125C56.985 100.23 56.405 99.6 55.485 99.45C54.565 99.3 53.815 99.68 53.73 99.54C53.69 99.48 53.83 99.28 54.16 99.1C54.5958 98.8709 55.0954 98.7935 55.58 98.88C56.0673 98.962 56.5139 99.2028 56.85 99.565C57.1 99.845 57.165 100.08 57.105 100.125Z" fill="#3AC387"/>
<path d="M58.3 107.275C58.8143 107.243 59.3305 107.28 59.835 107.385C60.075 107.42 60.305 107.43 60.385 107.27C60.4561 107.017 60.4561 106.748 60.385 106.495C60.31 105.835 60.235 105.145 60.155 104.42C59.86 101.47 59.71 99.075 59.82 99.06C59.93 99.045 60.2601 101.425 60.5601 104.375C60.6251 105.1 60.69 105.79 60.75 106.45C60.8221 106.787 60.7817 107.138 60.635 107.45C60.5828 107.526 60.5136 107.589 60.433 107.634C60.3523 107.68 60.2623 107.705 60.17 107.71C60.0337 107.712 59.8976 107.697 59.765 107.665C59.2612 107.602 58.7683 107.471 58.3 107.275Z" fill="#3AC387"/>
<path d="M57.195 119.145C53.9975 118.653 51.0126 117.241 48.605 115.08C48.605 115.08 50.285 120.54 57.07 120.99L57.195 119.145Z" fill="#EB996E"/>
<path d="M57.3951 110C57.3752 109.701 57.2823 109.412 57.1246 109.157C56.9668 108.903 56.7489 108.691 56.4901 108.54C56.3112 108.433 56.1114 108.367 55.9043 108.344C55.6972 108.322 55.4877 108.344 55.2901 108.41C55.095 108.483 54.9261 108.612 54.8049 108.781C54.6838 108.95 54.616 109.152 54.6101 109.36C54.639 109.591 54.7342 109.808 54.8842 109.985C55.0342 110.163 55.2326 110.293 55.4551 110.36C55.9076 110.484 56.3813 110.512 56.8451 110.44C56.9744 110.436 57.1018 110.407 57.2201 110.355C57.2779 110.327 57.3264 110.282 57.36 110.228C57.3937 110.173 57.411 110.109 57.4101 110.045" fill="#EB996E"/>
<path d="M55.3751 107.5C55.3101 107.5 55.1601 107.73 55.1351 108.185C55.1171 108.789 55.3184 109.379 55.7017 109.846C56.085 110.313 56.6244 110.625 57.2201 110.725C57.6751 110.79 57.9451 110.69 57.9401 110.62C57.9401 110.465 56.8701 110.41 56.1251 109.5C55.3801 108.59 55.5251 107.525 55.3751 107.5Z" fill="#3AC387"/>
<path d="M44.0001 99.395C43.8951 99.32 40.0601 97.665 38.9651 102.18C37.8701 106.695 43.1101 106.235 43.1501 106.105C43.1901 105.975 44.0001 99.395 44.0001 99.395Z" fill="#FFBE9D"/>
<path d="M42.0751 104.21C42.0751 104.21 41.9801 104.245 41.8201 104.275C41.6025 104.312 41.3788 104.27 41.1901 104.155C40.7201 103.87 40.4751 103.025 40.6501 102.205C40.7293 101.812 40.9007 101.444 41.1501 101.13C41.2337 100.995 41.3479 100.883 41.4835 100.801C41.6191 100.719 41.7722 100.671 41.9301 100.66C42.0296 100.655 42.1277 100.684 42.2085 100.742C42.2894 100.8 42.3481 100.884 42.3751 100.98C42.4101 101.12 42.3751 101.205 42.3751 101.22C42.3751 101.235 42.4951 101.165 42.5051 100.97C42.5026 100.852 42.4583 100.739 42.3801 100.65C42.2677 100.526 42.1122 100.449 41.9451 100.435C41.7426 100.427 41.5411 100.468 41.3582 100.555C41.1752 100.642 41.0162 100.772 40.8951 100.935C40.5983 101.277 40.392 101.688 40.2951 102.13C40.1051 103.05 40.3951 104.005 41.0501 104.34C41.1732 104.402 41.3077 104.438 41.4454 104.446C41.5831 104.454 41.7209 104.433 41.8501 104.385C42.0401 104.315 42.0901 104.22 42.0751 104.21Z" fill="#EB996E"/>
<path d="M67.185 86.445C67.9799 87.0202 68.577 87.8276 68.8939 88.7562C69.2109 89.6848 69.2323 90.6888 68.955 91.63C68.275 93.79 66.26 96.13 60.66 96.055L61.935 94.64C60.675 95.6012 59.2025 96.2456 57.6414 96.5188C56.0804 96.792 54.4766 96.6861 52.965 96.21L54.535 93.17C54.535 93.17 47.455 100.675 43.5 101L44 93C44.955 85.45 48.19 83.185 53.085 82.78C54.9031 82.6147 56.7337 82.6466 58.545 82.875C61.6803 83.316 64.6528 84.5442 67.185 86.445Z" fill="#0C4D3E"/>
<path d="M39.5002 79.905C39.8729 79.9956 40.2267 80.1513 40.5452 80.365C42.1532 81.3043 43.4302 82.7194 44.2002 84.415C44.3792 84.7535 44.4976 85.1207 44.5502 85.5C44.4652 85.54 43.9052 83.865 42.4702 82.3C41.0352 80.735 39.4502 80 39.5002 79.905Z" fill="#0C4D3E"/>
<path d="M25.2451 105.5C25.2451 105.5 25.1501 105.4 24.9351 105.265C24.6161 105.072 24.2473 104.979 23.8751 104.995C23.5868 105.002 23.3036 105.072 23.0447 105.198C22.7857 105.325 22.5573 105.507 22.3751 105.73C22.1546 106.043 22.0166 106.406 21.9738 106.786C21.931 107.166 21.9847 107.551 22.1301 107.905C22.3074 108.33 22.5934 108.701 22.9593 108.981C23.3252 109.261 23.7583 109.44 24.2151 109.5C24.744 109.58 25.2841 109.544 25.7973 109.393C26.3105 109.241 26.7842 108.979 27.1851 108.625C28.1047 107.854 28.7401 106.798 28.9901 105.625C29.1226 105.012 29.1226 104.378 28.9901 103.765C28.8391 103.129 28.6143 102.513 28.3201 101.93C28.0401 101.325 27.7401 100.73 27.5051 100.105C27.2751 99.4902 27.1255 98.8482 27.0601 98.195C26.9536 96.9588 27.0982 95.7139 27.4851 94.535C28.1553 92.5518 29.3203 90.7723 30.8701 89.365C31.8888 88.4118 32.9935 87.5548 34.1701 86.805C34.5851 86.54 34.9151 86.34 35.1401 86.21C35.2515 86.1388 35.3685 86.077 35.4901 86.025C35.392 86.1144 35.2847 86.1932 35.1701 86.26L34.2351 86.9C33.0861 87.675 32.004 88.5447 31.0001 89.5C29.5036 90.9051 28.3784 92.659 27.7251 94.605C27.3595 95.7505 27.2252 96.9572 27.3301 98.155C27.4002 98.7832 27.5445 99.4008 27.7601 99.995C27.9901 100.6 28.2901 101.185 28.5751 101.8C28.8769 102.403 29.1069 103.039 29.2601 103.695C29.4001 104.346 29.4001 105.019 29.2601 105.67C28.9899 106.902 28.3138 108.008 27.3401 108.81C26.9098 109.185 26.4022 109.46 25.8535 109.617C25.3047 109.773 24.7283 109.807 24.1651 109.715C23.6678 109.645 23.1982 109.443 22.8045 109.131C22.4109 108.819 22.1073 108.408 21.9251 107.94C21.7744 107.555 21.7233 107.138 21.7766 106.728C21.8299 106.318 21.9859 105.929 22.2301 105.595C22.43 105.357 22.6806 105.167 22.9634 105.038C23.2463 104.909 23.5543 104.845 23.8651 104.85C24.2541 104.843 24.6355 104.958 24.9551 105.18C25.0722 105.266 25.1708 105.375 25.2451 105.5Z" fill="#0C4D3E"/>
<path d="M43.3602 90.41C43.2025 90.1394 43.1068 89.8371 43.0802 89.525C42.9626 88.7816 42.9915 88.0223 43.1652 87.29C43.3343 86.556 43.647 85.8627 44.0852 85.25C44.4252 84.785 44.7052 84.56 44.7252 84.585C44.7452 84.61 43.8202 85.69 43.4452 87.355C43.0702 89.02 43.4502 90.395 43.3602 90.41Z" fill="#3AC387"/>
<path d="M39.2301 105C38.9648 105.231 38.759 105.523 38.6301 105.85C38.5754 106.022 38.5551 106.204 38.5705 106.384C38.586 106.564 38.6368 106.739 38.7201 106.9C38.8371 107.088 38.9959 107.246 39.1841 107.362C39.3723 107.478 39.5849 107.55 39.8051 107.57C40.024 107.605 40.2478 107.59 40.4605 107.528C40.6732 107.466 40.8694 107.357 41.0351 107.21C41.294 106.952 41.4397 106.601 41.4401 106.235C41.4244 105.879 41.314 105.534 41.1201 105.235C41.1201 105.235 41.2301 105.275 41.3551 105.43C41.5295 105.654 41.6307 105.926 41.6451 106.21C41.6595 106.424 41.6296 106.639 41.5573 106.841C41.4851 107.043 41.372 107.228 41.2251 107.385C41.0325 107.567 40.8008 107.703 40.5478 107.781C40.2948 107.86 40.0271 107.88 39.7651 107.84C39.5068 107.816 39.2578 107.731 39.0381 107.593C38.8184 107.455 38.6342 107.267 38.5001 107.045C38.4059 106.851 38.3532 106.64 38.3455 106.425C38.3377 106.209 38.3751 105.995 38.4551 105.795C38.5536 105.531 38.7274 105.301 38.9551 105.135C39.1151 105.025 39.2251 105 39.2301 105Z" fill="#455A64"/>
<path d="M70.1851 93.41C70.1301 93.41 70.3501 92.64 70.3551 91.41C70.3714 89.7784 69.9406 88.1735 69.1094 86.7694C68.2782 85.3653 67.0784 84.2156 65.6401 83.445C64.5451 82.85 63.7701 82.68 63.7851 82.625C63.971 82.6282 64.1552 82.662 64.3301 82.725C64.815 82.8586 65.2856 83.0395 65.7351 83.265C67.2415 84.0112 68.4991 85.1783 69.3555 86.6249C70.2119 88.0715 70.6304 89.7354 70.5601 91.415C70.541 91.9202 70.474 92.4224 70.3601 92.915C70.325 93.0873 70.2661 93.2539 70.1851 93.41Z" fill="#0C4D3E"/>
<path d="M57.5501 98.365C57.5201 98.4 57.3301 98.22 56.9851 98.01C56.5417 97.7368 56.0429 97.566 55.5251 97.51C55.0053 97.4578 54.4804 97.5244 53.9901 97.705C53.6051 97.84 53.3851 97.975 53.3601 97.935C53.3351 97.895 53.5251 97.71 53.9101 97.515C54.4194 97.2628 54.9899 97.1605 55.5551 97.22C56.1194 97.2817 56.6558 97.498 57.1051 97.845C57.4401 98.115 57.5801 98.345 57.5501 98.365Z" fill="#0C4D3E"/>
<path d="M66.3702 99.21C65.7774 99.3061 65.173 99.3061 64.5802 99.21C63.981 99.2123 63.3853 99.1195 62.8152 98.935C63.4064 98.8401 64.009 98.8401 64.6002 98.935C65.2011 98.9316 65.7986 99.0245 66.3702 99.21Z" fill="#0C4D3E"/>
<path d="M98.6252 142.67C98.6252 142.67 101.46 135.935 97.6252 136.67C91.7502 137.79 92.6252 143.505 92.6252 143.505L98.6252 142.67Z" fill="#EB996E"/>
<path d="M104.085 112.46C103.591 112.285 103.074 112.185 102.55 112.165C105.74 114.535 106.605 120.635 104.37 126.795C102.19 132.795 97.78 136.89 93.87 136.86L93.56 136.78C90.455 134.355 89.635 128.33 91.84 122.24C94.045 116.15 98.59 111.99 102.545 112.165C102.143 111.863 101.701 111.621 101.23 111.445C97 109.905 91.5 114.285 89 121.225C86.555 127.965 87.825 134.625 91.795 136.41H91.715L83.895 156.41C83.7279 156.835 83.7365 157.309 83.9189 157.728C84.1013 158.146 84.4425 158.475 84.8675 158.642C85.2925 158.81 85.7665 158.801 86.1852 158.619C86.6039 158.436 86.9329 158.095 87.1 157.67L95 137.59C99.245 139.125 104.725 134.75 107.24 127.81C109.755 120.87 108.33 114 104.085 112.46Z" fill="#3AC387"/>
<path d="M100.555 130.55C100.611 130.338 100.692 130.133 100.795 129.94L101.525 128.325C102.355 126.563 103.002 124.72 103.455 122.825C103.89 120.936 103.89 118.974 103.455 117.085C103.236 116.312 102.958 115.556 102.625 114.825C102.771 114.99 102.893 115.175 102.985 115.375C103.268 115.9 103.491 116.455 103.65 117.03C104.154 118.946 104.183 120.955 103.735 122.885C103.28 124.792 102.6 126.638 101.71 128.385C101.375 129.055 101.095 129.595 100.895 129.96C100.809 130.171 100.694 130.369 100.555 130.55Z" fill="#3AC387"/>
<path d="M99.7351 132.15C99.7901 132.21 99.5501 132.545 99.1901 132.9C98.8301 133.255 98.5001 133.495 98.4451 133.44C98.3901 133.385 98.6301 133.05 98.9901 132.695C99.3501 132.34 99.6801 132.095 99.7351 132.15Z" fill="#3AC387"/>
<path d="M91.2052 139.66C90.6002 138.515 89.8952 136.935 88.8302 136.195C87.7652 135.455 86.2852 134.6 85.0352 135.695C86.6073 137.939 88.0642 140.262 89.4002 142.655L91.2052 139.66Z" fill="#EB996E"/>
<path d="M99.5351 137.635C99.5351 137.635 99.3001 136.305 97.3501 136.89C95.4001 137.475 89.2901 138.75 90.4701 140.05C91.6501 141.35 93.7351 140.765 93.7351 140.765C93.7351 140.765 90.3401 141.5 90.6651 142.21C90.9901 142.92 91.5551 144.15 93.0001 143.38C94.4451 142.61 98.4551 141.305 98.4551 141.305L99.5351 137.635Z" fill="#EB996E"/>
<path d="M99.3151 140.605C99.3151 140.605 99.3151 140.475 99.3151 140.27C99.3103 140.132 99.2638 139.999 99.1816 139.888C99.0995 139.778 98.9856 139.695 98.8551 139.65C98.4208 139.601 97.9812 139.666 97.5801 139.84L95.9551 140.275C94.8001 140.58 93.7501 140.835 92.9851 141.005C92.578 141.126 92.1588 141.201 91.7351 141.23C92.1178 141.045 92.5204 140.904 92.9351 140.81C93.6851 140.585 94.7251 140.31 95.8801 140L97.5101 139.585C97.9593 139.406 98.4508 139.361 98.9251 139.455C99.0845 139.521 99.2189 139.636 99.3087 139.784C99.3986 139.931 99.4393 140.103 99.4251 140.275C99.4101 140.5 99.3251 140.61 99.3151 140.605Z" fill="#3AC387"/>
<path d="M47.1752 154.76L53.0752 165.7L82.3652 150.95C82.3652 150.95 86.6752 142.67 87.3902 142.775C88.1052 142.88 91.2752 144.245 91.2752 144.245C91.2752 144.245 95.7752 141.815 96.7452 142.475C97.7152 143.135 99.0252 151.135 98.1752 153.61C97.3252 156.085 88.4302 161.07 88.4302 161.07C88.4302 161.07 64.4302 176.83 53.9952 182.365C47.1252 186.015 41.0652 181.66 36.9952 174.76L30.0552 160.075" fill="#FFBE9D"/>
</svg>
