<svg width="25" height="25" viewBox="0 0 25 25" fill="none" xmlns="http://www.w3.org/2000/svg">
<g clip-path="url(#clip0_476_803)">
<path d="M1.04193 25.0002C0.77526 25.0002 0.508594 24.8982 0.305469 24.695C-0.101823 24.2877 -0.101823 23.6294 0.305469 23.2221L23.2221 0.305454C23.6294 -0.101838 24.2878 -0.101838 24.6951 0.305454C25.1023 0.712745 25.1023 1.37108 24.6951 1.77837L1.77839 24.695C1.57526 24.8982 1.30859 25.0002 1.04193 25.0002ZM9.37526 5.20858C9.37526 2.91066 7.50651 1.04191 5.20859 1.04191C2.91068 1.04191 1.04193 2.91066 1.04193 5.20858C1.04193 7.5065 2.91068 9.37525 5.20859 9.37525C7.50651 9.37525 9.37526 7.5065 9.37526 5.20858ZM7.29193 5.20858C7.29193 6.35754 6.35755 7.29191 5.20859 7.29191C4.05964 7.29191 3.12526 6.35754 3.12526 5.20858C3.12526 4.05962 4.05964 3.12525 5.20859 3.12525C6.35755 3.12525 7.29193 4.05962 7.29193 5.20858ZM23.9586 19.7919C23.9586 17.494 22.0898 15.6252 19.7919 15.6252C17.494 15.6252 15.6253 17.494 15.6253 19.7919C15.6253 22.0898 17.494 23.9586 19.7919 23.9586C22.0898 23.9586 23.9586 22.0898 23.9586 19.7919ZM21.8753 19.7919C21.8753 20.9409 20.9409 21.8752 19.7919 21.8752C18.643 21.8752 17.7086 20.9409 17.7086 19.7919C17.7086 18.643 18.643 17.7086 19.7919 17.7086C20.9409 17.7086 21.8753 18.643 21.8753 19.7919Z" fill="black"/>
</g>
<defs>
<clipPath id="clip0_476_803">
<rect width="25" height="25" fill="white"/>
</clipPath>
</defs>
</svg>
