<svg width="20" height="20" viewBox="0 0 20 20" fill="none" xmlns="http://www.w3.org/2000/svg">
<g clip-path="url(#clip0_167_214)">
<mask id="path-1-inside-1_167_214" fill="white">
<path d="M18.525 18.5582L19.3416 17.6248C20.1916 16.7748 20.2333 15.3332 19.3 14.4165L17.2583 12.8582C16.3833 11.9832 14.9583 11.9832 14.0916 12.8582L12.8166 14.0998C9.64998 12.7498 7.14998 10.2582 5.89998 7.19149L7.14165 5.91649C7.56665 5.49149 7.79998 4.93316 7.79998 4.33316C7.79998 3.73316 7.56665 3.17483 7.17498 2.79149L5.54165 0.674828C4.66665 -0.200172 3.24165 -0.200172 2.39165 0.658161L1.41665 1.50816C0.499981 2.42483 -0.00835419 3.65816 -0.00835419 4.99983C-0.00835419 11.4582 8.55831 20.0165 15.0083 20.0165C16.3416 20.0165 17.5833 19.5082 18.5166 18.5748L18.525 18.5582ZM0.833313 4.98316C0.833313 3.86649 1.24998 2.84149 1.99165 2.09983L2.97498 1.24983C3.52498 0.699828 4.41665 0.699828 4.93331 1.20816L6.56665 3.32483C6.83331 3.59149 6.98331 3.94149 6.98331 4.32483C6.98331 4.70816 6.83331 5.05816 6.56665 5.32483L5.12498 6.79983C5.00831 6.91649 4.97498 7.08316 5.03331 7.24149C6.35831 10.7165 9.18331 13.5415 12.7666 14.9832C12.9166 15.0415 13.0916 15.0082 13.2166 14.8915L14.6916 13.4498C15.2416 12.8998 16.1333 12.8998 16.725 13.4832L18.7666 15.0415C19.3166 15.5915 19.3166 16.4832 18.75 17.0582L17.9333 17.9915C17.175 18.7498 16.15 19.1665 15.0333 19.1665C9.06665 19.1665 0.849979 10.9498 0.849979 4.98316H0.833313Z"/>
</mask>
<path d="M18.525 18.5582L19.3416 17.6248C20.1916 16.7748 20.2333 15.3332 19.3 14.4165L17.2583 12.8582C16.3833 11.9832 14.9583 11.9832 14.0916 12.8582L12.8166 14.0998C9.64998 12.7498 7.14998 10.2582 5.89998 7.19149L7.14165 5.91649C7.56665 5.49149 7.79998 4.93316 7.79998 4.33316C7.79998 3.73316 7.56665 3.17483 7.17498 2.79149L5.54165 0.674828C4.66665 -0.200172 3.24165 -0.200172 2.39165 0.658161L1.41665 1.50816C0.499981 2.42483 -0.00835419 3.65816 -0.00835419 4.99983C-0.00835419 11.4582 8.55831 20.0165 15.0083 20.0165C16.3416 20.0165 17.5833 19.5082 18.5166 18.5748L18.525 18.5582ZM0.833313 4.98316C0.833313 3.86649 1.24998 2.84149 1.99165 2.09983L2.97498 1.24983C3.52498 0.699828 4.41665 0.699828 4.93331 1.20816L6.56665 3.32483C6.83331 3.59149 6.98331 3.94149 6.98331 4.32483C6.98331 4.70816 6.83331 5.05816 6.56665 5.32483L5.12498 6.79983C5.00831 6.91649 4.97498 7.08316 5.03331 7.24149C6.35831 10.7165 9.18331 13.5415 12.7666 14.9832C12.9166 15.0415 13.0916 15.0082 13.2166 14.8915L14.6916 13.4498C15.2416 12.8998 16.1333 12.8998 16.725 13.4832L18.7666 15.0415C19.3166 15.5915 19.3166 16.4832 18.75 17.0582L17.9333 17.9915C17.175 18.7498 16.15 19.1665 15.0333 19.1665C9.06665 19.1665 0.849979 10.9498 0.849979 4.98316H0.833313Z" fill="#3AC387"/>
<path d="M18.525 18.5582L15.5147 15.9241L15.1767 16.3103L14.9473 16.7693L18.525 18.5582ZM19.3416 17.6248L16.5132 14.7964L16.419 14.8906L16.3313 14.9908L19.3416 17.6248ZM19.3 14.4165L22.1028 11.5627L21.925 11.3881L21.7269 11.2369L19.3 14.4165ZM17.2583 12.8582L14.4299 15.6866L14.6189 15.8756L14.8314 16.0378L17.2583 12.8582ZM14.0916 12.8582L16.8824 15.7238L16.9082 15.6986L16.9336 15.673L14.0916 12.8582ZM12.8166 14.0998L11.248 17.7794L13.6987 18.8242L15.6074 16.9655L12.8166 14.0998ZM5.89998 7.19149L3.03434 4.40078L1.20754 6.27662L2.19587 8.70132L5.89998 7.19149ZM7.14165 5.91649L4.31322 3.08807L4.29449 3.1068L4.27601 3.12578L7.14165 5.91649ZM7.17498 2.79149L4.00819 5.23515L4.17822 5.4555L4.37713 5.65017L7.17498 2.79149ZM5.54165 0.674828L8.70843 -1.76883L8.5516 -1.97207L8.37007 -2.1536L5.54165 0.674828ZM2.39165 0.658161L5.02019 3.67325L5.13069 3.57692L5.23384 3.47276L2.39165 0.658161ZM1.41665 1.50816L-1.21189 -1.50693L-1.31503 -1.41702L-1.41178 -1.32027L1.41665 1.50816ZM18.5166 18.5748L21.3451 21.4033L21.8041 20.9443L22.0944 20.3636L18.5166 18.5748ZM0.833313 4.98316L-3.16669 4.98316V8.98316H0.833313V4.98316ZM1.99165 2.09983L-0.624168 -0.926311L-0.734064 -0.831316L-0.836782 -0.728599L1.99165 2.09983ZM2.97498 1.24983L5.59079 4.27597L5.70069 4.18097L5.80341 4.07826L2.97498 1.24983ZM4.93331 1.20816L8.1001 -1.2355L7.93329 -1.45167L7.73865 -1.64317L4.93331 1.20816ZM6.56665 3.32483L3.39986 5.76849L3.55669 5.97173L3.73822 6.15325L6.56665 3.32483ZM6.56665 5.32483L3.73822 2.4964L3.72206 2.51256L3.70608 2.52891L6.56665 5.32483ZM5.12498 6.79983L7.95341 9.62825L7.96957 9.61209L7.98554 9.59575L5.12498 6.79983ZM5.03331 7.24149L1.27994 8.62432L1.28775 8.6455L1.29579 8.66659L5.03331 7.24149ZM12.7666 14.9832L11.2736 18.6941L11.2952 18.7028L11.3169 18.7112L12.7666 14.9832ZM13.2166 14.8915L15.9459 17.8157L15.9796 17.7843L16.0126 17.7521L13.2166 14.8915ZM14.6916 13.4498L17.4876 16.3104L17.5039 16.2944L17.5201 16.2783L14.6916 13.4498ZM16.725 13.4832L13.9167 16.3316L14.0969 16.5093L14.2981 16.6628L16.725 13.4832ZM18.7666 15.0415L21.5951 12.2131L21.406 12.024L21.1936 11.8619L18.7666 15.0415ZM18.75 17.0582L15.901 14.2505L15.8178 14.3349L15.7397 14.4241L18.75 17.0582ZM17.9333 17.9915L20.7617 20.8199L20.8559 20.7257L20.9436 20.6255L17.9333 17.9915ZM0.849979 4.98316H4.84998V0.983162L0.849979 0.983162V4.98316ZM21.5353 21.1922L22.352 20.2588L16.3313 14.9908L15.5147 15.9241L21.5353 21.1922ZM22.1701 20.4533C24.5679 18.0554 24.6466 14.0611 22.1028 11.5627L16.4971 17.2703C15.82 16.6053 15.8153 15.4943 16.5132 14.7964L22.1701 20.4533ZM21.7269 11.2369L19.6852 9.67852L14.8314 16.0378L16.8731 17.5961L21.7269 11.2369ZM20.0867 10.0297C17.6572 7.60015 13.689 7.5806 11.2497 10.0433L16.9336 15.673C16.2277 16.3857 15.1095 16.3662 14.4299 15.6866L20.0867 10.0297ZM11.3009 9.99252L10.0259 11.2342L15.6074 16.9655L16.8824 15.7238L11.3009 9.99252ZM14.3853 10.4203C12.1411 9.46353 10.437 7.72512 9.60409 5.68167L2.19587 8.70132C3.86294 12.7912 7.15882 16.0361 11.248 17.7794L14.3853 10.4203ZM8.76562 9.98221L10.0073 8.70721L4.27601 3.12578L3.03434 4.40078L8.76562 9.98221ZM9.97007 8.74492C11.1378 7.5772 11.8 6.00449 11.8 4.33316H3.79998C3.79998 3.86184 3.9955 3.40579 4.31322 3.08807L9.97007 8.74492ZM11.8 4.33316C11.8 2.71632 11.1744 1.10887 9.97283 -0.0671806L4.37713 5.65017C3.95885 5.24079 3.79998 4.75001 3.79998 4.33316H11.8ZM10.3418 0.347835L8.70843 -1.76883L2.37486 3.11849L4.00819 5.23515L10.3418 0.347835ZM8.37007 -2.1536C5.9602 -4.56347 1.99154 -4.62246 -0.450544 -2.15644L5.23384 3.47276C4.49175 4.22212 3.37309 4.16313 2.71322 3.50325L8.37007 -2.1536ZM-0.236895 -2.35693L-1.21189 -1.50693L4.04519 4.52325L5.02019 3.67325L-0.236895 -2.35693ZM-1.41178 -1.32027C-3.0961 0.364054 -4.00835 2.62231 -4.00835 4.99983L3.99165 4.99983C3.99165 4.69401 4.09606 4.4856 4.24507 4.33659L-1.41178 -1.32027ZM-4.00835 4.99983C-4.00835 9.76754 -1.0216 14.4852 2.2533 17.759C5.528 21.0325 10.2454 24.0165 15.0083 24.0165L15.0083 16.0165C13.3212 16.0165 10.5303 14.7213 7.90916 12.1011C5.28823 9.48111 3.99165 6.69045 3.99165 4.99983L-4.00835 4.99983ZM15.0083 24.0165C17.3843 24.0165 19.6488 23.0996 21.3451 21.4033L15.6882 15.7464C15.5178 15.9168 15.299 16.0165 15.0083 16.0165L15.0083 24.0165ZM22.0944 20.3636L22.1027 20.347L14.9473 16.7693L14.9389 16.786L22.0944 20.3636ZM4.83331 4.98316C4.83331 4.9236 4.84406 4.89689 4.84443 4.89597C4.84484 4.89495 4.8435 4.89849 4.83912 4.90515C4.83468 4.91189 4.82831 4.92001 4.82007 4.92826L-0.836782 -0.728599C-2.36741 0.802034 -3.16669 2.86182 -3.16669 4.98316L4.83331 4.98316ZM4.60746 5.12597L5.59079 4.27597L0.359165 -1.77631L-0.624168 -0.926311L4.60746 5.12597ZM5.80341 4.07826C4.85664 5.02502 3.23322 5.14691 2.12797 4.05949L7.73865 -1.64317C5.60007 -3.74725 2.19332 -3.62537 0.146553 -1.5786L5.80341 4.07826ZM1.76653 3.65182L3.39986 5.76849L9.73343 0.881168L8.1001 -1.2355L1.76653 3.65182ZM3.73822 6.15325C3.27411 5.68915 2.98331 5.02945 2.98331 4.32483H10.9833C10.9833 2.85354 10.3925 1.49384 9.39507 0.496401L3.73822 6.15325ZM2.98331 4.32483C2.98331 3.62021 3.27411 2.96051 3.73822 2.4964L9.39507 8.15326C10.3925 7.15582 10.9833 5.79611 10.9833 4.32483H2.98331ZM3.70608 2.52891L2.26441 4.00391L7.98554 9.59575L9.42721 8.12075L3.70608 2.52891ZM2.29655 3.9714C1.01664 5.25131 0.712206 7.08332 1.27994 8.62432L8.78669 5.85867C9.23775 7.083 8.99998 8.58168 7.95341 9.62825L2.29655 3.9714ZM1.29579 8.66659C3.03576 13.2299 6.70393 16.8556 11.2736 18.6941L14.2596 11.2722C11.6627 10.2274 9.68087 8.20308 8.77084 5.81639L1.29579 8.66659ZM11.3169 18.7112C12.9417 19.3431 14.732 18.9487 15.9459 17.8157L10.4874 11.9673C11.4513 11.0676 12.8916 10.7399 14.2164 11.2551L11.3169 18.7112ZM16.0126 17.7521L17.4876 16.3104L11.8957 10.5893L10.4207 12.0309L16.0126 17.7521ZM17.5201 16.2783C16.437 17.3613 14.8097 17.212 13.9167 16.3316L19.5333 10.6347C17.4569 8.58764 14.0463 8.43832 11.8632 10.6214L17.5201 16.2783ZM14.2981 16.6628L16.3397 18.2211L21.1936 11.8619L19.1519 10.3035L14.2981 16.6628ZM15.9382 17.8699C14.8846 16.8163 14.9747 15.1904 15.901 14.2505L21.599 19.8659C23.6586 17.776 23.7487 14.3667 21.5951 12.2131L15.9382 17.8699ZM15.7397 14.4241L14.923 15.3575L20.9436 20.6255L21.7603 19.6922L15.7397 14.4241ZM15.1049 15.1631C15.1048 15.1632 15.1066 15.1614 15.1099 15.1592C15.1131 15.1571 15.1151 15.1563 15.1145 15.1566C15.1139 15.1568 15.1082 15.1591 15.0961 15.1614C15.084 15.1637 15.0634 15.1665 15.0333 15.1665L15.0333 23.1665C17.1675 23.1665 19.2232 22.3585 20.7617 20.8199L15.1049 15.1631ZM15.0333 15.1665C13.6166 15.1665 11.038 13.9894 8.53257 11.4839C6.02711 8.97844 4.84998 6.39992 4.84998 4.98316L-3.15002 4.98316C-3.15002 9.53307 -0.218817 14.0462 2.87572 17.1408C5.97025 20.2353 10.4834 23.1665 15.0333 23.1665L15.0333 15.1665ZM0.849979 0.983162H0.833313V8.98316H0.849979V0.983162Z" fill="#3AC387" mask="url(#path-1-inside-1_167_214)"/>
</g>
<defs>
<clipPath id="clip0_167_214">
<rect width="20" height="20" fill="white" transform="matrix(0 1 -1 0 20 0)"/>
</clipPath>
</defs>
</svg>
