<svg width="20" height="20" viewBox="0 0 20 20" fill="none" xmlns="http://www.w3.org/2000/svg">
<g clip-path="url(#clip0_476_439)">
<path d="M10 6.66667C9.54 6.66667 9.16667 6.29333 9.16667 5.83333V5C9.16667 4.54 9.54 4.16667 10 4.16667H10.8333C11.2933 4.16667 11.6667 4.54 11.6667 5V5.83333C11.6667 6.29333 11.2933 6.66667 10.8333 6.66667H10ZM14.1667 6.66667H15C15.46 6.66667 15.8333 6.29333 15.8333 5.83333V5C15.8333 4.54 15.46 4.16667 15 4.16667H14.1667C13.7067 4.16667 13.3333 4.54 13.3333 5V5.83333C13.3333 6.29333 13.7067 6.66667 14.1667 6.66667ZM13.3333 10C13.3333 10.46 13.7067 10.8333 14.1667 10.8333H15C15.46 10.8333 15.8333 10.46 15.8333 10V9.16667C15.8333 8.70667 15.46 8.33333 15 8.33333H14.1667C13.7067 8.33333 13.3333 8.70667 13.3333 9.16667V10ZM15.4167 0H9.58333C7.05667 0 5 2.05667 5 4.58333C5 5.27333 5.56 5.83333 6.25 5.83333C6.94 5.83333 7.5 5.27333 7.5 4.58333C7.5 3.43417 8.43417 2.5 9.58333 2.5H15.4167C16.5658 2.5 17.5 3.43417 17.5 4.58333V15.4167C17.5 16.5658 16.5658 17.5 15.4167 17.5H14.5833C13.8933 17.5 13.3333 18.06 13.3333 18.75C13.3333 19.44 13.8933 20 14.5833 20H15.4167C17.9433 20 20 17.9433 20 15.4167V4.58333C20 2.05667 17.9433 0 15.4167 0ZM12.5 13.2833V16.25C12.5 18.3175 10.8175 20 8.75 20H3.75C1.6825 20 0 18.3175 0 16.25V13.2833C0 12.0125 0.574167 10.8342 1.57583 10.0492L3.71917 8.37167C5.20833 7.20667 7.29083 7.20583 8.78167 8.37167L10.9233 10.0475C11.925 10.8325 12.5 12.0117 12.5 13.2833ZM10 13.2833C10 12.7858 9.775 12.325 9.38333 12.0167L7.24167 10.3408C6.94917 10.1125 6.59917 9.99833 6.25083 9.99833C5.9025 9.99833 5.55167 10.1125 5.26083 10.34L3.1175 12.0175C2.72583 12.3242 2.50167 12.7858 2.50167 13.2833V16.25C2.50167 16.9392 3.0625 17.5 3.75167 17.5H8.75167C9.44083 17.5 10.0017 16.9392 10.0017 16.25V13.2833H10ZM6.66667 13.3333H5.83333C5.37333 13.3333 5 13.7067 5 14.1667V15C5 15.46 5.37333 15.8333 5.83333 15.8333H6.66667C7.12667 15.8333 7.5 15.46 7.5 15V14.1667C7.5 13.7067 7.12667 13.3333 6.66667 13.3333Z" fill="#0C4D3E"/>
</g>
<defs>
<clipPath id="clip0_476_439">
<rect width="20" height="20" fill="white"/>
</clipPath>
</defs>
</svg>
