<svg width="20" height="20" viewBox="0 0 20 20" fill="none" xmlns="http://www.w3.org/2000/svg">
<g clip-path="url(#clip0_167_202)">
<path d="M19.9973 16.6658C19.9973 18.5042 18.5023 19.9992 16.664 19.9992H6.54229L8.24646 18.3325H16.6648C17.584 18.3325 18.3315 17.585 18.3315 16.6658C18.3315 15.7467 17.584 14.9992 16.6648 14.9992H12.4981C10.6598 14.9992 9.16479 13.5042 9.16479 11.6658C9.16479 10.06 10.3065 8.71667 11.8206 8.4025L13.4531 9.99917H12.4981C11.579 9.99917 10.8315 10.7467 10.8315 11.6658C10.8315 12.585 11.579 13.3325 12.4981 13.3325H16.6648C18.5031 13.3325 19.9973 14.8275 19.9973 16.6658ZM18.7765 7.1125L15.8306 9.99417L12.8906 7.11917C11.2598 5.4875 11.2598 2.845 12.884 1.22C13.6715 0.433333 14.7181 0 15.8306 0C16.9431 0 17.9898 0.433333 18.7765 1.22C20.4015 2.845 20.4015 5.48833 18.7765 7.1125ZM7.10979 11.22C8.73479 12.845 8.73479 15.4883 7.10979 17.1125L4.16396 19.9942L1.22396 17.1192C-0.406874 15.4875 -0.406874 12.845 1.21729 11.22C2.00479 10.4333 3.05146 10 4.16396 10C5.27646 10 6.32313 10.4333 7.10979 11.22Z" fill="black"/>
</g>
<defs>
<clipPath id="clip0_167_202">
<rect width="20" height="20" fill="white"/>
</clipPath>
</defs>
</svg>
