<svg xmlns="http://www.w3.org/2000/svg" data-name="Layer 1" viewBox="0 0 100 125" x="0px" y="0px"><defs><style>.cls-1{fill-rule:evenodd;}</style></defs><title>a</title><path class="cls-1" d="M85.277,61.491H79.585v5.59h5.692v-5.59Zm-4.143-1.724h2.595V53.884H81.134v5.883ZM23.819,61.631H18.127v5.638h5.692V61.631Zm-4.144-1.725h2.6V53.974h-2.6v5.932ZM85.348,36.12,88.341,34.1a58.009,58.009,0,0,0-15.952-7.068A75.466,75.466,0,0,0,52.01,24.3a75.035,75.035,0,0,0-21.462,3.046,56.151,56.151,0,0,0-16.369,7.773l3.4,1.654a56.678,56.678,0,0,1,15.527-6.4,78.263,78.263,0,0,1,37.145-.171,58.1,58.1,0,0,1,15.1,5.915ZM80.628,39.3a58.729,58.729,0,0,0-13.081-4.234,79.251,79.251,0,0,0-31.234.032,58.313,58.313,0,0,0-13.242,4.355L21.5,38.69a.869.869,0,0,0-.317-.155l-1.765-.86A55.775,55.775,0,0,1,33.525,32.04a76.732,76.732,0,0,1,36.31-.165A57.084,57.084,0,0,1,83.752,37.2L80.628,39.3Zm-5,3.371a62.844,62.844,0,0,0-10.913-2.691A83.343,83.343,0,0,0,39.8,39.9a64.2,64.2,0,0,0-10.653,2.511l-4.077-1.988a57.962,57.962,0,0,1,11.6-3.643,77.765,77.765,0,0,1,30.54-.032,58.044,58.044,0,0,1,11.753,3.677l-3.329,2.244ZM40.531,61.7H36.423v4.028h4.108V61.7ZM37.64,59.974h1.673V55.716H37.64v4.258ZM70.427,61.7H66.319v4.028h4.108V61.7Zm-2.89-1.725H69.21V55.716H67.537v4.258Zm.945-13.982a.946.946,0,0,1,.118.023q.8.16,1.576.333l3.659-2.466a62.511,62.511,0,0,0-9.39-2.2,81.96,81.96,0,0,0-24.394-.072,64.525,64.525,0,0,0-8.661,1.9l4.825,2.352c2.343-.437,4.857-.78,7.5-1.015,2.68-.239,5.459-.365,8.293-.365a92.783,92.783,0,0,1,9.659.5c2.392.251,4.673.593,6.813,1.013Zm3.67,19.735V60.836a.862.862,0,0,0-.862-.862h-.356v-5.12a.862.862,0,0,0-.862-.862h-.837V47.9q.447.1.885.2a.856.856,0,0,0,.711-.116l10.738-7.24V52.16h-1.3a.862.862,0,0,0-.862.862v6.745h-.687a.862.862,0,0,0-.862.862v5.44l-2.829-.33a.872.872,0,0,0-.146-.012Zm-29.9,0V60.836a.862.862,0,0,0-.862-.862h-.356v-5.12a.862.862,0,0,0-.862-.862h-.836v-6.9c1.463-.214,2.975-.391,4.527-.53,2.58-.229,5.308-.351,8.144-.351a91.179,91.179,0,0,1,9.484.483c2.1.22,4.112.512,6.017.868v6.434h-.836a.862.862,0,0,0-.862.862v5.12h-.356a.862.862,0,0,0-.862.862v4.891Zm-16.712.752v-5.71a.862.862,0,0,0-.862-.863H24V53.112a.862.862,0,0,0-.862-.862h-1.3V40.77l13.879,6.766a.862.862,0,0,0,.588.06q.648-.123,1.313-.236v6.632h-.837a.862.862,0,0,0-.862.862v5.12H35.56a.862.862,0,0,0-.862.862v4.891H33.6v0l-.077,0-7.978.746ZM5.856,68.32,16.4,67.334V60.769a.862.862,0,0,1,.862-.863h.686V53.112a.862.862,0,0,1,.862-.862h1.3V39.929l-7.965-3.883a.862.862,0,0,1-.077-1.506A56.914,56.914,0,0,1,30.056,25.7a76.776,76.776,0,0,1,21.954-3.12,77.148,77.148,0,0,1,20.843,2.8,58.9,58.9,0,0,1,17.468,7.985.86.86,0,0,1,.042,1.454l-7.07,4.767V52.16h1.3a.862.862,0,0,1,.862.862v6.745h.686a.862.862,0,0,1,.863.862v6.508l7.234.844a.861.861,0,0,1,.757.953c0,.025-.006.049-.011.072a.854.854,0,0,1,.018.176V76.56a.862.862,0,0,1-.862.862H5.862A.862.862,0,0,1,5,76.56V69.182a.863.863,0,0,1,.856-.862Zm87.42,4.611H6.724V75.7H93.276V72.931ZM6.724,71.207H93.276V69.6l-6.971-.814a.907.907,0,0,1-.166.016H78.723a.862.862,0,0,1-.862-.862V67.8l-3.015-.352H33.6l-8.063.754a.863.863,0,0,1-.859.788H17.265a.746.746,0,0,1-.095-.006l-10.446.977Z"/></svg>