<svg width="12" height="12" viewBox="0 0 12 12" fill="none" xmlns="http://www.w3.org/2000/svg">
<g clip-path="url(#clip0_272_1169)">
<path d="M12 0.75C12 1.1645 11.664 1.5 11.25 1.5H9.25C9.1125 1.5 9 1.612 9 1.75V3.25C9 3.6645 8.664 4 8.25 4H6.75C6.6125 4 6.5 4.112 6.5 4.25V5.75C6.5 6.1645 6.1645 6.5 5.75 6.5H4.25C4.112 6.5 4 6.612 4 6.75V8.25C4 8.6645 3.6645 9 3.25 9H1.75C1.612 9 1.5 9.112 1.5 9.25V11.25C1.5 11.6645 1.1645 12 0.75 12C0.3355 12 0 11.6645 0 11.25V9.25C0 8.285 0.785 7.5 1.75 7.5H2.5V6.75C2.5 5.785 3.285 5 4.25 5H5V4.25C5 3.285 5.785 2.5 6.75 2.5H7.5V1.75C7.5 0.785 8.285 0 9.25 0H11.25C11.664 0 12 0.3355 12 0.75Z" fill="#939393"/>
</g>
<defs>
<clipPath id="clip0_272_1169">
<rect width="12" height="12" fill="white"/>
</clipPath>
</defs>
</svg>
