<svg width="20" height="20" viewBox="0 0 20 20" fill="none" xmlns="http://www.w3.org/2000/svg">
<g clip-path="url(#clip0_300_39)">
<path d="M14.6517 7.05083C15.1292 7.54833 15.1142 8.34 14.6158 8.81833L10.7783 12.505C10.2217 13.0542 9.485 13.3292 8.74667 13.3292C8.00833 13.3292 7.26833 13.0542 6.70417 12.5033L5.415 11.3467C4.90167 10.885 4.85917 10.095 5.32083 9.58167C5.7825 9.06917 6.57083 9.025 7.08667 9.4875L8.41333 10.6792C8.61083 10.8708 8.87583 10.8725 9.035 10.7142L12.885 7.01583C13.3825 6.5375 14.1717 6.55167 14.6517 7.05083ZM20 10C20 15.5142 15.5142 20 10 20C4.48583 20 0 15.5142 0 10C0 4.48583 4.48583 0 10 0C15.5142 0 20 4.48583 20 10ZM17.5 10C17.5 5.865 14.1358 2.5 10 2.5C5.86417 2.5 2.5 5.865 2.5 10C2.5 14.135 5.86417 17.5 10 17.5C14.1358 17.5 17.5 14.135 17.5 10Z" fill="#0C4D3E"/>
</g>
<defs>
<clipPath id="clip0_300_39">
<rect width="20" height="20" fill="white"/>
</clipPath>
</defs>
</svg>
