<svg width="10" height="10" viewBox="0 0 10 10" fill="none" xmlns="http://www.w3.org/2000/svg">
<g clip-path="url(#clip0_475_150)">
<path d="M9.835 9.27209C9.59458 9.72084 9.12875 10 8.61958 10H7.5C7.27 10 7.08333 9.81375 7.08333 9.58333C7.08333 9.35292 7.27 9.16667 7.5 9.16667H8.61958C8.82417 9.16667 9.00375 9.05875 9.10042 8.87875C9.19667 8.69834 9.18708 8.48917 9.07333 8.31875C9.06458 8.30584 9.05667 8.2925 9.04958 8.27834L8.10208 6.44084C8.03542 6.31167 8.04083 6.15709 8.11667 6.03292C8.1925 5.90875 8.32708 5.83334 8.4725 5.83334H8.64083C8.67583 5.83334 8.70167 5.81792 8.71833 5.78709C8.735 5.75625 8.73333 5.72625 8.71375 5.69667L7.54958 3.53C7.48042 3.40084 7.48417 3.24459 7.55917 3.11917C7.63417 2.99375 7.77 2.91667 7.91667 2.91667C7.95125 2.91667 7.9775 2.90125 7.99375 2.87125C8.0075 2.84583 8.00917 2.82125 7.99875 2.79709L6.33583 0.856668C6.29958 0.823335 6.21917 0.801252 6.14292 0.878752L4.87208 2.35583C4.7225 2.53 4.45875 2.54958 4.28417 2.39959C4.11 2.24958 4.09042 1.98625 4.24042 1.81209L5.53125 0.313335C5.9425 -0.105832 6.57667 -0.0845817 6.94875 0.292085C6.94875 0.292085 8.68083 2.31334 8.69083 2.32917C8.87375 2.61292 8.88708 2.97292 8.72583 3.26917C8.66792 3.37542 8.59125 3.46709 8.50125 3.54084L9.42792 5.26834C9.59625 5.5175 9.61375 5.88 9.45333 6.18C9.36917 6.33709 9.24417 6.46334 9.095 6.5475L9.78083 7.8775C10.05 8.29875 10.0717 8.83042 9.835 9.27209ZM6.66667 6.395V8.125C6.66667 9.15875 5.82542 10 4.79167 10H1.875C0.84125 10 0 9.15875 0 8.125V6.395C0 5.75 0.29125 5.1525 0.799167 4.75417L2.04917 3.77584C2.805 3.18375 3.86125 3.18459 4.61708 3.77584L5.86708 4.75459C6.375 5.1525 6.66625 5.75042 6.66625 6.39542L6.66667 6.395ZM5.83333 6.395C5.83333 6.00792 5.65875 5.64917 5.35375 5.41042L4.10375 4.43209C3.87708 4.255 3.605 4.16584 3.33333 4.16584C3.06167 4.16584 2.78958 4.25458 2.56292 4.4325L1.31292 5.41042C1.00833 5.64917 0.833333 6.00834 0.833333 6.395V8.125C0.833333 8.69958 1.30083 9.16667 1.875 9.16667H4.79167C5.36583 9.16667 5.83333 8.69958 5.83333 8.125V6.395ZM3.75 6.25H2.91667C2.68667 6.25 2.5 6.43667 2.5 6.66667V7.5C2.5 7.73 2.68667 7.91667 2.91667 7.91667H3.75C3.98 7.91667 4.16667 7.73 4.16667 7.5V6.66667C4.16667 6.43667 3.98 6.25 3.75 6.25Z" fill="black"/>
</g>
<defs>
<clipPath id="clip0_475_150">
<rect width="10" height="10" fill="white"/>
</clipPath>
</defs>
</svg>
