<svg width="12" height="12" viewBox="0 0 12 12" fill="none" xmlns="http://www.w3.org/2000/svg">
<g clip-path="url(#clip0_272_1159)">
<path d="M4.99987 9.5C4.99987 8.95 5.44987 8.5 5.99987 8.5C6.54987 8.5 6.99987 8.95 6.99987 9.5C6.99987 10.05 6.54987 10.5 5.99987 10.5C5.44987 10.5 4.99987 10.05 4.99987 9.5ZM11.8399 4.77C12.0449 4.58 12.0549 4.265 11.8649 4.065C10.3549 2.44 8.21487 1.505 5.99987 1.505C3.78487 1.505 1.64487 2.435 0.134867 4.06C-0.0551333 4.265 -0.0401333 4.58 0.159867 4.765C0.359867 4.955 0.679867 4.94 0.864867 4.74C2.18487 3.315 4.05487 2.5 5.99987 2.5C7.94487 2.5 9.80987 3.315 11.1349 4.74C11.2349 4.845 11.3649 4.9 11.4999 4.9C11.6199 4.9 11.7449 4.855 11.8399 4.765V4.77ZM9.33487 7.175C9.53987 6.985 9.54987 6.67 9.35987 6.47C8.49487 5.535 7.26987 5 5.99987 5C4.72987 5 3.50487 5.535 2.63987 6.47C2.44987 6.67 2.46487 6.99001 2.66487 7.175C2.86487 7.36501 3.18487 7.35 3.36987 7.15C4.04487 6.42 5.00487 6.005 5.99987 6.005C6.99487 6.005 7.94987 6.425 8.62987 7.15C8.72987 7.255 8.85987 7.31 8.99487 7.31C9.11487 7.31 9.23987 7.26501 9.33487 7.175Z" fill="#939393"/>
</g>
<defs>
<clipPath id="clip0_272_1159">
<rect width="12" height="12" fill="white"/>
</clipPath>
</defs>
</svg>
